<svg width="562" height="459" fill="none" xmlns="http://www.w3.org/2000/svg"><path d="M7.854 91.176c-.396 0-.726-.088-.99-.264-.25-.19-.455-.47-.616-.836L.506 77.184c-.161-.367-.205-.69-.132-.968.073-.279.227-.499.462-.66a1.44 1.44 0 0 1 .836-.242c.425 0 .74.095.946.286.22.176.403.447.55.814l5.214 12.078h-.946l5.192-12.1c.161-.352.352-.616.572-.792.22-.19.528-.286.924-.286.323 0 .587.08.792.242.22.161.36.381.418.66.059.279.007.601-.154.968L9.438 90.076c-.161.367-.367.645-.616.836-.235.176-.557.264-.968.264Zm12.79.044c-1.114 0-2.082-.227-2.903-.682a4.771 4.771 0 0 1-1.914-1.936c-.455-.85-.682-1.848-.682-2.992 0-.865.124-1.635.374-2.31a4.962 4.962 0 0 1 1.122-1.76 4.616 4.616 0 0 1 1.738-1.122c.674-.264 1.43-.396 2.266-.396 1.114 0 2.082.227 2.904.682.82.455 1.459 1.1 1.914 1.936.454.836.682 1.826.682 2.97 0 .865-.132 1.643-.396 2.332a4.93 4.93 0 0 1-1.1 1.782 5.002 5.002 0 0 1-1.738 1.122c-.675.25-1.43.374-2.266.374Zm0-2.09c.543 0 1.02-.132 1.43-.396.411-.264.727-.653.947-1.166.234-.528.352-1.18.352-1.958 0-1.173-.25-2.046-.748-2.618-.5-.587-1.16-.88-1.98-.88-.543 0-1.02.132-1.43.396-.411.25-.734.638-.968 1.166-.22.513-.33 1.159-.33 1.936 0 1.159.249 2.039.748 2.64.498.587 1.158.88 1.98.88Zm12.742 2.09c-1.129 0-2.112-.227-2.948-.682a4.84 4.84 0 0 1-1.936-1.98c-.454-.85-.682-1.848-.682-2.992 0-.865.125-1.635.374-2.31a4.745 4.745 0 0 1 1.122-1.738 4.72 4.72 0 0 1 1.76-1.1c.69-.264 1.46-.396 2.31-.396a6.8 6.8 0 0 1 1.562.198 5.307 5.307 0 0 1 1.606.66c.235.147.389.323.462.528a1.17 1.17 0 0 1-.242 1.188.92.92 0 0 1-.506.286c-.205.03-.432-.022-.682-.154a3.856 3.856 0 0 0-.99-.418 3.322 3.322 0 0 0-.968-.154c-.484 0-.909.08-1.276.242a2.511 2.511 0 0 0-.946.66c-.249.279-.44.63-.572 1.056a4.98 4.98 0 0 0-.198 1.474c0 1.085.257 1.943.77 2.574.528.616 1.269.924 2.222.924.308 0 .624-.044.946-.132a4.226 4.226 0 0 0 1.012-.418c.25-.132.47-.176.66-.132a.872.872 0 0 1 .506.308c.132.147.213.33.242.55.03.205 0 .41-.088.616a.972.972 0 0 1-.44.506 5.434 5.434 0 0 1-1.54.638 6.525 6.525 0 0 1-1.54.198Zm10.492 0c-1.217 0-2.266-.227-3.145-.682a4.919 4.919 0 0 1-2.046-1.936c-.47-.836-.704-1.826-.704-2.97 0-1.115.227-2.09.681-2.926a5.115 5.115 0 0 1 1.914-1.958c.822-.484 1.753-.726 2.794-.726.763 0 1.445.125 2.047.374a4.22 4.22 0 0 1 1.562 1.078c.44.47.77 1.041.99 1.716.234.66.352 1.408.352 2.244 0 .264-.096.47-.287.616-.175.132-.432.198-.77.198h-7.061v-1.584h6.181l-.352.33c0-.675-.102-1.24-.307-1.694-.191-.455-.477-.8-.858-1.034-.367-.25-.83-.374-1.386-.374-.616 0-1.144.147-1.584.44-.426.279-.756.682-.99 1.21-.22.513-.33 1.13-.33 1.848v.154c0 1.203.278 2.105.835 2.706.572.587 1.408.88 2.508.88.382 0 .807-.044 1.277-.132a4.92 4.92 0 0 0 1.364-.506c.307-.176.579-.25.813-.22.235.015.419.095.55.242.147.147.235.33.264.55a1.03 1.03 0 0 1-.131.638c-.103.22-.286.41-.55.572a5.9 5.9 0 0 1-1.782.726c-.66.147-1.276.22-1.848.22Zm2.64-13.354c.133.235.162.447.088.638a.847.847 0 0 1-.373.44c-.176.088-.367.117-.572.088-.191-.03-.352-.147-.485-.352l-1.782-2.772-1.782 2.772c-.132.205-.3.323-.506.352-.19.03-.373 0-.55-.088a.847.847 0 0 1-.373-.44c-.074-.19-.044-.403.087-.638l1.584-2.904c.177-.337.39-.587.639-.748.264-.161.564-.242.901-.242.338 0 .639.08.903.242.264.161.484.41.66.748l1.562 2.904ZM60.016 91.22c-.777 0-1.474-.147-2.09-.44a3.789 3.789 0 0 1-1.43-1.232 3.094 3.094 0 0 1-.506-1.738c0-.792.205-1.415.616-1.87.41-.47 1.078-.807 2.002-1.012.924-.205 2.163-.308 3.718-.308h1.1v1.584h-1.078c-.91 0-1.635.044-2.178.132-.543.088-.931.242-1.166.462-.22.205-.33.499-.33.88 0 .484.169.88.506 1.188.337.308.807.462 1.408.462.484 0 .91-.11 1.276-.33a2.54 2.54 0 0 0 .902-.946c.22-.396.33-.85.33-1.364v-2.53c0-.733-.161-1.261-.484-1.584-.323-.323-.865-.484-1.628-.484a6.9 6.9 0 0 0-1.386.154 7.388 7.388 0 0 0-1.54.528c-.279.132-.528.169-.748.11a.841.841 0 0 1-.484-.352 1.154 1.154 0 0 1-.176-.616c0-.22.059-.433.176-.638.117-.22.315-.381.594-.484a9.981 9.981 0 0 1 1.936-.594 9.461 9.461 0 0 1 1.716-.176c1.056 0 1.921.161 2.596.484.69.323 1.203.814 1.54 1.474.337.645.506 1.481.506 2.508v5.28c0 .455-.11.807-.33 1.056-.22.235-.535.352-.946.352-.41 0-.733-.117-.968-.352-.22-.25-.33-.601-.33-1.056v-1.056h.176a2.983 2.983 0 0 1-1.738 2.2c-.455.205-.975.308-1.562.308Zm9.853-.066c-.44 0-.777-.132-1.012-.396-.234-.264-.352-.63-.352-1.1v-8.074c0-.484.118-.85.352-1.1.235-.264.572-.396 1.012-.396.44 0 .778.132 1.012.396.25.25.374.616.374 1.1v8.074c0 .47-.117.836-.352 1.1-.234.264-.58.396-1.034.396Zm0-13.112c-.513 0-.916-.125-1.21-.374-.278-.264-.418-.623-.418-1.078 0-.47.14-.829.418-1.078.294-.25.697-.374 1.21-.374.528 0 .932.125 1.21.374.279.25.418.609.418 1.078 0 .455-.14.814-.418 1.078-.278.25-.682.374-1.21.374Zm5.608 13.134c-.44 0-.778-.117-1.012-.352-.235-.25-.352-.601-.352-1.056v-8.316c0-.455.117-.8.352-1.034.234-.235.564-.352.99-.352.425 0 .755.117.99.352.234.235.352.58.352 1.034v1.496l-.242-.55c.322-.777.821-1.364 1.496-1.76.689-.41 1.466-.616 2.332-.616.865 0 1.576.161 2.134.484.557.323.975.814 1.254 1.474.278.645.418 1.467.418 2.464v5.324c0 .455-.118.807-.352 1.056-.235.235-.572.352-1.012.352-.44 0-.785-.117-1.034-.352-.235-.25-.352-.601-.352-1.056v-5.192c0-.836-.162-1.445-.484-1.826-.308-.381-.792-.572-1.452-.572-.807 0-1.452.257-1.936.77-.47.499-.704 1.166-.704 2.002v4.818c0 .939-.462 1.408-1.386 1.408Zm15.64.044c-.938 0-1.767-.227-2.485-.682-.704-.455-1.254-1.1-1.65-1.936-.396-.85-.594-1.848-.594-2.992 0-1.159.198-2.149.594-2.97.396-.836.946-1.481 1.65-1.936.718-.455 1.547-.682 2.486-.682.894 0 1.672.22 2.332.66.674.44 1.13 1.02 1.364 1.738h-.242V76.7c0-.455.117-.8.352-1.034.234-.235.572-.352 1.012-.352.44 0 .777.117 1.012.352.25.235.374.58.374 1.034v13.068c0 .455-.118.807-.352 1.056-.235.235-.572.352-1.012.352-.44 0-.778-.117-1.012-.352-.235-.25-.352-.601-.352-1.056v-1.716l.242.66a3.222 3.222 0 0 1-1.342 1.826c-.675.455-1.467.682-2.376.682Zm.77-2.09c.543 0 1.02-.132 1.43-.396.411-.264.727-.653.947-1.166.234-.528.352-1.18.352-1.958 0-1.173-.25-2.046-.748-2.618-.499-.587-1.159-.88-1.98-.88-.543 0-1.02.132-1.43.396-.41.25-.734.638-.968 1.166-.22.513-.33 1.159-.33 1.936 0 1.159.25 2.039.748 2.64.498.587 1.158.88 1.98.88Zm11.828 2.09c-.777 0-1.474-.147-2.09-.44a3.792 3.792 0 0 1-1.43-1.232 3.096 3.096 0 0 1-.506-1.738c0-.792.206-1.415.616-1.87.411-.47 1.078-.807 2.002-1.012.924-.205 2.164-.308 3.718-.308h1.1v1.584h-1.078c-.909 0-1.635.044-2.178.132-.542.088-.931.242-1.166.462-.22.205-.33.499-.33.88 0 .484.169.88.506 1.188.338.308.807.462 1.408.462.484 0 .91-.11 1.276-.33.382-.235.682-.55.902-.946.22-.396.33-.85.33-1.364v-2.53c0-.733-.161-1.261-.484-1.584-.322-.323-.865-.484-1.628-.484-.425 0-.887.051-1.386.154a7.396 7.396 0 0 0-1.54.528c-.278.132-.528.169-.748.11a.845.845 0 0 1-.484-.352 1.157 1.157 0 0 1-.176-.616c0-.22.059-.433.176-.638.118-.22.316-.381.594-.484a9.99 9.99 0 0 1 1.936-.594 9.468 9.468 0 0 1 1.716-.176c1.056 0 1.922.161 2.596.484.69.323 1.203.814 1.54 1.474.338.645.506 1.481.506 2.508v5.28c0 .455-.11.807-.33 1.056-.22.235-.535.352-.946.352-.41 0-.733-.117-.968-.352-.22-.25-.33-.601-.33-1.056v-1.056h.176a3.05 3.05 0 0 1-.616 1.342 2.976 2.976 0 0 1-1.122.858c-.454.205-.975.308-1.562.308Zm15.826-.044c-.44 0-.777-.117-1.012-.352-.235-.25-.352-.601-.352-1.056v-8.316c0-.455.117-.8.352-1.034.235-.235.565-.352.99-.352.425 0 .755.117.99.352s.352.58.352 1.034v1.496l-.242-.55c.323-.777.821-1.364 1.496-1.76.689-.41 1.467-.616 2.332-.616.865 0 1.577.161 2.134.484.557.323.975.814 1.254 1.474.279.645.418 1.467.418 2.464v5.324c0 .455-.117.807-.352 1.056-.235.235-.572.352-1.012.352-.44 0-.785-.117-1.034-.352-.235-.25-.352-.601-.352-1.056v-5.192c0-.836-.161-1.445-.484-1.826-.308-.381-.792-.572-1.452-.572-.807 0-1.452.257-1.936.77-.469.499-.704 1.166-.704 2.002v4.818c0 .939-.462 1.408-1.386 1.408Zm15.047.044c-.777 0-1.474-.147-2.09-.44a3.792 3.792 0 0 1-1.43-1.232 3.097 3.097 0 0 1-.506-1.738c0-.792.206-1.415.616-1.87.411-.47 1.078-.807 2.002-1.012.924-.205 2.164-.308 3.718-.308h1.1v1.584h-1.078c-.909 0-1.635.044-2.178.132-.542.088-.931.242-1.166.462-.22.205-.33.499-.33.88 0 .484.169.88.506 1.188.338.308.807.462 1.408.462.484 0 .91-.11 1.276-.33.382-.235.682-.55.902-.946.22-.396.33-.85.33-1.364v-2.53c0-.733-.161-1.261-.484-1.584-.322-.323-.865-.484-1.628-.484-.425 0-.887.051-1.386.154a7.396 7.396 0 0 0-1.54.528c-.278.132-.528.169-.748.11a.845.845 0 0 1-.484-.352 1.157 1.157 0 0 1-.176-.616c0-.22.059-.433.176-.638.118-.22.316-.381.594-.484a9.99 9.99 0 0 1 1.936-.594 9.468 9.468 0 0 1 1.716-.176c1.056 0 1.922.161 2.596.484.69.323 1.203.814 1.54 1.474.338.645.506 1.481.506 2.508v5.28c0 .455-.11.807-.33 1.056-.22.235-.535.352-.946.352-.41 0-.733-.117-.968-.352-.22-.25-.33-.601-.33-1.056v-1.056h.176a3.05 3.05 0 0 1-.616 1.342 2.976 2.976 0 0 1-1.122.858c-.454.205-.975.308-1.562.308Zm-2.42-13.002c-.22-.015-.388-.088-.506-.22-.117-.132-.146-.337-.088-.616.059-.308.147-.609.264-.902a3.44 3.44 0 0 1 .506-.836c.206-.25.455-.447.748-.594a2.115 2.115 0 0 1 1.034-.242c.367 0 .69.073.968.22.279.147.536.315.77.506.235.19.47.36.704.506.235.147.492.22.77.22.308 0 .572-.103.792-.308.235-.22.382-.491.44-.814a.58.58 0 0 1 .22-.374c.132-.088.316-.125.55-.11.22.015.389.088.506.22.118.132.147.337.088.616a4.235 4.235 0 0 1-.418 1.188 2.871 2.871 0 0 1-.836.99c-.337.264-.77.396-1.298.396a2.05 2.05 0 0 1-.968-.22 5.655 5.655 0 0 1-.792-.506 6.904 6.904 0 0 0-.704-.506 1.386 1.386 0 0 0-.748-.22 1.12 1.12 0 0 0-.792.308c-.22.205-.366.477-.44.814a.547.547 0 0 1-.242.374c-.117.088-.293.125-.528.11Zm15.815 13.002c-1.114 0-2.082-.227-2.904-.682a4.775 4.775 0 0 1-1.914-1.936c-.454-.85-.682-1.848-.682-2.992 0-.865.125-1.635.374-2.31a4.962 4.962 0 0 1 1.122-1.76 4.622 4.622 0 0 1 1.738-1.122c.675-.264 1.43-.396 2.266-.396 1.115 0 2.083.227 2.904.682.822.455 1.46 1.1 1.914 1.936.455.836.682 1.826.682 2.97 0 .865-.132 1.643-.396 2.332a4.927 4.927 0 0 1-1.1 1.782 4.999 4.999 0 0 1-1.738 1.122c-.674.25-1.43.374-2.266.374Zm0-2.09c.543 0 1.02-.132 1.43-.396.411-.264.726-.653.946-1.166.235-.528.352-1.18.352-1.958 0-1.173-.249-2.046-.748-2.618-.498-.587-1.158-.88-1.98-.88-.542 0-1.019.132-1.43.396-.41.25-.733.638-.968 1.166-.22.513-.33 1.159-.33 1.936 0 1.159.25 2.039.748 2.64.499.587 1.159.88 1.98.88Zm15.107 6.006c-.44 0-.777-.117-1.012-.352s-.352-.58-.352-1.034V81.452c0-.455.117-.8.352-1.034.235-.235.565-.352.99-.352.44 0 .777.117 1.012.352s.352.58.352 1.034v1.716l-.242-.66c.22-.748.667-1.35 1.342-1.804.689-.455 1.489-.682 2.398-.682.939 0 1.76.227 2.464.682.719.455 1.276 1.1 1.672 1.936.396.821.594 1.811.594 2.97 0 1.144-.198 2.141-.594 2.992-.396.836-.946 1.481-1.65 1.936-.704.455-1.533.682-2.486.682-.895 0-1.679-.22-2.354-.66-.675-.455-1.129-1.041-1.364-1.76h.264v4.95c0 .455-.125.8-.374 1.034-.235.235-.572.352-1.012.352Zm4.07-6.006c.543 0 1.019-.132 1.43-.396.411-.264.726-.653.946-1.166.235-.528.352-1.18.352-1.958 0-1.173-.249-2.046-.748-2.618-.499-.587-1.159-.88-1.98-.88-.543 0-1.019.132-1.43.396-.411.25-.733.638-.968 1.166-.22.513-.33 1.159-.33 1.936 0 1.159.249 2.039.748 2.64.499.587 1.159.88 1.98.88Zm12.663 2.09c-1.114 0-2.082-.227-2.904-.682a4.775 4.775 0 0 1-1.914-1.936c-.454-.85-.682-1.848-.682-2.992 0-.865.125-1.635.374-2.31a4.962 4.962 0 0 1 1.122-1.76 4.622 4.622 0 0 1 1.738-1.122c.675-.264 1.43-.396 2.266-.396 1.115 0 2.083.227 2.904.682.822.455 1.46 1.1 1.914 1.936.455.836.682 1.826.682 2.97 0 .865-.132 1.643-.396 2.332a4.927 4.927 0 0 1-1.1 1.782 4.999 4.999 0 0 1-1.738 1.122c-.674.25-1.43.374-2.266.374Zm0-2.09c.543 0 1.02-.132 1.43-.396.411-.264.726-.653.946-1.166.235-.528.352-1.18.352-1.958 0-1.173-.249-2.046-.748-2.618-.498-.587-1.158-.88-1.98-.88-.542 0-1.019.132-1.43.396-.41.25-.733.638-.968 1.166-.22.513-.33 1.159-.33 1.936 0 1.159.25 2.039.748 2.64.499.587 1.159.88 1.98.88Zm11.708 2.09c-.631 0-1.298-.066-2.002-.198a5.92 5.92 0 0 1-1.892-.682 1.39 1.39 0 0 1-.506-.506 1.25 1.25 0 0 1-.11-.594 1.07 1.07 0 0 1 .22-.528.912.912 0 0 1 .484-.286c.205-.044.425-.007.66.11a8.086 8.086 0 0 0 1.65.594 7.72 7.72 0 0 0 1.518.154c.704 0 1.225-.117 1.562-.352.352-.25.528-.572.528-.968 0-.337-.117-.594-.352-.77-.22-.19-.557-.33-1.012-.418l-2.2-.418c-.909-.176-1.606-.506-2.09-.99-.469-.499-.704-1.137-.704-1.914 0-.704.191-1.313.572-1.826.396-.513.939-.91 1.628-1.188.689-.279 1.481-.418 2.376-.418.645 0 1.247.073 1.804.22a6.303 6.303 0 0 1 1.65.638c.22.117.367.271.44.462.088.19.11.389.066.594-.044.19-.132.367-.264.528a.922.922 0 0 1-.506.286c-.191.03-.411-.015-.66-.132a5.932 5.932 0 0 0-1.32-.506 4.896 4.896 0 0 0-1.188-.154c-.719 0-1.254.125-1.606.374-.337.25-.506.58-.506.99 0 .308.103.565.308.77.205.205.521.345.946.418l2.2.418c.953.176 1.672.499 2.156.968.499.47.748 1.1.748 1.892 0 1.07-.418 1.914-1.254 2.53-.836.601-1.951.902-3.344.902Zm10.742 0c-.63 0-1.298-.066-2.002-.198a5.929 5.929 0 0 1-1.892-.682 1.397 1.397 0 0 1-.506-.506 1.262 1.262 0 0 1-.11-.594c.03-.205.103-.381.22-.528a.915.915 0 0 1 .484-.286c.206-.044.426-.007.66.11a8.086 8.086 0 0 0 1.65.594c.514.103 1.02.154 1.518.154.704 0 1.225-.117 1.562-.352.352-.25.528-.572.528-.968 0-.337-.117-.594-.352-.77-.22-.19-.557-.33-1.012-.418l-2.2-.418c-.909-.176-1.606-.506-2.09-.99-.469-.499-.704-1.137-.704-1.914 0-.704.191-1.313.572-1.826.396-.513.939-.91 1.628-1.188.69-.279 1.482-.418 2.376-.418a7.05 7.05 0 0 1 1.804.22 6.303 6.303 0 0 1 1.65.638c.22.117.367.271.44.462.088.19.11.389.066.594-.044.19-.132.367-.264.528a.918.918 0 0 1-.506.286c-.19.03-.41-.015-.66-.132a5.895 5.895 0 0 0-1.32-.506 4.884 4.884 0 0 0-1.188-.154c-.718 0-1.254.125-1.606.374-.337.25-.506.58-.506.99 0 .308.103.565.308.77.206.205.521.345.946.418l2.2.418c.954.176 1.672.499 2.156.968.499.47.748 1.1.748 1.892 0 1.07-.418 1.914-1.254 2.53-.836.601-1.95.902-3.344.902Zm10.698 0c-.894 0-1.635-.161-2.222-.484-.586-.337-1.026-.836-1.32-1.496-.278-.66-.418-1.481-.418-2.464v-5.324c0-.47.118-.814.352-1.034.235-.235.572-.352 1.012-.352.44 0 .778.117 1.012.352.25.22.374.565.374 1.034v5.368c0 .763.154 1.327.462 1.694.308.367.8.55 1.474.55.734 0 1.335-.25 1.804-.748.47-.513.704-1.188.704-2.024v-4.84c0-.47.118-.814.352-1.034.235-.235.572-.352 1.012-.352.44 0 .778.117 1.012.352.25.22.374.565.374 1.034v8.316c0 .939-.447 1.408-1.342 1.408-.425 0-.755-.117-.99-.352-.234-.25-.352-.601-.352-1.056v-1.672l.308.66c-.308.792-.777 1.4-1.408 1.826-.616.425-1.349.638-2.2.638Zm10.211-.066c-.44 0-.778-.132-1.012-.396-.235-.264-.352-.63-.352-1.1v-8.074c0-.484.117-.85.352-1.1.234-.264.572-.396 1.012-.396.44 0 .777.132 1.012.396.249.25.374.616.374 1.1v8.074c0 .47-.118.836-.352 1.1-.235.264-.58.396-1.034.396Zm0-13.112c-.514 0-.917-.125-1.21-.374-.279-.264-.418-.623-.418-1.078 0-.47.139-.829.418-1.078.293-.25.696-.374 1.21-.374.528 0 .931.125 1.21.374.278.25.418.609.418 1.078 0 .455-.14.814-.418 1.078-.279.25-.682.374-1.21.374Zm11.58 13.134c-.44 0-.778-.117-1.012-.352-.235-.25-.352-.601-.352-1.056v-8.316c0-.455.117-.8.352-1.034.234-.235.564-.352.99-.352.425 0 .755.117.99.352.234.235.352.58.352 1.034v1.496l-.242-.55c.322-.777.821-1.364 1.496-1.76.689-.41 1.466-.616 2.332-.616.865 0 1.576.161 2.134.484.557.323.975.814 1.254 1.474.278.645.418 1.467.418 2.464v5.324c0 .455-.118.807-.352 1.056-.235.235-.572.352-1.012.352-.44 0-.785-.117-1.034-.352-.235-.25-.352-.601-.352-1.056v-5.192c0-.836-.162-1.445-.484-1.826-.308-.381-.792-.572-1.452-.572-.807 0-1.452.257-1.936.77-.47.499-.704 1.166-.704 2.002v4.818c0 .939-.462 1.408-1.386 1.408Zm16.807.044c-1.217 0-2.266-.227-3.146-.682a4.919 4.919 0 0 1-2.046-1.936c-.469-.836-.704-1.826-.704-2.97 0-1.115.227-2.09.682-2.926a5.111 5.111 0 0 1 1.914-1.958c.821-.484 1.753-.726 2.794-.726.763 0 1.445.125 2.046.374a4.2 4.2 0 0 1 1.562 1.078c.44.47.77 1.041.99 1.716.235.66.352 1.408.352 2.244 0 .264-.095.47-.286.616-.176.132-.433.198-.77.198h-7.062v-1.584h6.182l-.352.33c0-.675-.103-1.24-.308-1.694-.191-.455-.477-.8-.858-1.034-.367-.25-.829-.374-1.386-.374-.616 0-1.144.147-1.584.44-.425.279-.755.682-.99 1.21-.22.513-.33 1.13-.33 1.848v.154c0 1.203.279 2.105.836 2.706.572.587 1.408.88 2.508.88.381 0 .807-.044 1.276-.132a4.917 4.917 0 0 0 1.364-.506c.308-.176.579-.25.814-.22.235.015.418.095.55.242.147.147.235.33.264.55.029.205-.015.418-.132.638-.103.22-.286.41-.55.572a5.893 5.893 0 0 1-1.782.726c-.66.147-1.276.22-1.848.22Zm7.986-.044c-.44 0-.778-.117-1.012-.352-.235-.25-.352-.601-.352-1.056v-8.316c0-.455.117-.8.352-1.034.234-.235.564-.352.99-.352.425 0 .755.117.99.352.234.235.352.58.352 1.034v1.496l-.242-.55c.322-.777.821-1.364 1.496-1.76.689-.41 1.466-.616 2.332-.616.865 0 1.576.161 2.134.484.557.323.975.814 1.254 1.474.278.645.418 1.467.418 2.464v5.324c0 .455-.118.807-.352 1.056-.235.235-.572.352-1.012.352-.44 0-.785-.117-1.034-.352-.235-.25-.352-.601-.352-1.056v-5.192c0-.836-.162-1.445-.484-1.826-.308-.381-.792-.572-1.452-.572-.807 0-1.452.257-1.936.77-.47.499-.704 1.166-.704 2.002v4.818c0 .939-.462 1.408-1.386 1.408Zm12.869 0c-.44 0-.777-.117-1.012-.352-.235-.25-.352-.601-.352-1.056V76.7c0-.455.117-.8.352-1.034.235-.235.572-.352 1.012-.352.44 0 .777.117 1.012.352.249.235.374.58.374 1.034v5.698h-.308c.323-.777.821-1.364 1.496-1.76.689-.41 1.467-.616 2.332-.616.865 0 1.577.161 2.134.484.557.323.975.814 1.254 1.474.279.645.418 1.467.418 2.464v5.324c0 .455-.117.807-.352 1.056-.235.235-.572.352-1.012.352-.44 0-.785-.117-1.034-.352-.235-.25-.352-.601-.352-1.056v-5.192c0-.836-.161-1.445-.484-1.826-.308-.381-.792-.572-1.452-.572-.807 0-1.452.257-1.936.77-.469.499-.704 1.166-.704 2.002v4.818c0 .939-.462 1.408-1.386 1.408Zm15.399.044c-.895 0-1.635-.161-2.222-.484-.587-.337-1.027-.836-1.32-1.496-.279-.66-.418-1.481-.418-2.464v-5.324c0-.47.117-.814.352-1.034.235-.235.572-.352 1.012-.352.44 0 .777.117 1.012.352.249.22.374.565.374 1.034v5.368c0 .763.154 1.327.462 1.694.308.367.799.55 1.474.55.733 0 1.335-.25 1.804-.748.469-.513.704-1.188.704-2.024v-4.84c0-.47.117-.814.352-1.034.235-.235.572-.352 1.012-.352.44 0 .777.117 1.012.352.249.22.374.565.374 1.034v8.316c0 .939-.447 1.408-1.342 1.408-.425 0-.755-.117-.99-.352-.235-.25-.352-.601-.352-1.056v-1.672l.308.66c-.308.792-.777 1.4-1.408 1.826-.616.425-1.349.638-2.2.638Zm10.254-.044c-.44 0-.777-.117-1.012-.352-.234-.25-.352-.601-.352-1.056v-8.316c0-.455.118-.8.352-1.034.235-.235.565-.352.99-.352.426 0 .756.117.99.352.235.235.352.58.352 1.034v1.606l-.242-.66c.294-.733.748-1.313 1.364-1.738.616-.425 1.35-.638 2.2-.638.866 0 1.577.205 2.134.616.558.41.946 1.041 1.166 1.892h-.308a3.67 3.67 0 0 1 1.452-1.826c.675-.455 1.452-.682 2.332-.682.822 0 1.496.161 2.024.484.543.323.946.814 1.21 1.474.264.645.396 1.467.396 2.464v5.324c0 .455-.124.807-.374 1.056-.234.235-.572.352-1.012.352-.44 0-.777-.117-1.012-.352-.234-.25-.352-.601-.352-1.056v-5.214c0-.821-.139-1.423-.418-1.804-.264-.381-.718-.572-1.364-.572-.718 0-1.283.257-1.694.77-.41.499-.616 1.195-.616 2.09v4.73c0 .455-.117.807-.352 1.056-.234.235-.572.352-1.012.352-.44 0-.784-.117-1.034-.352-.234-.25-.352-.601-.352-1.056v-5.214c0-.821-.139-1.423-.418-1.804-.264-.381-.711-.572-1.342-.572-.718 0-1.283.257-1.694.77-.41.499-.616 1.195-.616 2.09v4.73c0 .939-.462 1.408-1.386 1.408Zm27.532.044c-1.217 0-2.134-.345-2.75-1.034-.616-.704-.924-1.73-.924-3.08V76.7c0-.455.117-.8.352-1.034.235-.235.572-.352 1.012-.352.44 0 .777.117 1.012.352.249.235.374.58.374 1.034v10.274c0 .675.139 1.173.418 1.496.293.323.704.484 1.232.484h.33l.308-.044c.205-.03.345.03.418.176.073.132.11.41.11.836 0 .367-.073.653-.22.858-.147.205-.389.33-.726.374-.147.015-.301.03-.462.044a5.331 5.331 0 0 1-.484.022Zm6.893 0c-.777 0-1.474-.147-2.09-.44a3.792 3.792 0 0 1-1.43-1.232 3.097 3.097 0 0 1-.506-1.738c0-.792.206-1.415.616-1.87.411-.47 1.078-.807 2.002-1.012.924-.205 2.164-.308 3.718-.308h1.1v1.584h-1.078c-.909 0-1.635.044-2.178.132-.542.088-.931.242-1.166.462-.22.205-.33.499-.33.88 0 .484.169.88.506 1.188.338.308.807.462 1.408.462.484 0 .91-.11 1.276-.33.382-.235.682-.55.902-.946.22-.396.33-.85.33-1.364v-2.53c0-.733-.161-1.261-.484-1.584-.322-.323-.865-.484-1.628-.484-.425 0-.887.051-1.386.154a7.396 7.396 0 0 0-1.54.528c-.278.132-.528.169-.748.11a.845.845 0 0 1-.484-.352 1.157 1.157 0 0 1-.176-.616c0-.22.059-.433.176-.638.118-.22.316-.381.594-.484a9.99 9.99 0 0 1 1.936-.594 9.468 9.468 0 0 1 1.716-.176c1.056 0 1.922.161 2.596.484.69.323 1.203.814 1.54 1.474.338.645.506 1.481.506 2.508v5.28c0 .455-.11.807-.33 1.056-.22.235-.535.352-.946.352-.41 0-.733-.117-.968-.352-.22-.25-.33-.601-.33-1.056v-1.056h.176a3.05 3.05 0 0 1-.616 1.342 2.976 2.976 0 0 1-1.122.858c-.454.205-.975.308-1.562.308Zm9.854-.044c-.44 0-.778-.117-1.012-.352-.235-.25-.352-.601-.352-1.056v-8.316c0-.455.117-.8.352-1.034.234-.235.564-.352.99-.352.425 0 .755.117.99.352.234.235.352.58.352 1.034v1.496l-.242-.55c.322-.777.821-1.364 1.496-1.76.689-.41 1.466-.616 2.332-.616.865 0 1.576.161 2.134.484.557.323.975.814 1.254 1.474.278.645.418 1.467.418 2.464v5.324c0 .455-.118.807-.352 1.056-.235.235-.572.352-1.012.352-.44 0-.785-.117-1.034-.352-.235-.25-.352-.601-.352-1.056v-5.192c0-.836-.162-1.445-.484-1.826-.308-.381-.792-.572-1.452-.572-.807 0-1.452.257-1.936.77-.47.499-.704 1.166-.704 2.002v4.818c0 .939-.462 1.408-1.386 1.408Zm16.477.044c-1.13 0-2.112-.227-2.948-.682a4.837 4.837 0 0 1-1.936-1.98c-.455-.85-.682-1.848-.682-2.992 0-.865.124-1.635.374-2.31a4.745 4.745 0 0 1 1.122-1.738 4.715 4.715 0 0 1 1.76-1.1c.689-.264 1.459-.396 2.31-.396.484 0 1.004.066 1.562.198a5.31 5.31 0 0 1 1.606.66c.234.147.388.323.462.528.073.205.088.418.044.638-.044.205-.14.389-.286.55a.922.922 0 0 1-.506.286c-.206.03-.433-.022-.682-.154a3.865 3.865 0 0 0-.99-.418 3.325 3.325 0 0 0-.968-.154c-.484 0-.91.08-1.276.242a2.509 2.509 0 0 0-.946.66c-.25.279-.44.63-.572 1.056a4.98 4.98 0 0 0-.198 1.474c0 1.085.256 1.943.77 2.574.528.616 1.268.924 2.222.924.308 0 .623-.044.946-.132a4.242 4.242 0 0 0 1.012-.418c.249-.132.469-.176.66-.132a.873.873 0 0 1 .506.308c.132.147.212.33.242.55.029.205 0 .41-.088.616a.975.975 0 0 1-.44.506 5.442 5.442 0 0 1-1.54.638 6.527 6.527 0 0 1-1.54.198Zm-.132 4.07c-.279 0-.572-.022-.88-.066a3.503 3.503 0 0 1-.836-.176c-.22-.073-.374-.198-.462-.374a.746.746 0 0 1-.044-.506.7.7 0 0 1 .308-.374c.161-.088.352-.088.572 0 .19.059.374.103.55.132.176.03.366.044.572.044.381 0 .674-.059.88-.176a.51.51 0 0 0 .308-.484.424.424 0 0 0-.198-.374c-.118-.088-.323-.132-.616-.132h-.33a3.26 3.26 0 0 0-.33.066.649.649 0 0 1-.286.022.35.35 0 0 1-.22-.088.388.388 0 0 1-.11-.22 1.361 1.361 0 0 1 0-.352l.242-1.672h1.474l-.286 1.672-.704-.242a3.398 3.398 0 0 1 1.012-.176c.601 0 1.085.14 1.452.418.366.279.55.667.55 1.166 0 .572-.242 1.027-.726 1.364-.484.352-1.115.528-1.892.528Zm9.014-4.07c-.777 0-1.474-.147-2.09-.44a3.792 3.792 0 0 1-1.43-1.232 3.097 3.097 0 0 1-.506-1.738c0-.792.206-1.415.616-1.87.411-.47 1.078-.807 2.002-1.012.924-.205 2.164-.308 3.718-.308h1.1v1.584h-1.078c-.909 0-1.635.044-2.178.132-.542.088-.931.242-1.166.462-.22.205-.33.499-.33.88 0 .484.169.88.506 1.188.338.308.807.462 1.408.462.484 0 .91-.11 1.276-.33.382-.235.682-.55.902-.946.22-.396.33-.85.33-1.364v-2.53c0-.733-.161-1.261-.484-1.584-.322-.323-.865-.484-1.628-.484-.425 0-.887.051-1.386.154a7.396 7.396 0 0 0-1.54.528c-.278.132-.528.169-.748.11a.845.845 0 0 1-.484-.352 1.157 1.157 0 0 1-.176-.616c0-.22.059-.433.176-.638.118-.22.316-.381.594-.484a9.99 9.99 0 0 1 1.936-.594 9.468 9.468 0 0 1 1.716-.176c1.056 0 1.922.161 2.596.484.69.323 1.203.814 1.54 1.474.338.645.506 1.481.506 2.508v5.28c0 .455-.11.807-.33 1.056-.22.235-.535.352-.946.352-.41 0-.733-.117-.968-.352-.22-.25-.33-.601-.33-1.056v-1.056h.176a3.05 3.05 0 0 1-.616 1.342 2.976 2.976 0 0 1-1.122.858c-.454.205-.975.308-1.562.308Zm9.897-.044c-.44 0-.777-.117-1.012-.352-.234-.25-.352-.601-.352-1.056v-8.316c0-.455.118-.8.352-1.034.235-.235.565-.352.99-.352.426 0 .756.117.99.352.235.235.352.58.352 1.034v1.606l-.242-.66c.294-.733.748-1.313 1.364-1.738.616-.425 1.35-.638 2.2-.638.866 0 1.577.205 2.134.616.558.41.946 1.041 1.166 1.892h-.308a3.67 3.67 0 0 1 1.452-1.826c.675-.455 1.452-.682 2.332-.682.822 0 1.496.161 2.024.484.543.323.946.814 1.21 1.474.264.645.396 1.467.396 2.464v5.324c0 .455-.124.807-.374 1.056-.234.235-.572.352-1.012.352-.44 0-.777-.117-1.012-.352-.234-.25-.352-.601-.352-1.056v-5.214c0-.821-.139-1.423-.418-1.804-.264-.381-.718-.572-1.364-.572-.718 0-1.283.257-1.694.77-.41.499-.616 1.195-.616 2.09v4.73c0 .455-.117.807-.352 1.056-.234.235-.572.352-1.012.352-.44 0-.784-.117-1.034-.352-.234-.25-.352-.601-.352-1.056v-5.214c0-.821-.139-1.423-.418-1.804-.264-.381-.711-.572-1.342-.572-.718 0-1.283.257-1.694.77-.41.499-.616 1.195-.616 2.09v4.73c0 .939-.462 1.408-1.386 1.408Zm23.187.044c-1.217 0-2.266-.227-3.146-.682a4.919 4.919 0 0 1-2.046-1.936c-.469-.836-.704-1.826-.704-2.97 0-1.115.228-2.09.682-2.926a5.125 5.125 0 0 1 1.914-1.958c.822-.484 1.753-.726 2.794-.726.763 0 1.445.125 2.046.374a4.2 4.2 0 0 1 1.562 1.078c.44.47.77 1.041.99 1.716.235.66.352 1.408.352 2.244 0 .264-.095.47-.286.616-.176.132-.432.198-.77.198h-7.062v-1.584h6.182l-.352.33c0-.675-.102-1.24-.308-1.694-.19-.455-.476-.8-.858-1.034-.366-.25-.828-.374-1.386-.374-.616 0-1.144.147-1.584.44-.425.279-.755.682-.99 1.21-.22.513-.33 1.13-.33 1.848v.154c0 1.203.279 2.105.836 2.706.572.587 1.408.88 2.508.88.382 0 .807-.044 1.276-.132a4.917 4.917 0 0 0 1.364-.506c.308-.176.58-.25.814-.22.235.015.418.095.55.242.147.147.235.33.264.55a1.02 1.02 0 0 1-.132.638c-.102.22-.286.41-.55.572a5.893 5.893 0 0 1-1.782.726c-.66.147-1.276.22-1.848.22Zm7.986-.044c-.44 0-.777-.117-1.012-.352-.234-.25-.352-.601-.352-1.056v-8.316c0-.455.118-.8.352-1.034.235-.235.565-.352.99-.352.426 0 .756.117.99.352.235.235.352.58.352 1.034v1.496l-.242-.55c.323-.777.822-1.364 1.496-1.76.69-.41 1.467-.616 2.332-.616.866 0 1.577.161 2.134.484.558.323.976.814 1.254 1.474.279.645.418 1.467.418 2.464v5.324c0 .455-.117.807-.352 1.056-.234.235-.572.352-1.012.352-.44 0-.784-.117-1.034-.352-.234-.25-.352-.601-.352-1.056v-5.192c0-.836-.161-1.445-.484-1.826-.308-.381-.792-.572-1.452-.572-.806 0-1.452.257-1.936.77-.469.499-.704 1.166-.704 2.002v4.818c0 .939-.462 1.408-1.386 1.408Zm16.433.044c-.953 0-1.752-.161-2.398-.484a3.12 3.12 0 0 1-1.408-1.408c-.308-.63-.462-1.408-.462-2.332V82.31h-1.144c-.352 0-.623-.088-.814-.264-.19-.19-.286-.447-.286-.77 0-.337.096-.594.286-.77.191-.176.462-.264.814-.264h1.144V78.24c0-.455.118-.8.352-1.034.25-.235.594-.352 1.034-.352.44 0 .778.117 1.012.352.235.235.352.58.352 1.034v2.002h2.332c.352 0 .624.088.814.264.191.176.286.433.286.77 0 .323-.095.58-.286.77-.19.176-.462.264-.814.264H423.7v4.532c0 .704.154 1.232.462 1.584.308.352.807.528 1.496.528.25 0 .47-.022.66-.066.191-.044.36-.073.506-.088a.503.503 0 0 1 .44.176c.118.117.176.367.176.748 0 .293-.051.557-.154.792-.088.22-.256.374-.506.462-.19.059-.44.11-.748.154a4.41 4.41 0 0 1-.814.088Zm8.314 0c-1.114 0-2.082-.227-2.904-.682a4.775 4.775 0 0 1-1.914-1.936c-.454-.85-.682-1.848-.682-2.992 0-.865.125-1.635.374-2.31a4.962 4.962 0 0 1 1.122-1.76 4.622 4.622 0 0 1 1.738-1.122c.675-.264 1.43-.396 2.266-.396 1.115 0 2.083.227 2.904.682.822.455 1.46 1.1 1.914 1.936.455.836.682 1.826.682 2.97 0 .865-.132 1.643-.396 2.332a4.927 4.927 0 0 1-1.1 1.782 4.999 4.999 0 0 1-1.738 1.122c-.674.25-1.43.374-2.266.374Zm0-2.09c.543 0 1.02-.132 1.43-.396.411-.264.726-.653.946-1.166.235-.528.352-1.18.352-1.958 0-1.173-.249-2.046-.748-2.618-.498-.587-1.158-.88-1.98-.88-.542 0-1.019.132-1.43.396-.41.25-.733.638-.968 1.166-.22.513-.33 1.159-.33 1.936 0 1.159.25 2.039.748 2.64.499.587 1.159.88 1.98.88Z" fill="#343A40"/><rect y="249" width="562" height="87.352" rx="4" fill="#F8F9FA"/><path d="M0 253c0-2.209 1.805-4 4.014-4v87.352c-2.209 0-4.014-1.791-4.014-4V253Z" fill="#E9ECEF"/><path d="M519.85 249H558a4 4 0 0 1 4 4v81a4 4 0 0 1-4 4h-38.15v-89Z" fill="#F8F9FA"/><path fill="#E9ECEF" d="M15.053 273.722h330.175v13.185H15.053zm0 26.371h76.271v13.185H15.053z"/><rect y="370" width="562" height="87.352" rx="4" fill="#F8F9FA"/><path d="M0 374c0-2.209 1.805-4 4.014-4v87.352c-2.209 0-4.014-1.791-4.014-4V374Z" fill="#E9ECEF"/><path d="M519.85 370H558a4 4 0 0 1 4 4v81a4 4 0 0 1-4 4h-38.15v-89Z" fill="#F8F9FA"/><path fill="#E9ECEF" d="M15.053 394.722h330.175v13.185H15.053zm0 26.371h76.271v13.185H15.053z"/><rect y="128" width="562" height="87.352" rx="4" fill="#F8F9FA"/><path d="M0 132c0-2.209 1.805-4 4.014-4v87.352c-2.209 0-4.014-1.791-4.014-4V132Z" fill="#E9ECEF"/><path d="M519.85 128H558a4 4 0 0 1 4 4v81a4 4 0 0 1-4 4h-38.15v-89Z" fill="#F8F9FA"/><path fill="#E9ECEF" d="M15.053 152.722h330.175v13.185H15.053zm0 26.371h76.271v13.185H15.053z"/><path d="M10.24 23.704c.128.192.192.379.192.56a.743.743 0 0 1-.304.608 1.04 1.04 0 0 1-.688.24A1.16 1.16 0 0 1 8.944 25a1.145 1.145 0 0 1-.384-.368L6.432 21.4c-.213-.341-.443-.581-.688-.72-.235-.139-.544-.208-.928-.208H3.248v3.584c0 .32-.09.576-.272.768-.181.181-.427.272-.736.272-.31 0-.56-.09-.752-.272-.181-.192-.272-.448-.272-.768v-9.36c0-.31.085-.55.256-.72.181-.17.427-.256.736-.256h4c1.28 0 2.25.288 2.912.864.672.565 1.008 1.387 1.008 2.464 0 .875-.25 1.595-.752 2.16-.49.555-1.19.912-2.096 1.072.31.075.581.208.816.4.235.192.464.459.688.8l1.456 2.224Zm-4.32-4.816c.779 0 1.35-.144 1.712-.432.363-.299.544-.752.544-1.36 0-.619-.181-1.067-.544-1.344-.363-.288-.933-.432-1.712-.432H3.232v3.568H5.92Zm12.437 3.968a.52.52 0 0 1 .432.208c.117.139.176.325.176.56 0 .33-.197.608-.592.832a5.297 5.297 0 0 1-2.544.672c-1.259 0-2.256-.363-2.992-1.088-.736-.725-1.104-1.717-1.104-2.976 0-.8.16-1.51.48-2.128a3.506 3.506 0 0 1 1.344-1.44c.587-.341 1.248-.512 1.984-.512.704 0 1.317.155 1.84.464.523.31.928.747 1.216 1.312.288.565.432 1.232.432 2 0 .459-.203.688-.608.688h-4.72c.064.736.272 1.28.624 1.632.352.341.864.512 1.536.512.341 0 .64-.043.896-.128.267-.085.565-.203.896-.352.32-.17.555-.256.704-.256Zm-2.768-4.464c-.544 0-.981.17-1.312.512-.32.341-.512.832-.576 1.472h3.616c-.021-.65-.181-1.141-.48-1.472-.299-.341-.715-.512-1.248-.512Zm7.908 6.736c-1.163 0-2.101-.23-2.816-.688-.341-.203-.512-.49-.512-.864 0-.213.059-.384.176-.512a.545.545 0 0 1 .432-.208c.181 0 .432.085.752.256.341.16.65.283.928.368.288.085.65.128 1.088.128.448 0 .795-.075 1.04-.224.256-.15.384-.357.384-.624a.584.584 0 0 0-.16-.432c-.096-.107-.277-.203-.544-.288-.256-.096-.65-.203-1.184-.32-.95-.192-1.632-.464-2.048-.816-.405-.352-.608-.837-.608-1.456 0-.47.139-.89.416-1.264a2.622 2.622 0 0 1 1.136-.88c.49-.213 1.045-.32 1.664-.32.448 0 .88.059 1.296.176.416.107.79.267 1.12.48.341.213.512.496.512.848a.854.854 0 0 1-.176.544.545.545 0 0 1-.432.208c-.117 0-.235-.021-.352-.064a10.108 10.108 0 0 1-.416-.224 5.778 5.778 0 0 0-.8-.352 2.353 2.353 0 0 0-.832-.128c-.395 0-.71.08-.944.24a.764.764 0 0 0-.336.656c0 .267.117.47.352.608.235.139.688.277 1.36.416.715.15 1.275.32 1.68.512s.693.432.864.72c.181.288.272.656.272 1.104 0 .725-.304 1.307-.912 1.744-.597.437-1.397.656-2.4.656Zm11.11-8.112c.309 0 .554.085.736.256.181.17.272.4.272.688v6.208a.856.856 0 0 1-.288.672c-.182.17-.422.256-.72.256-.288 0-.518-.08-.688-.24-.171-.16-.256-.379-.256-.656v-.4a2.606 2.606 0 0 1-.992.992 2.922 2.922 0 0 1-1.408.336c-1.92 0-2.88-1.077-2.88-3.232V17.96c0-.288.09-.517.272-.688.181-.17.421-.256.72-.256.309 0 .554.085.736.256.181.17.272.4.272.688v3.952c0 .555.112.965.336 1.232.224.267.576.4 1.056.4.554 0 .997-.181 1.328-.544.341-.373.512-.864.512-1.472V17.96c0-.288.09-.517.272-.688.181-.17.421-.256.72-.256Zm12.385-.032c.854 0 1.504.256 1.952.768.459.501.688 1.317.688 2.448v3.936c0 .31-.096.55-.288.72-.181.16-.421.24-.72.24-.288 0-.528-.08-.72-.24-.181-.17-.272-.41-.272-.72V20.2c0-.587-.106-1.003-.32-1.248-.202-.256-.517-.384-.944-.384-.522 0-.938.181-1.248.544-.31.352-.464.837-.464 1.456v3.568c0 .31-.096.55-.288.72-.181.16-.416.24-.704.24s-.528-.08-.72-.24c-.192-.17-.288-.41-.288-.72V20.2c0-.587-.106-1.003-.32-1.248-.202-.256-.517-.384-.944-.384-.522 0-.938.181-1.248.544-.298.352-.448.837-.448 1.456v3.568c0 .31-.096.55-.288.72-.192.16-.432.24-.72.24s-.528-.08-.72-.24c-.181-.17-.272-.41-.272-.72v-6.192c0-.299.096-.528.288-.688.192-.16.432-.24.72-.24.278 0 .502.08.672.24.182.15.272.368.272.656v.384c.246-.427.57-.752.976-.976.416-.224.89-.336 1.424-.336 1.174 0 1.958.49 2.352 1.472a2.644 2.644 0 0 1 1.04-1.072 3.03 3.03 0 0 1 1.552-.4Zm8.241 8.144c-.8 0-1.504-.165-2.112-.496a3.446 3.446 0 0 1-1.392-1.424c-.33-.619-.496-1.339-.496-2.16 0-.821.165-1.536.496-2.144a3.446 3.446 0 0 1 1.392-1.424c.608-.33 1.312-.496 2.112-.496s1.499.165 2.096.496c.608.33 1.072.805 1.392 1.424.33.608.496 1.323.496 2.144 0 .821-.165 1.541-.496 2.16a3.322 3.322 0 0 1-1.392 1.424c-.597.33-1.296.496-2.096.496Zm-.016-1.552c.65 0 1.147-.213 1.488-.64.341-.427.512-1.056.512-1.888 0-.821-.17-1.445-.512-1.872-.341-.437-.832-.656-1.472-.656s-1.136.219-1.488.656c-.341.427-.512 1.05-.512 1.872 0 .832.17 1.461.512 1.888.341.427.832.64 1.472.64Zm16.715-7.984c-.363 0-.65-.096-.864-.288a1.033 1.033 0 0 1-.32-.784c0-.32.106-.576.32-.768.213-.192.501-.288.864-.288.352 0 .635.096.848.288.224.192.336.448.336.768s-.112.581-.336.784c-.213.192-.496.288-.848.288Zm.096 1.584c.597 0 .896.25.896.752v6.208c0 .31-.096.55-.288.72-.181.16-.416.24-.704.24s-.528-.08-.72-.24c-.192-.17-.288-.41-.288-.72V18.68h-3.168v5.456c0 .31-.096.544-.288.704-.181.16-.416.24-.704.24s-.528-.08-.72-.24c-.192-.16-.288-.395-.288-.704V18.68h-.8c-.597 0-.896-.25-.896-.752 0-.501.299-.752.896-.752h.8v-.08c0-.992.261-1.776.784-2.352.533-.587 1.28-.923 2.24-1.008l.368-.032c.053-.01.133-.016.24-.016.565 0 .848.24.848.72 0 .235-.064.416-.192.544-.128.128-.304.203-.528.224l-.352.032c-.49.043-.848.197-1.072.464-.224.256-.336.635-.336 1.136v.368h4.272Zm7.525-.192c.938 0 1.637.267 2.096.8.458.533.688 1.339.688 2.416v3.936c0 .299-.09.533-.272.704-.17.17-.41.256-.72.256s-.555-.085-.736-.256c-.182-.17-.272-.405-.272-.704v-3.824c0-.608-.118-1.05-.352-1.328-.224-.277-.582-.416-1.072-.416-.576 0-1.04.181-1.392.544-.342.363-.512.848-.512 1.456v3.568c0 .299-.09.533-.272.704-.182.17-.427.256-.736.256-.31 0-.555-.085-.736-.256-.17-.17-.256-.405-.256-.704v-6.192a.88.88 0 0 1 .272-.672c.181-.17.426-.256.736-.256.277 0 .501.085.672.256.181.16.272.373.272.64v.432a2.706 2.706 0 0 1 1.072-1.008 3.226 3.226 0 0 1 1.52-.352Zm8.207 0c1.088 0 1.893.272 2.416.816.534.533.8 1.35.8 2.448v3.904c0 .288-.085.517-.256.688-.17.16-.405.24-.704.24a.964.964 0 0 1-.688-.256c-.17-.17-.256-.395-.256-.672V23.8c-.181.416-.47.741-.864.976-.384.235-.832.352-1.344.352a3.14 3.14 0 0 1-1.424-.32 2.534 2.534 0 0 1-1.008-.88 2.224 2.224 0 0 1-.368-1.248c0-.576.144-1.03.432-1.36.299-.33.779-.57 1.44-.72.661-.15 1.573-.224 2.736-.224h.4v-.368c0-.523-.112-.901-.336-1.136-.224-.245-.587-.368-1.088-.368-.31 0-.624.048-.944.144-.32.085-.698.213-1.136.384-.277.139-.48.208-.608.208a.626.626 0 0 1-.48-.208.816.816 0 0 1-.176-.544.82.82 0 0 1 .128-.464c.096-.139.25-.267.464-.384a5.225 5.225 0 0 1 1.328-.48 7.002 7.002 0 0 1 1.536-.176Zm-.496 6.704c.534 0 .966-.176 1.296-.528.341-.363.512-.827.512-1.392v-.336h-.288c-.715 0-1.27.032-1.664.096-.395.064-.677.176-.848.336-.17.16-.256.379-.256.656 0 .341.117.624.352.848.246.213.544.32.896.32Zm10.289-6.704c.938 0 1.637.267 2.096.8.458.533.688 1.339.688 2.416v3.936c0 .299-.091.533-.272.704-.17.17-.41.256-.72.256s-.555-.085-.736-.256c-.182-.17-.272-.405-.272-.704v-3.824c0-.608-.118-1.05-.352-1.328-.224-.277-.582-.416-1.072-.416-.576 0-1.04.181-1.392.544-.342.363-.512.848-.512 1.456v3.568c0 .299-.09.533-.272.704-.182.17-.427.256-.736.256-.31 0-.555-.085-.736-.256-.17-.17-.256-.405-.256-.704v-6.192a.88.88 0 0 1 .272-.672c.181-.17.426-.256.736-.256.277 0 .501.085.672.256.181.16.272.373.272.64v.432a2.706 2.706 0 0 1 1.072-1.008 3.226 3.226 0 0 1 1.52-.352Zm8.287 8.144c-.779 0-1.467-.165-2.064-.496-.587-.33-1.04-.8-1.36-1.408-.32-.608-.48-1.317-.48-2.128 0-.81.165-1.525.496-2.144a3.598 3.598 0 0 1 1.424-1.456c.608-.341 1.307-.512 2.096-.512.416 0 .832.059 1.248.176a4.1 4.1 0 0 1 1.12.48c.341.224.512.507.512.848a.906.906 0 0 1-.176.576.517.517 0 0 1-.432.208.958.958 0 0 1-.368-.08 3.213 3.213 0 0 1-.384-.192 3.822 3.822 0 0 0-.672-.32 1.971 1.971 0 0 0-.736-.128c-.661 0-1.173.219-1.536.656-.352.427-.528 1.045-.528 1.856 0 .8.176 1.419.528 1.856.363.427.875.64 1.536.64.267 0 .501-.037.704-.112.213-.085.448-.197.704-.336.16-.096.299-.165.416-.208a.845.845 0 0 1 .352-.08.53.53 0 0 1 .432.224.88.88 0 0 1 .176.56.9.9 0 0 1-.128.48 1.044 1.044 0 0 1-.384.352 4.395 4.395 0 0 1-1.152.512 5.162 5.162 0 0 1-1.344.176Zm10.533-2.272a.52.52 0 0 1 .432.208c.117.139.176.325.176.56 0 .33-.198.608-.592.832a5.3 5.3 0 0 1-2.544.672c-1.259 0-2.256-.363-2.992-1.088-.736-.725-1.104-1.717-1.104-2.976 0-.8.16-1.51.48-2.128a3.506 3.506 0 0 1 1.344-1.44c.586-.341 1.248-.512 1.984-.512.704 0 1.317.155 1.84.464.522.31.928.747 1.216 1.312.288.565.432 1.232.432 2 0 .459-.203.688-.608.688h-4.72c.064.736.272 1.28.624 1.632.352.341.864.512 1.536.512.341 0 .64-.043.896-.128.266-.085.565-.203.896-.352.32-.17.554-.256.704-.256Zm-2.768-4.464c-.544 0-.982.17-1.312.512-.32.341-.512.832-.576 1.472h3.616c-.022-.65-.182-1.141-.48-1.472-.299-.341-.715-.512-1.248-.512Zm6.068 6.704c-.288 0-.528-.08-.72-.24-.182-.17-.272-.41-.272-.72V17.96c0-.31.09-.544.272-.704.192-.16.432-.24.72-.24s.528.08.72.24c.192.16.288.395.288.704v6.176c0 .31-.096.55-.288.72-.192.16-.432.24-.72.24Zm0-9.504c-.363 0-.651-.096-.864-.288a1.03 1.03 0 0 1-.32-.784c0-.32.106-.576.32-.768.213-.192.501-.288.864-.288.352 0 .634.096.848.288.224.192.336.448.336.768s-.107.581-.32.784c-.214.192-.502.288-.864.288Zm7.438 1.424c.277-.021.496.037.656.176.16.139.24.347.24.624 0 .288-.069.501-.208.64-.139.139-.389.23-.752.272l-.48.048c-.629.064-1.093.277-1.392.64-.288.363-.432.816-.432 1.36v3.36c0 .31-.096.55-.288.72-.192.16-.432.24-.72.24s-.528-.08-.72-.24c-.181-.17-.272-.41-.272-.72v-6.192c0-.299.091-.528.272-.688.192-.16.427-.24.704-.24.277 0 .501.08.672.24.171.15.256.368.256.656v.64c.203-.47.501-.832.896-1.088.405-.256.853-.4 1.344-.432l.224-.016Zm5.169 8.112c-.8 0-1.504-.165-2.112-.496a3.45 3.45 0 0 1-1.392-1.424c-.331-.619-.496-1.339-.496-2.16 0-.821.165-1.536.496-2.144a3.45 3.45 0 0 1 1.392-1.424c.608-.33 1.312-.496 2.112-.496s1.499.165 2.096.496c.608.33 1.072.805 1.392 1.424.331.608.496 1.323.496 2.144 0 .821-.165 1.541-.496 2.16a3.322 3.322 0 0 1-1.392 1.424c-.597.33-1.296.496-2.096.496Zm-.016-1.552c.651 0 1.147-.213 1.488-.64.341-.427.512-1.056.512-1.888 0-.821-.171-1.445-.512-1.872-.341-.437-.832-.656-1.472-.656s-1.136.219-1.488.656c-.341.427-.512 1.05-.512 1.872 0 .832.171 1.461.512 1.888.341.427.832.64 1.472.64Z" fill="#212529"/><rect x="280.7" y=".7" width="67.6" height="38.6" rx="7.3" fill="#FD377E"/><path d="M299.615 24.57a.748.748 0 0 1-.532-.196.747.747 0 0 1-.196-.532v-8.008h-2.8c-.448 0-.672-.2-.672-.602 0-.196.056-.345.168-.448.121-.103.289-.154.504-.154h7.056c.214 0 .378.051.49.154.121.103.182.252.182.448 0 .401-.224.602-.672.602h-2.8v8.008a.752.752 0 0 1-.196.532c-.131.13-.308.196-.532.196Zm7.116.028c-.672 0-1.264-.145-1.778-.434a3 3 0 0 1-1.176-1.232c-.27-.541-.406-1.167-.406-1.876 0-.719.136-1.344.406-1.876.28-.541.672-.957 1.176-1.246.514-.29 1.106-.434 1.778-.434.672 0 1.26.145 1.764.434.514.29.906.705 1.176 1.246.28.532.42 1.157.42 1.876 0 .71-.14 1.335-.42 1.876-.27.532-.662.943-1.176 1.232-.504.29-1.092.434-1.764.434Zm0-1.12c.626 0 1.102-.205 1.428-.616.336-.41.504-1.013.504-1.806 0-.784-.168-1.381-.504-1.792-.336-.42-.812-.63-1.428-.63-.616 0-1.092.21-1.428.63-.336.41-.504 1.008-.504 1.792 0 .793.164 1.395.49 1.806.336.41.817.616 1.442.616Zm10.521-8.918c.214 0 .387.06.518.182.13.121.196.285.196.49v8.652c0 .215-.066.383-.196.504-.122.121-.29.182-.504.182-.215 0-.388-.06-.518-.182-.122-.121-.182-.29-.182-.504v-.56c-.206.41-.504.728-.896.952-.392.215-.845.322-1.358.322a2.87 2.87 0 0 1-1.582-.448c-.458-.299-.817-.719-1.078-1.26-.252-.541-.378-1.162-.378-1.862 0-.71.126-1.33.378-1.862.261-.532.62-.943 1.078-1.232.457-.29.984-.434 1.582-.434.513 0 .961.112 1.344.336.392.215.69.523.896.924v-3.556c0-.196.06-.35.182-.462a.73.73 0 0 1 .518-.182Zm-2.604 8.918c.606 0 1.078-.21 1.414-.63.336-.42.504-1.017.504-1.792 0-.775-.168-1.372-.504-1.792-.327-.42-.798-.63-1.414-.63-.616 0-1.097.21-1.442.63-.336.41-.504.999-.504 1.764s.172 1.367.518 1.806c.345.43.821.644 1.428.644Zm8.257 1.12c-.672 0-1.265-.145-1.778-.434a3 3 0 0 1-1.176-1.232c-.271-.541-.406-1.167-.406-1.876 0-.719.135-1.344.406-1.876.28-.541.672-.957 1.176-1.246.513-.29 1.106-.434 1.778-.434.672 0 1.26.145 1.764.434.513.29.905.705 1.176 1.246.28.532.42 1.157.42 1.876 0 .71-.14 1.335-.42 1.876a2.886 2.886 0 0 1-1.176 1.232c-.504.29-1.092.434-1.764.434Zm0-1.12c.625 0 1.101-.205 1.428-.616.336-.41.504-1.013.504-1.806 0-.784-.168-1.381-.504-1.792-.336-.42-.812-.63-1.428-.63-.616 0-1.092.21-1.428.63-.336.41-.504 1.008-.504 1.792 0 .793.163 1.395.49 1.806.336.41.817.616 1.442.616Zm7.314 1.12c-.952 0-1.731-.196-2.338-.588a1.15 1.15 0 0 1-.364-.322.74.74 0 0 1-.098-.378c0-.15.042-.275.126-.378a.399.399 0 0 1 .322-.154c.122 0 .313.075.574.224.28.15.551.27.812.364.271.093.607.14 1.008.14.448 0 .798-.08 1.05-.238a.752.752 0 0 0 .378-.672.636.636 0 0 0-.154-.448c-.093-.112-.261-.21-.504-.294a7.751 7.751 0 0 0-1.078-.294c-.821-.177-1.414-.415-1.778-.714-.354-.308-.532-.723-.532-1.246 0-.401.117-.76.35-1.078.234-.327.556-.579.966-.756a3.504 3.504 0 0 1 1.4-.266 3.9 3.9 0 0 1 1.092.154c.355.093.668.233.938.42.308.205.462.443.462.714 0 .15-.046.275-.14.378a.383.383 0 0 1-.308.154.617.617 0 0 1-.252-.056 3.318 3.318 0 0 1-.336-.182 4.548 4.548 0 0 0-.714-.35c-.214-.084-.485-.126-.812-.126-.392 0-.709.084-.952.252a.802.802 0 0 0-.35.686c0 .261.108.467.322.616.224.14.64.275 1.246.406.626.13 1.116.28 1.47.448.355.168.607.378.756.63.159.243.238.555.238.938 0 .607-.256 1.097-.77 1.47-.504.364-1.18.546-2.03.546Z" fill="#fff"/><rect x="280.7" y=".7" width="67.6" height="38.6" rx="7.3" stroke="#FD377E" stroke-width="1.4"/><rect x="365.7" y=".7" width="85.6" height="38.6" rx="7.3" fill="#E9ECEF"/><path d="M382.097 24.5c-.252 0-.448-.065-.588-.196-.131-.14-.196-.336-.196-.588v-8.302c0-.252.065-.443.196-.574.14-.14.336-.21.588-.21h5.11c.196 0 .345.051.448.154.103.093.154.233.154.42 0 .196-.051.345-.154.448-.103.103-.252.154-.448.154h-4.494V18.9h4.186c.205 0 .355.051.448.154.103.103.154.247.154.434 0 .196-.051.345-.154.448-.093.093-.243.14-.448.14h-4.186v3.248h4.494c.196 0 .345.051.448.154.103.103.154.247.154.434 0 .196-.051.345-.154.448-.103.093-.252.14-.448.14h-5.11Zm8.006.098c-.224 0-.396-.06-.518-.182-.121-.13-.182-.308-.182-.532v-5.6c0-.233.061-.41.182-.532.122-.121.29-.182.504-.182.224 0 .392.06.504.182.122.121.182.299.182.532v1.092l-.154-.252c.206-.523.528-.915.966-1.176.439-.27.943-.406 1.512-.406.542 0 .99.103 1.344.308.364.196.635.5.812.91.178.401.266.91.266 1.526v3.598c0 .224-.06.401-.182.532-.121.121-.294.182-.518.182-.233 0-.41-.06-.532-.182-.121-.13-.182-.308-.182-.532V20.37c0-.588-.116-1.017-.35-1.288-.224-.27-.578-.406-1.064-.406-.569 0-1.026.177-1.372.532-.336.355-.504.83-.504 1.428v3.248c0 .476-.238.714-.714.714Zm10.279.028c-.56 0-1.032-.098-1.414-.294a1.872 1.872 0 0 1-.854-.868c-.187-.383-.28-.85-.28-1.4V18.76h-.84c-.187 0-.332-.047-.434-.14a.548.548 0 0 1-.154-.406c0-.177.051-.313.154-.406.102-.093.247-.14.434-.14h.84v-1.442c0-.233.06-.41.182-.532.13-.121.308-.182.532-.182.224 0 .396.06.518.182.121.121.182.299.182.532v1.442h1.638c.186 0 .331.047.434.14.102.093.154.229.154.406a.552.552 0 0 1-.154.406c-.103.093-.248.14-.434.14h-1.638v3.192c0 .495.102.868.308 1.12.214.252.56.378 1.036.378.168 0 .312-.014.434-.042.13-.037.238-.06.322-.07a.32.32 0 0 1 .252.112c.065.065.098.196.098.392 0 .14-.028.27-.084.392a.382.382 0 0 1-.266.238c-.112.037-.266.07-.462.098a2.604 2.604 0 0 1-.504.056Zm2.915-.028c-.233 0-.411-.06-.532-.182-.121-.13-.182-.308-.182-.532v-5.6c0-.233.061-.41.182-.532.121-.121.289-.182.504-.182.224 0 .392.06.504.182.121.121.182.299.182.532v1.022h-.14c.149-.56.425-.985.826-1.274.401-.29.915-.457 1.54-.504.168-.01.299.033.392.126.103.093.159.238.168.434.019.196-.023.355-.126.476-.103.112-.261.177-.476.196l-.266.028c-.607.056-1.069.247-1.386.574-.317.327-.476.775-.476 1.344v3.178c0 .224-.061.401-.182.532-.112.121-.289.182-.532.182Zm6.624.028a2.9 2.9 0 0 1-1.288-.28 2.264 2.264 0 0 1-.882-.756 1.877 1.877 0 0 1-.322-1.078c0-.504.126-.9.378-1.19.261-.299.686-.509 1.274-.63.597-.13 1.4-.196 2.408-.196h.658v.868h-.644c-.672 0-1.204.033-1.596.098-.392.065-.672.177-.84.336-.159.15-.238.36-.238.63 0 .355.121.644.364.868.243.215.579.322 1.008.322.345 0 .649-.08.91-.238a1.78 1.78 0 0 0 .616-.672c.159-.28.238-.602.238-.966v-1.61c0-.532-.112-.915-.336-1.148-.224-.233-.593-.35-1.106-.35a4.19 4.19 0 0 0-.938.112c-.317.075-.649.2-.994.378-.159.075-.294.098-.406.07a.446.446 0 0 1-.266-.182.703.703 0 0 1-.112-.322c0-.121.028-.238.084-.35a.597.597 0 0 1 .322-.252 5.542 5.542 0 0 1 2.352-.546c.625 0 1.139.098 1.54.294.411.196.714.495.91.896.196.401.294.92.294 1.554v3.598c0 .224-.056.401-.168.532-.112.121-.275.182-.49.182a.662.662 0 0 1-.49-.182c-.121-.13-.182-.308-.182-.532v-.91h.126a2.103 2.103 0 0 1-.42.896 1.93 1.93 0 0 1-.742.56c-.299.13-.639.196-1.022.196Zm7.94 0c-.598 0-1.125-.14-1.582-.42-.448-.29-.798-.7-1.05-1.232-.252-.541-.378-1.171-.378-1.89 0-.737.126-1.367.378-1.89a2.92 2.92 0 0 1 1.05-1.218c.457-.29.984-.434 1.582-.434.597 0 1.11.15 1.54.448.438.29.732.681.882 1.176h-.154v-3.92c0-.233.06-.41.182-.532.121-.121.294-.182.518-.182.224 0 .396.06.518.182.13.121.196.299.196.532v8.638c0 .224-.061.401-.182.532-.122.121-.294.182-.518.182-.224 0-.397-.06-.518-.182-.122-.13-.182-.308-.182-.532v-1.232l.154.308a2.23 2.23 0 0 1-.882 1.218c-.43.299-.948.448-1.554.448Zm.364-1.092a1.82 1.82 0 0 0 1.008-.28c.289-.187.513-.462.672-.826.168-.364.252-.812.252-1.344 0-.803-.178-1.41-.532-1.82-.355-.41-.822-.616-1.4-.616a1.84 1.84 0 0 0-1.022.28c-.29.177-.518.448-.686.812-.159.364-.238.812-.238 1.344 0 .793.177 1.4.532 1.82.354.42.826.63 1.414.63Zm7.487 1.092a2.9 2.9 0 0 1-1.288-.28 2.264 2.264 0 0 1-.882-.756 1.884 1.884 0 0 1-.322-1.078c0-.504.126-.9.378-1.19.262-.299.686-.509 1.274-.63.598-.13 1.4-.196 2.408-.196h.658v.868h-.644c-.672 0-1.204.033-1.596.098-.392.065-.672.177-.84.336-.158.15-.238.36-.238.63 0 .355.122.644.364.868.243.215.579.322 1.008.322.346 0 .649-.08.91-.238.262-.168.467-.392.616-.672.159-.28.238-.602.238-.966v-1.61c0-.532-.112-.915-.336-1.148-.224-.233-.592-.35-1.106-.35-.298 0-.611.037-.938.112-.317.075-.648.2-.994.378-.158.075-.294.098-.406.07a.449.449 0 0 1-.266-.182.714.714 0 0 1-.112-.322c0-.121.028-.238.084-.35a.601.601 0 0 1 .322-.252 5.407 5.407 0 0 1 1.218-.42c.402-.084.78-.126 1.134-.126.626 0 1.139.098 1.54.294.411.196.714.495.91.896.196.401.294.92.294 1.554v3.598c0 .224-.056.401-.168.532-.112.121-.275.182-.49.182a.664.664 0 0 1-.49-.182c-.121-.13-.182-.308-.182-.532v-.91h.126a2.08 2.08 0 0 1-.42.896 1.93 1.93 0 0 1-.742.56c-.298.13-.639.196-1.022.196Zm7.73 0c-.411 0-.836-.047-1.274-.14a3.781 3.781 0 0 1-1.19-.476.695.695 0 0 1-.252-.28.593.593 0 0 1-.056-.308.542.542 0 0 1 .126-.28.456.456 0 0 1 .266-.154.542.542 0 0 1 .35.07c.364.205.714.35 1.05.434.336.075.667.112.994.112.494 0 .868-.089 1.12-.266a.83.83 0 0 0 .378-.714c0-.243-.084-.43-.252-.56-.168-.14-.42-.247-.756-.322l-1.33-.266c-.579-.121-1.018-.336-1.316-.644-.299-.308-.448-.7-.448-1.176 0-.43.116-.803.35-1.12.233-.317.56-.56.98-.728.42-.177.905-.266 1.456-.266.41 0 .798.051 1.162.154.364.103.7.257 1.008.462a.5.5 0 0 1 .252.574.578.578 0 0 1-.14.28.503.503 0 0 1-.28.14.66.66 0 0 1-.35-.084 3.037 3.037 0 0 0-1.652-.49c-.495 0-.868.093-1.12.28a.852.852 0 0 0-.364.728c0 .233.074.425.224.574.149.15.382.257.7.322l1.33.266c.606.121 1.064.327 1.372.616.317.29.476.681.476 1.176 0 .644-.257 1.153-.77 1.526-.514.373-1.195.56-2.044.56Z" fill="#343A40"/><rect x="365.7" y=".7" width="85.6" height="38.6" rx="7.3" stroke="#E9ECEF" stroke-width="1.4"/><rect x="468.7" y=".7" width="90.6" height="38.6" rx="7.3" fill="#E9ECEF"/><path d="M485.088 24.5c-.252 0-.448-.065-.588-.196-.13-.14-.196-.336-.196-.588v-8.302c0-.252.066-.443.196-.574.14-.14.336-.21.588-.21h2.702c1.624 0 2.875.425 3.752 1.274.887.84 1.33 2.058 1.33 3.654 0 .793-.112 1.498-.336 2.114a4.008 4.008 0 0 1-.994 1.554 4.39 4.39 0 0 1-1.582.952c-.625.215-1.348.322-2.17.322h-2.702Zm.672-1.218h1.946c.616 0 1.148-.075 1.596-.224.458-.159.84-.392 1.148-.7.308-.308.537-.695.686-1.162.15-.467.224-1.013.224-1.638 0-1.241-.308-2.17-.924-2.786-.606-.616-1.516-.924-2.73-.924h-1.946v7.434Zm12.11 1.344c-.747 0-1.391-.14-1.932-.42a3.13 3.13 0 0 1-1.246-1.218c-.289-.532-.434-1.162-.434-1.89 0-.71.145-1.33.434-1.862a3.185 3.185 0 0 1 1.19-1.246c.504-.299 1.078-.448 1.722-.448.476 0 .901.08 1.274.238.373.15.691.373.952.672.271.29.471.644.602 1.064.14.42.21.891.21 1.414 0 .159-.047.28-.14.364-.093.075-.233.112-.42.112h-4.704v-.868h4.312l-.238.196c0-.467-.07-.863-.21-1.19a1.496 1.496 0 0 0-.602-.742c-.261-.177-.588-.266-.98-.266-.439 0-.812.103-1.12.308-.299.205-.527.49-.686.854-.159.364-.238.789-.238 1.274v.084c0 .821.191 1.442.574 1.862.392.41.957.616 1.694.616.28 0 .574-.037.882-.112.317-.075.616-.2.896-.378.159-.093.299-.135.42-.126.131.01.233.051.308.126a.468.468 0 0 1 .154.28.59.59 0 0 1-.056.35.83.83 0 0 1-.294.308 3.618 3.618 0 0 1-1.106.49c-.42.103-.826.154-1.218.154Zm6.707 0c-.41 0-.835-.047-1.274-.14a3.79 3.79 0 0 1-1.19-.476.71.71 0 0 1-.252-.28.613.613 0 0 1-.056-.308.559.559 0 0 1 .126-.28.463.463 0 0 1 .266-.154.54.54 0 0 1 .35.07c.364.205.714.35 1.05.434.336.075.668.112.994.112.495 0 .868-.089 1.12-.266a.83.83 0 0 0 .378-.714c0-.243-.084-.43-.252-.56-.168-.14-.42-.247-.756-.322l-1.33-.266c-.578-.121-1.017-.336-1.316-.644-.298-.308-.448-.7-.448-1.176 0-.43.117-.803.35-1.12.234-.317.56-.56.98-.728.42-.177.906-.266 1.456-.266.411 0 .798.051 1.162.154.364.103.7.257 1.008.462a.466.466 0 0 1 .238.266.493.493 0 0 1 .014.308.561.561 0 0 1-.14.28.5.5 0 0 1-.28.14.663.663 0 0 1-.35-.084 3.037 3.037 0 0 0-1.652-.49c-.494 0-.868.093-1.12.28a.855.855 0 0 0-.364.728c0 .233.075.425.224.574.15.15.383.257.7.322l1.33.266c.607.121 1.064.327 1.372.616.318.29.476.681.476 1.176 0 .644-.256 1.153-.77 1.526-.513.373-1.194.56-2.044.56Zm5.088 2.492c-.224 0-.397-.06-.518-.182-.122-.121-.182-.299-.182-.532v-8.12c0-.233.06-.41.182-.532.121-.121.289-.182.504-.182.224 0 .396.06.518.182.121.121.182.299.182.532v1.218l-.154-.294c.149-.504.443-.905.882-1.204.438-.308.956-.462 1.554-.462.606 0 1.134.145 1.582.434a2.8 2.8 0 0 1 1.05 1.218c.252.523.378 1.153.378 1.89 0 .719-.126 1.349-.378 1.89-.243.532-.588.943-1.036 1.232-.448.28-.98.42-1.596.42-.588 0-1.102-.15-1.54-.448a2.157 2.157 0 0 1-.882-1.19h.168v3.416c0 .233-.066.41-.196.532-.122.121-.294.182-.518.182Zm2.618-3.584c.392 0 .732-.093 1.022-.28.289-.187.513-.462.672-.826.158-.364.238-.812.238-1.344 0-.803-.178-1.41-.532-1.82-.346-.41-.812-.616-1.4-.616-.383 0-.724.093-1.022.28-.29.177-.514.448-.672.812-.159.364-.238.812-.238 1.344 0 .793.177 1.4.532 1.82.354.42.821.63 1.4.63Zm8.159 1.092c-.746 0-1.39-.14-1.932-.42a3.13 3.13 0 0 1-1.246-1.218c-.289-.532-.434-1.162-.434-1.89 0-.71.145-1.33.434-1.862.29-.532.686-.947 1.19-1.246.504-.299 1.078-.448 1.722-.448.476 0 .901.08 1.274.238.374.15.691.373.952.672a2.7 2.7 0 0 1 .602 1.064c.14.42.21.891.21 1.414 0 .159-.046.28-.14.364-.093.075-.233.112-.42.112h-4.704v-.868h4.312l-.238.196c0-.467-.07-.863-.21-1.19a1.491 1.491 0 0 0-.602-.742c-.261-.177-.588-.266-.98-.266-.438 0-.812.103-1.12.308-.298.205-.527.49-.686.854-.158.364-.238.789-.238 1.274v.084c0 .821.192 1.442.574 1.862.392.41.957.616 1.694.616.28 0 .574-.037.882-.112.318-.075.616-.2.896-.378.159-.093.299-.135.42-.126.131.01.234.051.308.126a.463.463 0 0 1 .154.28.59.59 0 0 1-.056.35.83.83 0 0 1-.294.308 3.618 3.618 0 0 1-1.106.49c-.42.103-.826.154-1.218.154Zm6.708 0c-.411 0-.836-.047-1.274-.14a3.781 3.781 0 0 1-1.19-.476.695.695 0 0 1-.252-.28.593.593 0 0 1-.056-.308.542.542 0 0 1 .126-.28.456.456 0 0 1 .266-.154.542.542 0 0 1 .35.07c.364.205.714.35 1.05.434.336.075.667.112.994.112.494 0 .868-.089 1.12-.266a.83.83 0 0 0 .378-.714c0-.243-.084-.43-.252-.56-.168-.14-.42-.247-.756-.322l-1.33-.266c-.579-.121-1.018-.336-1.316-.644-.299-.308-.448-.7-.448-1.176 0-.43.116-.803.35-1.12.233-.317.56-.56.98-.728.42-.177.905-.266 1.456-.266.41 0 .798.051 1.162.154.364.103.7.257 1.008.462a.5.5 0 0 1 .252.574.578.578 0 0 1-.14.28.503.503 0 0 1-.28.14.66.66 0 0 1-.35-.084 3.037 3.037 0 0 0-1.652-.49c-.495 0-.868.093-1.12.28a.852.852 0 0 0-.364.728c0 .233.074.425.224.574.149.15.382.257.7.322l1.33.266c.606.121 1.064.327 1.372.616.317.29.476.681.476 1.176 0 .644-.257 1.153-.77 1.526-.514.373-1.195.56-2.044.56Zm6.571 0a2.9 2.9 0 0 1-1.288-.28 2.264 2.264 0 0 1-.882-.756 1.877 1.877 0 0 1-.322-1.078c0-.504.126-.9.378-1.19.261-.299.686-.509 1.274-.63.597-.13 1.4-.196 2.408-.196h.658v.868h-.644c-.672 0-1.204.033-1.596.098-.392.065-.672.177-.84.336-.159.15-.238.36-.238.63 0 .355.121.644.364.868.243.215.579.322 1.008.322.345 0 .649-.08.91-.238a1.78 1.78 0 0 0 .616-.672c.159-.28.238-.602.238-.966v-1.61c0-.532-.112-.915-.336-1.148-.224-.233-.593-.35-1.106-.35a4.19 4.19 0 0 0-.938.112c-.317.075-.649.2-.994.378-.159.075-.294.098-.406.07a.446.446 0 0 1-.266-.182.703.703 0 0 1-.112-.322c0-.121.028-.238.084-.35a.597.597 0 0 1 .322-.252 5.542 5.542 0 0 1 2.352-.546c.625 0 1.139.098 1.54.294.411.196.714.495.91.896.196.401.294.92.294 1.554v3.598c0 .224-.056.401-.168.532-.112.121-.275.182-.49.182a.662.662 0 0 1-.49-.182c-.121-.13-.182-.308-.182-.532v-.91h.126a2.103 2.103 0 0 1-.42.896 1.93 1.93 0 0 1-.742.56c-.299.13-.639.196-1.022.196Zm7.73 0c-.411 0-.836-.047-1.274-.14a3.796 3.796 0 0 1-1.191-.476.7.7 0 0 1-.251-.28.593.593 0 0 1-.056-.308.542.542 0 0 1 .126-.28.456.456 0 0 1 .266-.154.542.542 0 0 1 .35.07c.364.205.714.35 1.05.434.336.075.667.112.994.112.494 0 .868-.089 1.12-.266a.83.83 0 0 0 .378-.714c0-.243-.084-.43-.252-.56-.168-.14-.42-.247-.756-.322l-1.33-.266c-.579-.121-1.018-.336-1.316-.644-.299-.308-.448-.7-.448-1.176 0-.43.116-.803.35-1.12.233-.317.56-.56.98-.728.42-.177.905-.266 1.456-.266.41 0 .798.051 1.162.154.364.103.7.257 1.008.462a.5.5 0 0 1 .252.574.578.578 0 0 1-.14.28.503.503 0 0 1-.28.14.66.66 0 0 1-.35-.084 3.037 3.037 0 0 0-1.652-.49c-.495 0-.868.093-1.12.28a.852.852 0 0 0-.364.728c0 .233.074.425.224.574.149.15.382.257.7.322l1.33.266c.606.121 1.064.327 1.372.616.317.29.476.681.476 1.176 0 .644-.257 1.153-.77 1.526-.514.373-1.195.56-2.044.56Z" fill="#343A40"/><rect x="468.7" y=".7" width="90.6" height="38.6" rx="7.3" stroke="#E9ECEF" stroke-width="1.4"/></svg>