<svg width="593" height="593" fill="none" xmlns="http://www.w3.org/2000/svg"><circle cx="296.5" cy="296.5" r="296.5" fill="#E064CC" fill-opacity=".05"/><circle cx="296.5" cy="296.5" r="258.476" fill="#E064CC" fill-opacity=".05"/><circle cx="293.784" cy="296.5" r="212.303" fill="#E064CC" fill-opacity=".05"/><rect x="174.731" y="104.115" width="256.212" height="354.895" rx="3.621" fill="#fff"/><rect x="200" y="194" width="206" height="36" rx="1.811" fill="#F3F3F3"/><rect x="200" y="245" width="206" height="36" rx="1.811" fill="#F3F3F3"/><rect x="200" y="143" width="206" height="36" rx="1.811" fill="#F3F3F3"/><rect x="200" y="347" width="206" height="36" rx="1.811" fill="#F3F3F3"/><rect x="200" y="398" width="206" height="36" rx="1.811" fill="#F3F3F3"/><rect x="200" y="296" width="206" height="36" rx="1.811" fill="#F3F3F3"/><rect x="197" y="240.35" width="52.51" height="15.391" rx="1.811" fill="#FCEFFA"/><g filter="url(#a)"><rect x="220" y="307" width="231.786" height="69" rx="2.68" fill="#fff"/></g><rect x="230.049" y="320.398" width="44.883" height="42.874" rx="2.68" fill="#66C085"/><rect x="283.641" y="320.398" width="152.738" height="11.388" rx="1.34" fill="#66C085" fill-opacity=".11"/><rect x="283.641" y="339.155" width="38.854" height="11.388" rx="1.34" fill="#66C085" fill-opacity=".11"/><g clip-path="url(#b)" stroke="#fff" stroke-width="1.34" stroke-linecap="round" stroke-linejoin="round"><path d="M258.184 336.476h-12.058c-.74 0-1.34.6-1.34 1.34v8.038c0 .74.6 1.34 1.34 1.34h12.058c.74 0 1.34-.6 1.34-1.34v-8.038c0-.74-.6-1.34-1.34-1.34Zm-13.398 4.019h14.738"/></g><g filter="url(#c)"><rect x="81.481" y="238.105" width="313.249" height="93.25" rx="3.621" fill="#fff"/></g><rect x="95.061" y="256.212" width="60.658" height="57.942" rx="3.621" fill="#FD377E"/><rect x="167.489" y="256.212" width="206.418" height="15.391" rx="1.811" fill="#FCEFFA"/><rect x="167.489" y="281.562" width="52.51" height="15.391" rx="1.811" fill="#FCEFFA"/><g clip-path="url(#d)" stroke="#fff" stroke-width="1.811" stroke-linecap="round" stroke-linejoin="round"><path d="M133.086 277.94h-16.297c-1 0-1.81.811-1.81 1.811v10.864c0 1 .81 1.811 1.81 1.811h16.297c1 0 1.81-.811 1.81-1.811v-10.864c0-1-.81-1.811-1.81-1.811Zm-18.107 5.433h19.917"/></g><g filter="url(#e)"><rect x="81.481" y="238.105" width="313.249" height="93.25" rx="3.621" fill="#fff"/></g><rect x="95.061" y="256.212" width="60.658" height="57.942" rx="3.621" fill="#FD377E"/><rect x="167.489" y="256.212" width="206.418" height="15.391" rx="1.811" fill="#FCEFFA"/><rect x="167.489" y="281.562" width="52.51" height="15.391" rx="1.811" fill="#FCEFFA"/><g clip-path="url(#f)" stroke="#fff" stroke-width="1.811" stroke-linecap="round" stroke-linejoin="round"><path d="M133.086 277.94h-16.297c-1 0-1.81.811-1.81 1.811v10.864c0 1 .81 1.811 1.81 1.811h16.297c1 0 1.81-.811 1.81-1.811v-10.864c0-1-.81-1.811-1.81-1.811Zm-18.107 5.433h19.917"/></g><circle cx="385" cy="119" r="3" fill="#FD377E"/><circle cx="400" cy="119" r="3" fill="#66C085"/><circle cx="415" cy="119" r="3" fill="#000"/><defs><clipPath id="b"><path fill="#fff" transform="translate(244.117 333.796)" d="M0 0h16.078v16.078H0z"/></clipPath><clipPath id="d"><path fill="#fff" transform="translate(114.073 274.319)" d="M0 0h21.728v21.728H0z"/></clipPath><clipPath id="f"><path fill="#fff" transform="translate(114.073 274.319)" d="M0 0h21.728v21.728H0z"/></clipPath><filter id="a" x="193.204" y="282.883" width="285.379" height="122.592" filterUnits="userSpaceOnUse" color-interpolation-filters="sRGB"><feFlood flood-opacity="0" result="BackgroundImageFix"/><feColorMatrix in="SourceAlpha" values="0 0 0 0 0 0 0 0 0 0 0 0 0 0 0 0 0 0 127 0" result="hardAlpha"/><feOffset dy="2.68"/><feGaussianBlur stdDeviation="13.398"/><feComposite in2="hardAlpha" operator="out"/><feColorMatrix values="0 0 0 0 0 0 0 0 0 0 0 0 0 0 0 0 0 0 0.25 0"/><feBlend in2="BackgroundImageFix" result="effect1_dropShadow_181_240"/><feBlend in="SourceGraphic" in2="effect1_dropShadow_181_240" result="shape"/></filter><filter id="c" x="45.267" y="205.513" width="385.676" height="165.678" filterUnits="userSpaceOnUse" color-interpolation-filters="sRGB"><feFlood flood-opacity="0" result="BackgroundImageFix"/><feColorMatrix in="SourceAlpha" values="0 0 0 0 0 0 0 0 0 0 0 0 0 0 0 0 0 0 127 0" result="hardAlpha"/><feOffset dy="3.621"/><feGaussianBlur stdDeviation="18.107"/><feComposite in2="hardAlpha" operator="out"/><feColorMatrix values="0 0 0 0 0 0 0 0 0 0 0 0 0 0 0 0 0 0 0.25 0"/><feBlend in2="BackgroundImageFix" result="effect1_dropShadow_181_240"/><feBlend in="SourceGraphic" in2="effect1_dropShadow_181_240" result="shape"/></filter><filter id="e" x="45.267" y="205.513" width="385.676" height="165.678" filterUnits="userSpaceOnUse" color-interpolation-filters="sRGB"><feFlood flood-opacity="0" result="BackgroundImageFix"/><feColorMatrix in="SourceAlpha" values="0 0 0 0 0 0 0 0 0 0 0 0 0 0 0 0 0 0 127 0" result="hardAlpha"/><feOffset dy="3.621"/><feGaussianBlur stdDeviation="18.107"/><feComposite in2="hardAlpha" operator="out"/><feColorMatrix values="0 0 0 0 0 0 0 0 0 0 0 0 0 0 0 0 0 0 0.25 0"/><feBlend in2="BackgroundImageFix" result="effect1_dropShadow_181_240"/><feBlend in="SourceGraphic" in2="effect1_dropShadow_181_240" result="shape"/></filter></defs></svg>