<svg width="562" height="459" viewBox="0 0 562 459" fill="none" xmlns="http://www.w3.org/2000/svg">
<path d="M7.854 91.176C7.458 91.176 7.128 91.088 6.864 90.912C6.61467 90.7213 6.40933 90.4427 6.248 90.076L0.506 77.184C0.344667 76.8173 0.300667 76.4947 0.374 76.216C0.447333 75.9373 0.601333 75.7173 0.836 75.556C1.07067 75.3947 1.34933 75.314 1.672 75.314C2.09733 75.314 2.41267 75.4093 2.618 75.6C2.838 75.776 3.02133 76.0473 3.168 76.414L8.382 88.492H7.436L12.628 76.392C12.7893 76.04 12.98 75.776 13.2 75.6C13.42 75.4093 13.728 75.314 14.124 75.314C14.4467 75.314 14.7107 75.3947 14.916 75.556C15.136 75.7173 15.2753 75.9373 15.334 76.216C15.3927 76.4947 15.3413 76.8173 15.18 77.184L9.438 90.076C9.27667 90.4427 9.07133 90.7213 8.822 90.912C8.58733 91.088 8.26467 91.176 7.854 91.176ZM20.6446 91.22C19.5299 91.22 18.5619 90.9927 17.7406 90.538C16.9193 90.0833 16.2813 89.438 15.8266 88.602C15.3719 87.7513 15.1446 86.754 15.1446 85.61C15.1446 84.7447 15.2693 83.9747 15.5186 83.3C15.7826 82.6107 16.1566 82.024 16.6406 81.54C17.1246 81.0413 17.7039 80.6673 18.3786 80.418C19.0533 80.154 19.8086 80.022 20.6446 80.022C21.7593 80.022 22.7273 80.2493 23.5486 80.704C24.3699 81.1587 25.0079 81.804 25.4626 82.64C25.9173 83.476 26.1446 84.466 26.1446 85.61C26.1446 86.4753 26.0126 87.2527 25.7486 87.942C25.4993 88.6313 25.1326 89.2253 24.6486 89.724C24.1646 90.208 23.5853 90.582 22.9106 90.846C22.2359 91.0953 21.4806 91.22 20.6446 91.22ZM20.6446 89.13C21.1873 89.13 21.6639 88.998 22.0746 88.734C22.4853 88.47 22.8006 88.0813 23.0206 87.568C23.2553 87.04 23.3726 86.3873 23.3726 85.61C23.3726 84.4367 23.1233 83.564 22.6246 82.992C22.1259 82.4053 21.4659 82.112 20.6446 82.112C20.1019 82.112 19.6253 82.244 19.2146 82.508C18.8039 82.7573 18.4813 83.146 18.2466 83.674C18.0266 84.1873 17.9166 84.8327 17.9166 85.61C17.9166 86.7687 18.1659 87.6487 18.6646 88.25C19.1633 88.8367 19.8233 89.13 20.6446 89.13ZM33.3864 91.22C32.257 91.22 31.2744 90.9927 30.4384 90.538C29.6024 90.0687 28.957 89.4087 28.5024 88.558C28.0477 87.7073 27.8204 86.71 27.8204 85.566C27.8204 84.7007 27.945 83.9307 28.1944 83.256C28.4584 82.5667 28.8324 81.9873 29.3164 81.518C29.8004 81.034 30.387 80.6673 31.0764 80.418C31.7657 80.154 32.5357 80.022 33.3864 80.022C33.8704 80.022 34.391 80.088 34.9484 80.22C35.5204 80.352 36.0557 80.572 36.5544 80.88C36.789 81.0267 36.943 81.2027 37.0164 81.408C37.0897 81.6133 37.1044 81.826 37.0604 82.046C37.0164 82.2513 36.921 82.4347 36.7744 82.596C36.6424 82.7427 36.4737 82.838 36.2684 82.882C36.063 82.9113 35.8357 82.86 35.5864 82.728C35.2637 82.5373 34.9337 82.398 34.5964 82.31C34.259 82.2073 33.9364 82.156 33.6284 82.156C33.1444 82.156 32.719 82.2367 32.3524 82.398C31.9857 82.5447 31.6704 82.7647 31.4064 83.058C31.157 83.3367 30.9664 83.6887 30.8344 84.114C30.7024 84.5393 30.6364 85.0307 30.6364 85.588C30.6364 86.6733 30.893 87.5313 31.4064 88.162C31.9344 88.778 32.675 89.086 33.6284 89.086C33.9364 89.086 34.2517 89.042 34.5744 88.954C34.9117 88.866 35.249 88.7267 35.5864 88.536C35.8357 88.404 36.0557 88.36 36.2464 88.404C36.4517 88.448 36.6204 88.5507 36.7524 88.712C36.8844 88.8587 36.965 89.042 36.9944 89.262C37.0237 89.4673 36.9944 89.6727 36.9064 89.878C36.833 90.0833 36.6864 90.252 36.4664 90.384C35.9824 90.6773 35.469 90.89 34.9264 91.022C34.3837 91.154 33.8704 91.22 33.3864 91.22ZM43.8785 91.22C42.6612 91.22 41.6125 90.9927 40.7325 90.538C39.8525 90.0833 39.1705 89.438 38.6865 88.602C38.2172 87.766 37.9825 86.776 37.9825 85.632C37.9825 84.5173 38.2098 83.542 38.6645 82.706C39.1338 81.87 39.7718 81.2173 40.5785 80.748C41.3998 80.264 42.3312 80.022 43.3725 80.022C44.1352 80.022 44.8172 80.1467 45.4185 80.396C46.0345 80.6453 46.5552 81.0047 46.9805 81.474C47.4205 81.9433 47.7505 82.5153 47.9705 83.19C48.2052 83.85 48.3225 84.598 48.3225 85.434C48.3225 85.698 48.2272 85.9033 48.0365 86.05C47.8605 86.182 47.6038 86.248 47.2665 86.248H40.2045V84.664H46.3865L46.0345 84.994C46.0345 84.3193 45.9318 83.7547 45.7265 83.3C45.5358 82.8453 45.2498 82.5007 44.8685 82.266C44.5018 82.0167 44.0398 81.892 43.4825 81.892C42.8665 81.892 42.3385 82.0387 41.8985 82.332C41.4732 82.6107 41.1432 83.014 40.9085 83.542C40.6885 84.0553 40.5785 84.6713 40.5785 85.39V85.544C40.5785 86.7467 40.8572 87.6487 41.4145 88.25C41.9865 88.8367 42.8225 89.13 43.9225 89.13C44.3038 89.13 44.7292 89.086 45.1985 88.998C45.6825 88.8953 46.1372 88.7267 46.5625 88.492C46.8705 88.316 47.1418 88.2427 47.3765 88.272C47.6112 88.2867 47.7945 88.3673 47.9265 88.514C48.0732 88.6607 48.1612 88.844 48.1905 89.064C48.2198 89.2693 48.1758 89.482 48.0585 89.702C47.9558 89.922 47.7725 90.1127 47.5085 90.274C46.9952 90.5967 46.4012 90.8387 45.7265 91C45.0665 91.1467 44.4505 91.22 43.8785 91.22ZM46.5185 77.866C46.6505 78.1007 46.6798 78.3133 46.6065 78.504C46.5332 78.6947 46.4085 78.8413 46.2325 78.944C46.0565 79.032 45.8658 79.0613 45.6605 79.032C45.4698 79.0027 45.3085 78.8853 45.1765 78.68L43.3945 75.908L41.6125 78.68C41.4805 78.8853 41.3118 79.0027 41.1065 79.032C40.9158 79.0613 40.7325 79.032 40.5565 78.944C40.3805 78.8413 40.2558 78.6947 40.1825 78.504C40.1092 78.3133 40.1385 78.1007 40.2705 77.866L41.8545 74.962C42.0305 74.6247 42.2432 74.3753 42.4925 74.214C42.7565 74.0527 43.0572 73.972 43.3945 73.972C43.7318 73.972 44.0325 74.0527 44.2965 74.214C44.5605 74.3753 44.7805 74.6247 44.9565 74.962L46.5185 77.866ZM60.015 91.22C59.2376 91.22 58.541 91.0733 57.925 90.78C57.3236 90.472 56.847 90.0613 56.495 89.548C56.1576 89.0347 55.989 88.4553 55.989 87.81C55.989 87.018 56.1943 86.3947 56.605 85.94C57.0156 85.4707 57.683 85.1333 58.607 84.928C59.531 84.7227 60.7703 84.62 62.325 84.62H63.425V86.204H62.347C61.4376 86.204 60.7116 86.248 60.169 86.336C59.6263 86.424 59.2376 86.578 59.003 86.798C58.783 87.0033 58.673 87.2967 58.673 87.678C58.673 88.162 58.8416 88.558 59.179 88.866C59.5163 89.174 59.9856 89.328 60.587 89.328C61.071 89.328 61.4963 89.218 61.863 88.998C62.2443 88.7633 62.545 88.448 62.765 88.052C62.985 87.656 63.095 87.2013 63.095 86.688V84.158C63.095 83.4247 62.9336 82.8967 62.611 82.574C62.2883 82.2513 61.7456 82.09 60.983 82.09C60.5576 82.09 60.0956 82.1413 59.597 82.244C59.113 82.3467 58.5996 82.5227 58.057 82.772C57.7783 82.904 57.529 82.9407 57.309 82.882C57.1036 82.8233 56.9423 82.706 56.825 82.53C56.7076 82.3393 56.649 82.134 56.649 81.914C56.649 81.694 56.7076 81.4813 56.825 81.276C56.9423 81.056 57.1403 80.8947 57.419 80.792C58.0936 80.5133 58.739 80.3153 59.355 80.198C59.9856 80.0807 60.5576 80.022 61.071 80.022C62.127 80.022 62.9923 80.1833 63.667 80.506C64.3563 80.8287 64.8696 81.32 65.207 81.98C65.5443 82.6253 65.713 83.4613 65.713 84.488V89.768C65.713 90.2227 65.603 90.5747 65.383 90.824C65.163 91.0587 64.8476 91.176 64.437 91.176C64.0263 91.176 63.7036 91.0587 63.469 90.824C63.249 90.5747 63.139 90.2227 63.139 89.768V88.712H63.315C63.2123 89.2253 63.007 89.6727 62.699 90.054C62.4056 90.4207 62.0316 90.7067 61.577 90.912C61.1223 91.1173 60.6016 91.22 60.015 91.22ZM69.8682 91.154C69.4282 91.154 69.0909 91.022 68.8562 90.758C68.6216 90.494 68.5042 90.1273 68.5042 89.658V81.584C68.5042 81.1 68.6216 80.7333 68.8562 80.484C69.0909 80.22 69.4282 80.088 69.8682 80.088C70.3082 80.088 70.6456 80.22 70.8802 80.484C71.1296 80.7333 71.2542 81.1 71.2542 81.584V89.658C71.2542 90.1273 71.1369 90.494 70.9022 90.758C70.6676 91.022 70.3229 91.154 69.8682 91.154ZM69.8682 78.042C69.3549 78.042 68.9516 77.9173 68.6582 77.668C68.3796 77.404 68.2402 77.0447 68.2402 76.59C68.2402 76.1207 68.3796 75.7613 68.6582 75.512C68.9516 75.2627 69.3549 75.138 69.8682 75.138C70.3962 75.138 70.7996 75.2627 71.0782 75.512C71.3569 75.7613 71.4962 76.1207 71.4962 76.59C71.4962 77.0447 71.3569 77.404 71.0782 77.668C70.7996 77.9173 70.3962 78.042 69.8682 78.042ZM75.4756 91.176C75.0356 91.176 74.6983 91.0587 74.4636 90.824C74.229 90.5747 74.1116 90.2227 74.1116 89.768V81.452C74.1116 80.9973 74.229 80.6527 74.4636 80.418C74.6983 80.1833 75.0283 80.066 75.4536 80.066C75.879 80.066 76.209 80.1833 76.4436 80.418C76.6783 80.6527 76.7956 80.9973 76.7956 81.452V82.948L76.5536 82.398C76.8763 81.6207 77.375 81.034 78.0496 80.638C78.739 80.2273 79.5163 80.022 80.3816 80.022C81.247 80.022 81.9583 80.1833 82.5156 80.506C83.073 80.8287 83.491 81.32 83.7696 81.98C84.0483 82.6253 84.1876 83.4467 84.1876 84.444V89.768C84.1876 90.2227 84.0703 90.5747 83.8356 90.824C83.601 91.0587 83.2636 91.176 82.8236 91.176C82.3836 91.176 82.039 91.0587 81.7896 90.824C81.555 90.5747 81.4376 90.2227 81.4376 89.768V84.576C81.4376 83.74 81.2763 83.1313 80.9536 82.75C80.6456 82.3687 80.1616 82.178 79.5016 82.178C78.695 82.178 78.0496 82.4347 77.5656 82.948C77.0963 83.4467 76.8616 84.114 76.8616 84.95V89.768C76.8616 90.7067 76.3996 91.176 75.4756 91.176ZM91.1168 91.22C90.1781 91.22 89.3494 90.9927 88.6308 90.538C87.9268 90.0833 87.3768 89.438 86.9808 88.602C86.5848 87.7513 86.3868 86.754 86.3868 85.61C86.3868 84.4513 86.5848 83.4613 86.9808 82.64C87.3768 81.804 87.9268 81.1587 88.6308 80.704C89.3494 80.2493 90.1781 80.022 91.1168 80.022C92.0114 80.022 92.7888 80.242 93.4488 80.682C94.1234 81.122 94.5781 81.7013 94.8128 82.42H94.5708V76.7C94.5708 76.2453 94.6881 75.9007 94.9228 75.666C95.1574 75.4313 95.4948 75.314 95.9348 75.314C96.3748 75.314 96.7121 75.4313 96.9468 75.666C97.1961 75.9007 97.3208 76.2453 97.3208 76.7V89.768C97.3208 90.2227 97.2034 90.5747 96.9688 90.824C96.7341 91.0587 96.3968 91.176 95.9568 91.176C95.5168 91.176 95.1794 91.0587 94.9448 90.824C94.7101 90.5747 94.5928 90.2227 94.5928 89.768V88.052L94.8348 88.712C94.6148 89.4747 94.1674 90.0833 93.4928 90.538C92.8181 90.9927 92.0261 91.22 91.1168 91.22ZM91.8868 89.13C92.4294 89.13 92.9061 88.998 93.3168 88.734C93.7274 88.47 94.0428 88.0813 94.2628 87.568C94.4974 87.04 94.6148 86.3873 94.6148 85.61C94.6148 84.4367 94.3654 83.564 93.8668 82.992C93.3681 82.4053 92.7081 82.112 91.8868 82.112C91.3441 82.112 90.8674 82.244 90.4568 82.508C90.0461 82.7573 89.7234 83.146 89.4888 83.674C89.2688 84.1873 89.1588 84.8327 89.1588 85.61C89.1588 86.7687 89.4081 87.6487 89.9068 88.25C90.4054 88.8367 91.0654 89.13 91.8868 89.13ZM103.714 91.22C102.937 91.22 102.24 91.0733 101.624 90.78C101.023 90.472 100.546 90.0613 100.194 89.548C99.8569 89.0347 99.6882 88.4553 99.6882 87.81C99.6882 87.018 99.8935 86.3947 100.304 85.94C100.715 85.4707 101.382 85.1333 102.306 84.928C103.23 84.7227 104.47 84.62 106.024 84.62H107.124V86.204H106.046C105.137 86.204 104.411 86.248 103.868 86.336C103.326 86.424 102.937 86.578 102.702 86.798C102.482 87.0033 102.372 87.2967 102.372 87.678C102.372 88.162 102.541 88.558 102.878 88.866C103.216 89.174 103.685 89.328 104.286 89.328C104.77 89.328 105.196 89.218 105.562 88.998C105.944 88.7633 106.244 88.448 106.464 88.052C106.684 87.656 106.794 87.2013 106.794 86.688V84.158C106.794 83.4247 106.633 82.8967 106.31 82.574C105.988 82.2513 105.445 82.09 104.682 82.09C104.257 82.09 103.795 82.1413 103.296 82.244C102.812 82.3467 102.299 82.5227 101.756 82.772C101.478 82.904 101.228 82.9407 101.008 82.882C100.803 82.8233 100.642 82.706 100.524 82.53C100.407 82.3393 100.348 82.134 100.348 81.914C100.348 81.694 100.407 81.4813 100.524 81.276C100.642 81.056 100.84 80.8947 101.118 80.792C101.793 80.5133 102.438 80.3153 103.054 80.198C103.685 80.0807 104.257 80.022 104.77 80.022C105.826 80.022 106.692 80.1833 107.366 80.506C108.056 80.8287 108.569 81.32 108.906 81.98C109.244 82.6253 109.412 83.4613 109.412 84.488V89.768C109.412 90.2227 109.302 90.5747 109.082 90.824C108.862 91.0587 108.547 91.176 108.136 91.176C107.726 91.176 107.403 91.0587 107.168 90.824C106.948 90.5747 106.838 90.2227 106.838 89.768V88.712H107.014C106.912 89.2253 106.706 89.6727 106.398 90.054C106.105 90.4207 105.731 90.7067 105.276 90.912C104.822 91.1173 104.301 91.22 103.714 91.22ZM119.54 91.176C119.1 91.176 118.763 91.0587 118.528 90.824C118.293 90.5747 118.176 90.2227 118.176 89.768V81.452C118.176 80.9973 118.293 80.6527 118.528 80.418C118.763 80.1833 119.093 80.066 119.518 80.066C119.943 80.066 120.273 80.1833 120.508 80.418C120.743 80.6527 120.86 80.9973 120.86 81.452V82.948L120.618 82.398C120.941 81.6207 121.439 81.034 122.114 80.638C122.803 80.2273 123.581 80.022 124.446 80.022C125.311 80.022 126.023 80.1833 126.58 80.506C127.137 80.8287 127.555 81.32 127.834 81.98C128.113 82.6253 128.252 83.4467 128.252 84.444V89.768C128.252 90.2227 128.135 90.5747 127.9 90.824C127.665 91.0587 127.328 91.176 126.888 91.176C126.448 91.176 126.103 91.0587 125.854 90.824C125.619 90.5747 125.502 90.2227 125.502 89.768V84.576C125.502 83.74 125.341 83.1313 125.018 82.75C124.71 82.3687 124.226 82.178 123.566 82.178C122.759 82.178 122.114 82.4347 121.63 82.948C121.161 83.4467 120.926 84.114 120.926 84.95V89.768C120.926 90.7067 120.464 91.176 119.54 91.176ZM134.587 91.22C133.81 91.22 133.113 91.0733 132.497 90.78C131.896 90.472 131.419 90.0613 131.067 89.548C130.73 89.0347 130.561 88.4553 130.561 87.81C130.561 87.018 130.767 86.3947 131.177 85.94C131.588 85.4707 132.255 85.1333 133.179 84.928C134.103 84.7227 135.343 84.62 136.897 84.62H137.997V86.204H136.919C136.01 86.204 135.284 86.248 134.741 86.336C134.199 86.424 133.81 86.578 133.575 86.798C133.355 87.0033 133.245 87.2967 133.245 87.678C133.245 88.162 133.414 88.558 133.751 88.866C134.089 89.174 134.558 89.328 135.159 89.328C135.643 89.328 136.069 89.218 136.435 88.998C136.817 88.7633 137.117 88.448 137.337 88.052C137.557 87.656 137.667 87.2013 137.667 86.688V84.158C137.667 83.4247 137.506 82.8967 137.183 82.574C136.861 82.2513 136.318 82.09 135.555 82.09C135.13 82.09 134.668 82.1413 134.169 82.244C133.685 82.3467 133.172 82.5227 132.629 82.772C132.351 82.904 132.101 82.9407 131.881 82.882C131.676 82.8233 131.515 82.706 131.397 82.53C131.28 82.3393 131.221 82.134 131.221 81.914C131.221 81.694 131.28 81.4813 131.397 81.276C131.515 81.056 131.713 80.8947 131.991 80.792C132.666 80.5133 133.311 80.3153 133.927 80.198C134.558 80.0807 135.13 80.022 135.643 80.022C136.699 80.022 137.565 80.1833 138.239 80.506C138.929 80.8287 139.442 81.32 139.779 81.98C140.117 82.6253 140.285 83.4613 140.285 84.488V89.768C140.285 90.2227 140.175 90.5747 139.955 90.824C139.735 91.0587 139.42 91.176 139.009 91.176C138.599 91.176 138.276 91.0587 138.041 90.824C137.821 90.5747 137.711 90.2227 137.711 89.768V88.712H137.887C137.785 89.2253 137.579 89.6727 137.271 90.054C136.978 90.4207 136.604 90.7067 136.149 90.912C135.695 91.1173 135.174 91.22 134.587 91.22ZM132.167 78.218C131.947 78.2033 131.779 78.13 131.661 77.998C131.544 77.866 131.515 77.6607 131.573 77.382C131.632 77.074 131.72 76.7733 131.837 76.48C131.969 76.172 132.138 75.8933 132.343 75.644C132.549 75.3947 132.798 75.1967 133.091 75.05C133.385 74.8887 133.729 74.808 134.125 74.808C134.492 74.808 134.815 74.8813 135.093 75.028C135.372 75.1747 135.629 75.3433 135.863 75.534C136.098 75.7247 136.333 75.8933 136.567 76.04C136.802 76.1867 137.059 76.26 137.337 76.26C137.645 76.26 137.909 76.1573 138.129 75.952C138.364 75.732 138.511 75.4607 138.569 75.138C138.599 74.9767 138.672 74.852 138.789 74.764C138.921 74.676 139.105 74.6393 139.339 74.654C139.559 74.6687 139.728 74.742 139.845 74.874C139.963 75.006 139.992 75.2113 139.933 75.49C139.86 75.886 139.721 76.282 139.515 76.678C139.31 77.074 139.031 77.404 138.679 77.668C138.342 77.932 137.909 78.064 137.381 78.064C137.015 78.064 136.692 77.9907 136.413 77.844C136.135 77.6973 135.871 77.5287 135.621 77.338C135.387 77.1473 135.152 76.9787 134.917 76.832C134.683 76.6853 134.433 76.612 134.169 76.612C133.861 76.612 133.597 76.7147 133.377 76.92C133.157 77.1253 133.011 77.3967 132.937 77.734C132.908 77.8953 132.827 78.02 132.695 78.108C132.578 78.196 132.402 78.2327 132.167 78.218ZM147.982 91.22C146.868 91.22 145.9 90.9927 145.078 90.538C144.257 90.0833 143.619 89.438 143.164 88.602C142.71 87.7513 142.482 86.754 142.482 85.61C142.482 84.7447 142.607 83.9747 142.856 83.3C143.12 82.6107 143.494 82.024 143.978 81.54C144.462 81.0413 145.042 80.6673 145.716 80.418C146.391 80.154 147.146 80.022 147.982 80.022C149.097 80.022 150.065 80.2493 150.886 80.704C151.708 81.1587 152.346 81.804 152.8 82.64C153.255 83.476 153.482 84.466 153.482 85.61C153.482 86.4753 153.35 87.2527 153.086 87.942C152.837 88.6313 152.47 89.2253 151.986 89.724C151.502 90.208 150.923 90.582 150.248 90.846C149.574 91.0953 148.818 91.22 147.982 91.22ZM147.982 89.13C148.525 89.13 149.002 88.998 149.412 88.734C149.823 88.47 150.138 88.0813 150.358 87.568C150.593 87.04 150.71 86.3873 150.71 85.61C150.71 84.4367 150.461 83.564 149.962 82.992C149.464 82.4053 148.804 82.112 147.982 82.112C147.44 82.112 146.963 82.244 146.552 82.508C146.142 82.7573 145.819 83.146 145.584 83.674C145.364 84.1873 145.254 84.8327 145.254 85.61C145.254 86.7687 145.504 87.6487 146.002 88.25C146.501 88.8367 147.161 89.13 147.982 89.13ZM163.089 95.136C162.649 95.136 162.312 95.0187 162.077 94.784C161.842 94.5493 161.725 94.2047 161.725 93.75V81.452C161.725 80.9973 161.842 80.6527 162.077 80.418C162.312 80.1833 162.642 80.066 163.067 80.066C163.507 80.066 163.844 80.1833 164.079 80.418C164.314 80.6527 164.431 80.9973 164.431 81.452V83.168L164.189 82.508C164.409 81.76 164.856 81.1587 165.531 80.704C166.22 80.2493 167.02 80.022 167.929 80.022C168.868 80.022 169.689 80.2493 170.393 80.704C171.112 81.1587 171.669 81.804 172.065 82.64C172.461 83.4613 172.659 84.4513 172.659 85.61C172.659 86.754 172.461 87.7513 172.065 88.602C171.669 89.438 171.119 90.0833 170.415 90.538C169.711 90.9927 168.882 91.22 167.929 91.22C167.034 91.22 166.25 91 165.575 90.56C164.9 90.1053 164.446 89.5187 164.211 88.8H164.475V93.75C164.475 94.2047 164.35 94.5493 164.101 94.784C163.866 95.0187 163.529 95.136 163.089 95.136ZM167.159 89.13C167.702 89.13 168.178 88.998 168.589 88.734C169 88.47 169.315 88.0813 169.535 87.568C169.77 87.04 169.887 86.3873 169.887 85.61C169.887 84.4367 169.638 83.564 169.139 82.992C168.64 82.4053 167.98 82.112 167.159 82.112C166.616 82.112 166.14 82.244 165.729 82.508C165.318 82.7573 164.996 83.146 164.761 83.674C164.541 84.1873 164.431 84.8327 164.431 85.61C164.431 86.7687 164.68 87.6487 165.179 88.25C165.678 88.8367 166.338 89.13 167.159 89.13ZM179.822 91.22C178.708 91.22 177.74 90.9927 176.918 90.538C176.097 90.0833 175.459 89.438 175.004 88.602C174.55 87.7513 174.322 86.754 174.322 85.61C174.322 84.7447 174.447 83.9747 174.696 83.3C174.96 82.6107 175.334 82.024 175.818 81.54C176.302 81.0413 176.882 80.6673 177.556 80.418C178.231 80.154 178.986 80.022 179.822 80.022C180.937 80.022 181.905 80.2493 182.726 80.704C183.548 81.1587 184.186 81.804 184.64 82.64C185.095 83.476 185.322 84.466 185.322 85.61C185.322 86.4753 185.19 87.2527 184.926 87.942C184.677 88.6313 184.31 89.2253 183.826 89.724C183.342 90.208 182.763 90.582 182.088 90.846C181.414 91.0953 180.658 91.22 179.822 91.22ZM179.822 89.13C180.365 89.13 180.842 88.998 181.252 88.734C181.663 88.47 181.978 88.0813 182.198 87.568C182.433 87.04 182.55 86.3873 182.55 85.61C182.55 84.4367 182.301 83.564 181.802 82.992C181.304 82.4053 180.644 82.112 179.822 82.112C179.28 82.112 178.803 82.244 178.392 82.508C177.982 82.7573 177.659 83.146 177.424 83.674C177.204 84.1873 177.094 84.8327 177.094 85.61C177.094 86.7687 177.344 87.6487 177.842 88.25C178.341 88.8367 179.001 89.13 179.822 89.13ZM191.53 91.22C190.899 91.22 190.232 91.154 189.528 91.022C188.824 90.89 188.193 90.6627 187.636 90.34C187.401 90.1933 187.233 90.0247 187.13 89.834C187.042 89.6287 187.005 89.4307 187.02 89.24C187.049 89.0347 187.123 88.8587 187.24 88.712C187.372 88.5653 187.533 88.47 187.724 88.426C187.929 88.382 188.149 88.4187 188.384 88.536C188.971 88.8147 189.521 89.0127 190.034 89.13C190.547 89.2327 191.053 89.284 191.552 89.284C192.256 89.284 192.777 89.1667 193.114 88.932C193.466 88.6827 193.642 88.36 193.642 87.964C193.642 87.6267 193.525 87.37 193.29 87.194C193.07 87.0033 192.733 86.864 192.278 86.776L190.078 86.358C189.169 86.182 188.472 85.852 187.988 85.368C187.519 84.8693 187.284 84.2313 187.284 83.454C187.284 82.75 187.475 82.1413 187.856 81.628C188.252 81.1147 188.795 80.7187 189.484 80.44C190.173 80.1613 190.965 80.022 191.86 80.022C192.505 80.022 193.107 80.0953 193.664 80.242C194.236 80.374 194.786 80.5867 195.314 80.88C195.534 80.9973 195.681 81.1513 195.754 81.342C195.842 81.5327 195.864 81.7307 195.82 81.936C195.776 82.1267 195.688 82.3027 195.556 82.464C195.424 82.6107 195.255 82.706 195.05 82.75C194.859 82.7793 194.639 82.7353 194.39 82.618C193.935 82.3833 193.495 82.2147 193.07 82.112C192.659 82.0093 192.263 81.958 191.882 81.958C191.163 81.958 190.628 82.0827 190.276 82.332C189.939 82.5813 189.77 82.9113 189.77 83.322C189.77 83.63 189.873 83.8867 190.078 84.092C190.283 84.2973 190.599 84.4367 191.024 84.51L193.224 84.928C194.177 85.104 194.896 85.4267 195.38 85.896C195.879 86.3653 196.128 86.996 196.128 87.788C196.128 88.8587 195.71 89.702 194.874 90.318C194.038 90.9193 192.923 91.22 191.53 91.22ZM202.272 91.22C201.642 91.22 200.974 91.154 200.27 91.022C199.566 90.89 198.936 90.6627 198.378 90.34C198.144 90.1933 197.975 90.0247 197.872 89.834C197.784 89.6287 197.748 89.4307 197.762 89.24C197.792 89.0347 197.865 88.8587 197.982 88.712C198.114 88.5653 198.276 88.47 198.466 88.426C198.672 88.382 198.892 88.4187 199.126 88.536C199.713 88.8147 200.263 89.0127 200.776 89.13C201.29 89.2327 201.796 89.284 202.294 89.284C202.998 89.284 203.519 89.1667 203.856 88.932C204.208 88.6827 204.384 88.36 204.384 87.964C204.384 87.6267 204.267 87.37 204.032 87.194C203.812 87.0033 203.475 86.864 203.02 86.776L200.82 86.358C199.911 86.182 199.214 85.852 198.73 85.368C198.261 84.8693 198.026 84.2313 198.026 83.454C198.026 82.75 198.217 82.1413 198.598 81.628C198.994 81.1147 199.537 80.7187 200.226 80.44C200.916 80.1613 201.708 80.022 202.602 80.022C203.248 80.022 203.849 80.0953 204.406 80.242C204.978 80.374 205.528 80.5867 206.056 80.88C206.276 80.9973 206.423 81.1513 206.496 81.342C206.584 81.5327 206.606 81.7307 206.562 81.936C206.518 82.1267 206.43 82.3027 206.298 82.464C206.166 82.6107 205.998 82.706 205.792 82.75C205.602 82.7793 205.382 82.7353 205.132 82.618C204.678 82.3833 204.238 82.2147 203.812 82.112C203.402 82.0093 203.006 81.958 202.624 81.958C201.906 81.958 201.37 82.0827 201.018 82.332C200.681 82.5813 200.512 82.9113 200.512 83.322C200.512 83.63 200.615 83.8867 200.82 84.092C201.026 84.2973 201.341 84.4367 201.766 84.51L203.966 84.928C204.92 85.104 205.638 85.4267 206.122 85.896C206.621 86.3653 206.87 86.996 206.87 87.788C206.87 88.8587 206.452 89.702 205.616 90.318C204.78 90.9193 203.666 91.22 202.272 91.22ZM212.97 91.22C212.076 91.22 211.335 91.0587 210.748 90.736C210.162 90.3987 209.722 89.9 209.428 89.24C209.15 88.58 209.01 87.7587 209.01 86.776V81.452C209.01 80.9827 209.128 80.638 209.362 80.418C209.597 80.1833 209.934 80.066 210.374 80.066C210.814 80.066 211.152 80.1833 211.386 80.418C211.636 80.638 211.76 80.9827 211.76 81.452V86.82C211.76 87.5827 211.914 88.1473 212.222 88.514C212.53 88.8807 213.022 89.064 213.696 89.064C214.43 89.064 215.031 88.8147 215.5 88.316C215.97 87.8027 216.204 87.128 216.204 86.292V81.452C216.204 80.9827 216.322 80.638 216.556 80.418C216.791 80.1833 217.128 80.066 217.568 80.066C218.008 80.066 218.346 80.1833 218.58 80.418C218.83 80.638 218.954 80.9827 218.954 81.452V89.768C218.954 90.7067 218.507 91.176 217.612 91.176C217.187 91.176 216.857 91.0587 216.622 90.824C216.388 90.5747 216.27 90.2227 216.27 89.768V88.096L216.578 88.756C216.27 89.548 215.801 90.1567 215.17 90.582C214.554 91.0073 213.821 91.22 212.97 91.22ZM223.181 91.154C222.741 91.154 222.403 91.022 222.169 90.758C221.934 90.494 221.817 90.1273 221.817 89.658V81.584C221.817 81.1 221.934 80.7333 222.169 80.484C222.403 80.22 222.741 80.088 223.181 80.088C223.621 80.088 223.958 80.22 224.193 80.484C224.442 80.7333 224.567 81.1 224.567 81.584V89.658C224.567 90.1273 224.449 90.494 224.215 90.758C223.98 91.022 223.635 91.154 223.181 91.154ZM223.181 78.042C222.667 78.042 222.264 77.9173 221.971 77.668C221.692 77.404 221.553 77.0447 221.553 76.59C221.553 76.1207 221.692 75.7613 221.971 75.512C222.264 75.2627 222.667 75.138 223.181 75.138C223.709 75.138 224.112 75.2627 224.391 75.512C224.669 75.7613 224.809 76.1207 224.809 76.59C224.809 77.0447 224.669 77.404 224.391 77.668C224.112 77.9173 223.709 78.042 223.181 78.042ZM234.761 91.176C234.321 91.176 233.983 91.0587 233.749 90.824C233.514 90.5747 233.397 90.2227 233.397 89.768V81.452C233.397 80.9973 233.514 80.6527 233.749 80.418C233.983 80.1833 234.313 80.066 234.739 80.066C235.164 80.066 235.494 80.1833 235.729 80.418C235.963 80.6527 236.081 80.9973 236.081 81.452V82.948L235.839 82.398C236.161 81.6207 236.66 81.034 237.335 80.638C238.024 80.2273 238.801 80.022 239.667 80.022C240.532 80.022 241.243 80.1833 241.801 80.506C242.358 80.8287 242.776 81.32 243.055 81.98C243.333 82.6253 243.473 83.4467 243.473 84.444V89.768C243.473 90.2227 243.355 90.5747 243.121 90.824C242.886 91.0587 242.549 91.176 242.109 91.176C241.669 91.176 241.324 91.0587 241.075 90.824C240.84 90.5747 240.723 90.2227 240.723 89.768V84.576C240.723 83.74 240.561 83.1313 240.239 82.75C239.931 82.3687 239.447 82.178 238.787 82.178C237.98 82.178 237.335 82.4347 236.851 82.948C236.381 83.4467 236.147 84.114 236.147 84.95V89.768C236.147 90.7067 235.685 91.176 234.761 91.176ZM251.568 91.22C250.351 91.22 249.302 90.9927 248.422 90.538C247.542 90.0833 246.86 89.438 246.376 88.602C245.907 87.766 245.672 86.776 245.672 85.632C245.672 84.5173 245.899 83.542 246.354 82.706C246.823 81.87 247.461 81.2173 248.268 80.748C249.089 80.264 250.021 80.022 251.062 80.022C251.825 80.022 252.507 80.1467 253.108 80.396C253.724 80.6453 254.245 81.0047 254.67 81.474C255.11 81.9433 255.44 82.5153 255.66 83.19C255.895 83.85 256.012 84.598 256.012 85.434C256.012 85.698 255.917 85.9033 255.726 86.05C255.55 86.182 255.293 86.248 254.956 86.248H247.894V84.664H254.076L253.724 84.994C253.724 84.3193 253.621 83.7547 253.416 83.3C253.225 82.8453 252.939 82.5007 252.558 82.266C252.191 82.0167 251.729 81.892 251.172 81.892C250.556 81.892 250.028 82.0387 249.588 82.332C249.163 82.6107 248.833 83.014 248.598 83.542C248.378 84.0553 248.268 84.6713 248.268 85.39V85.544C248.268 86.7467 248.547 87.6487 249.104 88.25C249.676 88.8367 250.512 89.13 251.612 89.13C251.993 89.13 252.419 89.086 252.888 88.998C253.372 88.8953 253.827 88.7267 254.252 88.492C254.56 88.316 254.831 88.2427 255.066 88.272C255.301 88.2867 255.484 88.3673 255.616 88.514C255.763 88.6607 255.851 88.844 255.88 89.064C255.909 89.2693 255.865 89.482 255.748 89.702C255.645 89.922 255.462 90.1127 255.198 90.274C254.685 90.5967 254.091 90.8387 253.416 91C252.756 91.1467 252.14 91.22 251.568 91.22ZM259.554 91.176C259.114 91.176 258.776 91.0587 258.542 90.824C258.307 90.5747 258.19 90.2227 258.19 89.768V81.452C258.19 80.9973 258.307 80.6527 258.542 80.418C258.776 80.1833 259.106 80.066 259.532 80.066C259.957 80.066 260.287 80.1833 260.522 80.418C260.756 80.6527 260.874 80.9973 260.874 81.452V82.948L260.632 82.398C260.954 81.6207 261.453 81.034 262.128 80.638C262.817 80.2273 263.594 80.022 264.46 80.022C265.325 80.022 266.036 80.1833 266.594 80.506C267.151 80.8287 267.569 81.32 267.848 81.98C268.126 82.6253 268.266 83.4467 268.266 84.444V89.768C268.266 90.2227 268.148 90.5747 267.914 90.824C267.679 91.0587 267.342 91.176 266.902 91.176C266.462 91.176 266.117 91.0587 265.868 90.824C265.633 90.5747 265.516 90.2227 265.516 89.768V84.576C265.516 83.74 265.354 83.1313 265.032 82.75C264.724 82.3687 264.24 82.178 263.58 82.178C262.773 82.178 262.128 82.4347 261.644 82.948C261.174 83.4467 260.94 84.114 260.94 84.95V89.768C260.94 90.7067 260.478 91.176 259.554 91.176ZM272.423 91.176C271.983 91.176 271.646 91.0587 271.411 90.824C271.176 90.5747 271.059 90.2227 271.059 89.768V76.7C271.059 76.2453 271.176 75.9007 271.411 75.666C271.646 75.4313 271.983 75.314 272.423 75.314C272.863 75.314 273.2 75.4313 273.435 75.666C273.684 75.9007 273.809 76.2453 273.809 76.7V82.398H273.501C273.824 81.6207 274.322 81.034 274.997 80.638C275.686 80.2273 276.464 80.022 277.329 80.022C278.194 80.022 278.906 80.1833 279.463 80.506C280.02 80.8287 280.438 81.32 280.717 81.98C280.996 82.6253 281.135 83.4467 281.135 84.444V89.768C281.135 90.2227 281.018 90.5747 280.783 90.824C280.548 91.0587 280.211 91.176 279.771 91.176C279.331 91.176 278.986 91.0587 278.737 90.824C278.502 90.5747 278.385 90.2227 278.385 89.768V84.576C278.385 83.74 278.224 83.1313 277.901 82.75C277.593 82.3687 277.109 82.178 276.449 82.178C275.642 82.178 274.997 82.4347 274.513 82.948C274.044 83.4467 273.809 84.114 273.809 84.95V89.768C273.809 90.7067 273.347 91.176 272.423 91.176ZM287.822 91.22C286.927 91.22 286.187 91.0587 285.6 90.736C285.013 90.3987 284.573 89.9 284.28 89.24C284.001 88.58 283.862 87.7587 283.862 86.776V81.452C283.862 80.9827 283.979 80.638 284.214 80.418C284.449 80.1833 284.786 80.066 285.226 80.066C285.666 80.066 286.003 80.1833 286.238 80.418C286.487 80.638 286.612 80.9827 286.612 81.452V86.82C286.612 87.5827 286.766 88.1473 287.074 88.514C287.382 88.8807 287.873 89.064 288.548 89.064C289.281 89.064 289.883 88.8147 290.352 88.316C290.821 87.8027 291.056 87.128 291.056 86.292V81.452C291.056 80.9827 291.173 80.638 291.408 80.418C291.643 80.1833 291.98 80.066 292.42 80.066C292.86 80.066 293.197 80.1833 293.432 80.418C293.681 80.638 293.806 80.9827 293.806 81.452V89.768C293.806 90.7067 293.359 91.176 292.464 91.176C292.039 91.176 291.709 91.0587 291.474 90.824C291.239 90.5747 291.122 90.2227 291.122 89.768V88.096L291.43 88.756C291.122 89.548 290.653 90.1567 290.022 90.582C289.406 91.0073 288.673 91.22 287.822 91.22ZM298.076 91.176C297.636 91.176 297.299 91.0587 297.064 90.824C296.83 90.5747 296.712 90.2227 296.712 89.768V81.452C296.712 80.9973 296.83 80.6527 297.064 80.418C297.299 80.1833 297.629 80.066 298.054 80.066C298.48 80.066 298.81 80.1833 299.044 80.418C299.279 80.6527 299.396 80.9973 299.396 81.452V83.058L299.154 82.398C299.448 81.6647 299.902 81.0853 300.518 80.66C301.134 80.2347 301.868 80.022 302.718 80.022C303.584 80.022 304.295 80.2273 304.852 80.638C305.41 81.0487 305.798 81.6793 306.018 82.53H305.71C306.004 81.7527 306.488 81.144 307.162 80.704C307.837 80.2493 308.614 80.022 309.494 80.022C310.316 80.022 310.99 80.1833 311.518 80.506C312.061 80.8287 312.464 81.32 312.728 81.98C312.992 82.6253 313.124 83.4467 313.124 84.444V89.768C313.124 90.2227 313 90.5747 312.75 90.824C312.516 91.0587 312.178 91.176 311.738 91.176C311.298 91.176 310.961 91.0587 310.726 90.824C310.492 90.5747 310.374 90.2227 310.374 89.768V84.554C310.374 83.7327 310.235 83.1313 309.956 82.75C309.692 82.3687 309.238 82.178 308.592 82.178C307.874 82.178 307.309 82.4347 306.898 82.948C306.488 83.4467 306.282 84.1433 306.282 85.038V89.768C306.282 90.2227 306.165 90.5747 305.93 90.824C305.696 91.0587 305.358 91.176 304.918 91.176C304.478 91.176 304.134 91.0587 303.884 90.824C303.65 90.5747 303.532 90.2227 303.532 89.768V84.554C303.532 83.7327 303.393 83.1313 303.114 82.75C302.85 82.3687 302.403 82.178 301.772 82.178C301.054 82.178 300.489 82.4347 300.078 82.948C299.668 83.4467 299.462 84.1433 299.462 85.038V89.768C299.462 90.7067 299 91.176 298.076 91.176ZM325.608 91.22C324.391 91.22 323.474 90.8753 322.858 90.186C322.242 89.482 321.934 88.4553 321.934 87.106V76.7C321.934 76.2453 322.051 75.9007 322.286 75.666C322.521 75.4313 322.858 75.314 323.298 75.314C323.738 75.314 324.075 75.4313 324.31 75.666C324.559 75.9007 324.684 76.2453 324.684 76.7V86.974C324.684 87.6487 324.823 88.1473 325.102 88.47C325.395 88.7927 325.806 88.954 326.334 88.954C326.451 88.954 326.561 88.954 326.664 88.954C326.767 88.9393 326.869 88.9247 326.972 88.91C327.177 88.8807 327.317 88.9393 327.39 89.086C327.463 89.218 327.5 89.4967 327.5 89.922C327.5 90.2887 327.427 90.5747 327.28 90.78C327.133 90.9853 326.891 91.11 326.554 91.154C326.407 91.1687 326.253 91.1833 326.092 91.198C325.931 91.2127 325.769 91.22 325.608 91.22ZM332.501 91.22C331.724 91.22 331.027 91.0733 330.411 90.78C329.81 90.472 329.333 90.0613 328.981 89.548C328.644 89.0347 328.475 88.4553 328.475 87.81C328.475 87.018 328.681 86.3947 329.091 85.94C329.502 85.4707 330.169 85.1333 331.093 84.928C332.017 84.7227 333.257 84.62 334.811 84.62H335.911V86.204H334.833C333.924 86.204 333.198 86.248 332.655 86.336C332.113 86.424 331.724 86.578 331.489 86.798C331.269 87.0033 331.159 87.2967 331.159 87.678C331.159 88.162 331.328 88.558 331.665 88.866C332.003 89.174 332.472 89.328 333.073 89.328C333.557 89.328 333.983 89.218 334.349 88.998C334.731 88.7633 335.031 88.448 335.251 88.052C335.471 87.656 335.581 87.2013 335.581 86.688V84.158C335.581 83.4247 335.42 82.8967 335.097 82.574C334.775 82.2513 334.232 82.09 333.469 82.09C333.044 82.09 332.582 82.1413 332.083 82.244C331.599 82.3467 331.086 82.5227 330.543 82.772C330.265 82.904 330.015 82.9407 329.795 82.882C329.59 82.8233 329.429 82.706 329.311 82.53C329.194 82.3393 329.135 82.134 329.135 81.914C329.135 81.694 329.194 81.4813 329.311 81.276C329.429 81.056 329.627 80.8947 329.905 80.792C330.58 80.5133 331.225 80.3153 331.841 80.198C332.472 80.0807 333.044 80.022 333.557 80.022C334.613 80.022 335.479 80.1833 336.153 80.506C336.843 80.8287 337.356 81.32 337.693 81.98C338.031 82.6253 338.199 83.4613 338.199 84.488V89.768C338.199 90.2227 338.089 90.5747 337.869 90.824C337.649 91.0587 337.334 91.176 336.923 91.176C336.513 91.176 336.19 91.0587 335.955 90.824C335.735 90.5747 335.625 90.2227 335.625 89.768V88.712H335.801C335.699 89.2253 335.493 89.6727 335.185 90.054C334.892 90.4207 334.518 90.7067 334.063 90.912C333.609 91.1173 333.088 91.22 332.501 91.22ZM342.355 91.176C341.915 91.176 341.577 91.0587 341.343 90.824C341.108 90.5747 340.991 90.2227 340.991 89.768V81.452C340.991 80.9973 341.108 80.6527 341.343 80.418C341.577 80.1833 341.907 80.066 342.333 80.066C342.758 80.066 343.088 80.1833 343.323 80.418C343.557 80.6527 343.675 80.9973 343.675 81.452V82.948L343.433 82.398C343.755 81.6207 344.254 81.034 344.929 80.638C345.618 80.2273 346.395 80.022 347.261 80.022C348.126 80.022 348.837 80.1833 349.395 80.506C349.952 80.8287 350.37 81.32 350.649 81.98C350.927 82.6253 351.067 83.4467 351.067 84.444V89.768C351.067 90.2227 350.949 90.5747 350.715 90.824C350.48 91.0587 350.143 91.176 349.703 91.176C349.263 91.176 348.918 91.0587 348.669 90.824C348.434 90.5747 348.317 90.2227 348.317 89.768V84.576C348.317 83.74 348.155 83.1313 347.833 82.75C347.525 82.3687 347.041 82.178 346.381 82.178C345.574 82.178 344.929 82.4347 344.445 82.948C343.975 83.4467 343.741 84.114 343.741 84.95V89.768C343.741 90.7067 343.279 91.176 342.355 91.176ZM358.832 91.22C357.702 91.22 356.72 90.9927 355.884 90.538C355.048 90.0687 354.402 89.4087 353.948 88.558C353.493 87.7073 353.266 86.71 353.266 85.566C353.266 84.7007 353.39 83.9307 353.64 83.256C353.904 82.5667 354.278 81.9873 354.762 81.518C355.246 81.034 355.832 80.6673 356.522 80.418C357.211 80.154 357.981 80.022 358.832 80.022C359.316 80.022 359.836 80.088 360.394 80.22C360.966 80.352 361.501 80.572 362 80.88C362.234 81.0267 362.388 81.2027 362.462 81.408C362.535 81.6133 362.55 81.826 362.506 82.046C362.462 82.2513 362.366 82.4347 362.22 82.596C362.088 82.7427 361.919 82.838 361.714 82.882C361.508 82.9113 361.281 82.86 361.032 82.728C360.709 82.5373 360.379 82.398 360.042 82.31C359.704 82.2073 359.382 82.156 359.074 82.156C358.59 82.156 358.164 82.2367 357.798 82.398C357.431 82.5447 357.116 82.7647 356.852 83.058C356.602 83.3367 356.412 83.6887 356.28 84.114C356.148 84.5393 356.082 85.0307 356.082 85.588C356.082 86.6733 356.338 87.5313 356.852 88.162C357.38 88.778 358.12 89.086 359.074 89.086C359.382 89.086 359.697 89.042 360.02 88.954C360.357 88.866 360.694 88.7267 361.032 88.536C361.281 88.404 361.501 88.36 361.692 88.404C361.897 88.448 362.066 88.5507 362.198 88.712C362.33 88.8587 362.41 89.042 362.44 89.262C362.469 89.4673 362.44 89.6727 362.352 89.878C362.278 90.0833 362.132 90.252 361.912 90.384C361.428 90.6773 360.914 90.89 360.372 91.022C359.829 91.154 359.316 91.22 358.832 91.22ZM358.7 95.29C358.421 95.29 358.128 95.268 357.82 95.224C357.512 95.1947 357.233 95.136 356.984 95.048C356.764 94.9747 356.61 94.85 356.522 94.674C356.448 94.5127 356.434 94.344 356.478 94.168C356.536 94.0067 356.639 93.882 356.786 93.794C356.947 93.706 357.138 93.706 357.358 93.794C357.548 93.8527 357.732 93.8967 357.908 93.926C358.084 93.9553 358.274 93.97 358.48 93.97C358.861 93.97 359.154 93.9113 359.36 93.794C359.565 93.6913 359.668 93.53 359.668 93.31C359.668 93.1487 359.602 93.024 359.47 92.936C359.352 92.848 359.147 92.804 358.854 92.804C358.751 92.804 358.641 92.804 358.524 92.804C358.421 92.8187 358.311 92.8407 358.194 92.87C358.091 92.8993 357.996 92.9067 357.908 92.892C357.834 92.892 357.761 92.8627 357.688 92.804C357.629 92.7453 357.592 92.672 357.578 92.584C357.563 92.496 357.563 92.3787 357.578 92.232L357.82 90.56H359.294L359.008 92.232L358.304 91.99C358.48 91.9313 358.656 91.8873 358.832 91.858C359.008 91.8287 359.169 91.814 359.316 91.814C359.917 91.814 360.401 91.9533 360.768 92.232C361.134 92.5107 361.318 92.8993 361.318 93.398C361.318 93.97 361.076 94.4247 360.592 94.762C360.108 95.114 359.477 95.29 358.7 95.29ZM367.714 91.22C366.937 91.22 366.24 91.0733 365.624 90.78C365.023 90.472 364.546 90.0613 364.194 89.548C363.857 89.0347 363.688 88.4553 363.688 87.81C363.688 87.018 363.894 86.3947 364.304 85.94C364.715 85.4707 365.382 85.1333 366.306 84.928C367.23 84.7227 368.47 84.62 370.024 84.62H371.124V86.204H370.046C369.137 86.204 368.411 86.248 367.868 86.336C367.326 86.424 366.937 86.578 366.702 86.798C366.482 87.0033 366.372 87.2967 366.372 87.678C366.372 88.162 366.541 88.558 366.878 88.866C367.216 89.174 367.685 89.328 368.286 89.328C368.77 89.328 369.196 89.218 369.562 88.998C369.944 88.7633 370.244 88.448 370.464 88.052C370.684 87.656 370.794 87.2013 370.794 86.688V84.158C370.794 83.4247 370.633 82.8967 370.31 82.574C369.988 82.2513 369.445 82.09 368.682 82.09C368.257 82.09 367.795 82.1413 367.296 82.244C366.812 82.3467 366.299 82.5227 365.756 82.772C365.478 82.904 365.228 82.9407 365.008 82.882C364.803 82.8233 364.642 82.706 364.524 82.53C364.407 82.3393 364.348 82.134 364.348 81.914C364.348 81.694 364.407 81.4813 364.524 81.276C364.642 81.056 364.84 80.8947 365.118 80.792C365.793 80.5133 366.438 80.3153 367.054 80.198C367.685 80.0807 368.257 80.022 368.77 80.022C369.826 80.022 370.692 80.1833 371.366 80.506C372.056 80.8287 372.569 81.32 372.906 81.98C373.244 82.6253 373.412 83.4613 373.412 84.488V89.768C373.412 90.2227 373.302 90.5747 373.082 90.824C372.862 91.0587 372.547 91.176 372.136 91.176C371.726 91.176 371.403 91.0587 371.168 90.824C370.948 90.5747 370.838 90.2227 370.838 89.768V88.712H371.014C370.912 89.2253 370.706 89.6727 370.398 90.054C370.105 90.4207 369.731 90.7067 369.276 90.912C368.822 91.1173 368.301 91.22 367.714 91.22ZM377.611 91.176C377.171 91.176 376.834 91.0587 376.599 90.824C376.365 90.5747 376.247 90.2227 376.247 89.768V81.452C376.247 80.9973 376.365 80.6527 376.599 80.418C376.834 80.1833 377.164 80.066 377.589 80.066C378.015 80.066 378.345 80.1833 378.579 80.418C378.814 80.6527 378.931 80.9973 378.931 81.452V83.058L378.689 82.398C378.983 81.6647 379.437 81.0853 380.053 80.66C380.669 80.2347 381.403 80.022 382.253 80.022C383.119 80.022 383.83 80.2273 384.387 80.638C384.945 81.0487 385.333 81.6793 385.553 82.53H385.245C385.539 81.7527 386.023 81.144 386.697 80.704C387.372 80.2493 388.149 80.022 389.029 80.022C389.851 80.022 390.525 80.1833 391.053 80.506C391.596 80.8287 391.999 81.32 392.263 81.98C392.527 82.6253 392.659 83.4467 392.659 84.444V89.768C392.659 90.2227 392.535 90.5747 392.285 90.824C392.051 91.0587 391.713 91.176 391.273 91.176C390.833 91.176 390.496 91.0587 390.261 90.824C390.027 90.5747 389.909 90.2227 389.909 89.768V84.554C389.909 83.7327 389.77 83.1313 389.491 82.75C389.227 82.3687 388.773 82.178 388.127 82.178C387.409 82.178 386.844 82.4347 386.433 82.948C386.023 83.4467 385.817 84.1433 385.817 85.038V89.768C385.817 90.2227 385.7 90.5747 385.465 90.824C385.231 91.0587 384.893 91.176 384.453 91.176C384.013 91.176 383.669 91.0587 383.419 90.824C383.185 90.5747 383.067 90.2227 383.067 89.768V84.554C383.067 83.7327 382.928 83.1313 382.649 82.75C382.385 82.3687 381.938 82.178 381.307 82.178C380.589 82.178 380.024 82.4347 379.613 82.948C379.203 83.4467 378.997 84.1433 378.997 85.038V89.768C378.997 90.7067 378.535 91.176 377.611 91.176ZM400.798 91.22C399.581 91.22 398.532 90.9927 397.652 90.538C396.772 90.0833 396.09 89.438 395.606 88.602C395.137 87.766 394.902 86.776 394.902 85.632C394.902 84.5173 395.13 83.542 395.584 82.706C396.054 81.87 396.692 81.2173 397.498 80.748C398.32 80.264 399.251 80.022 400.292 80.022C401.055 80.022 401.737 80.1467 402.338 80.396C402.954 80.6453 403.475 81.0047 403.9 81.474C404.34 81.9433 404.67 82.5153 404.89 83.19C405.125 83.85 405.242 84.598 405.242 85.434C405.242 85.698 405.147 85.9033 404.956 86.05C404.78 86.182 404.524 86.248 404.186 86.248H397.124V84.664H403.306L402.954 84.994C402.954 84.3193 402.852 83.7547 402.646 83.3C402.456 82.8453 402.17 82.5007 401.788 82.266C401.422 82.0167 400.96 81.892 400.402 81.892C399.786 81.892 399.258 82.0387 398.818 82.332C398.393 82.6107 398.063 83.014 397.828 83.542C397.608 84.0553 397.498 84.6713 397.498 85.39V85.544C397.498 86.7467 397.777 87.6487 398.334 88.25C398.906 88.8367 399.742 89.13 400.842 89.13C401.224 89.13 401.649 89.086 402.118 88.998C402.602 88.8953 403.057 88.7267 403.482 88.492C403.79 88.316 404.062 88.2427 404.296 88.272C404.531 88.2867 404.714 88.3673 404.846 88.514C404.993 88.6607 405.081 88.844 405.11 89.064C405.14 89.2693 405.096 89.482 404.978 89.702C404.876 89.922 404.692 90.1127 404.428 90.274C403.915 90.5967 403.321 90.8387 402.646 91C401.986 91.1467 401.37 91.22 400.798 91.22ZM408.784 91.176C408.344 91.176 408.007 91.0587 407.772 90.824C407.538 90.5747 407.42 90.2227 407.42 89.768V81.452C407.42 80.9973 407.538 80.6527 407.772 80.418C408.007 80.1833 408.337 80.066 408.762 80.066C409.188 80.066 409.518 80.1833 409.752 80.418C409.987 80.6527 410.104 80.9973 410.104 81.452V82.948L409.862 82.398C410.185 81.6207 410.684 81.034 411.358 80.638C412.048 80.2273 412.825 80.022 413.69 80.022C414.556 80.022 415.267 80.1833 415.824 80.506C416.382 80.8287 416.8 81.32 417.078 81.98C417.357 82.6253 417.496 83.4467 417.496 84.444V89.768C417.496 90.2227 417.379 90.5747 417.144 90.824C416.91 91.0587 416.572 91.176 416.132 91.176C415.692 91.176 415.348 91.0587 415.098 90.824C414.864 90.5747 414.746 90.2227 414.746 89.768V84.576C414.746 83.74 414.585 83.1313 414.262 82.75C413.954 82.3687 413.47 82.178 412.81 82.178C412.004 82.178 411.358 82.4347 410.874 82.948C410.405 83.4467 410.17 84.114 410.17 84.95V89.768C410.17 90.7067 409.708 91.176 408.784 91.176ZM425.217 91.22C424.264 91.22 423.465 91.0587 422.819 90.736C422.189 90.4133 421.719 89.944 421.411 89.328C421.103 88.6973 420.949 87.92 420.949 86.996V82.31H419.805C419.453 82.31 419.182 82.222 418.991 82.046C418.801 81.8553 418.705 81.5987 418.705 81.276C418.705 80.9387 418.801 80.682 418.991 80.506C419.182 80.33 419.453 80.242 419.805 80.242H420.949V78.24C420.949 77.7853 421.067 77.4407 421.301 77.206C421.551 76.9713 421.895 76.854 422.335 76.854C422.775 76.854 423.113 76.9713 423.347 77.206C423.582 77.4407 423.699 77.7853 423.699 78.24V80.242H426.031C426.383 80.242 426.655 80.33 426.845 80.506C427.036 80.682 427.131 80.9387 427.131 81.276C427.131 81.5987 427.036 81.8553 426.845 82.046C426.655 82.222 426.383 82.31 426.031 82.31H423.699V86.842C423.699 87.546 423.853 88.074 424.161 88.426C424.469 88.778 424.968 88.954 425.657 88.954C425.907 88.954 426.127 88.932 426.317 88.888C426.508 88.844 426.677 88.8147 426.823 88.8C426.999 88.7853 427.146 88.844 427.263 88.976C427.381 89.0933 427.439 89.3427 427.439 89.724C427.439 90.0173 427.388 90.2813 427.285 90.516C427.197 90.736 427.029 90.89 426.779 90.978C426.589 91.0367 426.339 91.088 426.031 91.132C425.723 91.1907 425.452 91.22 425.217 91.22ZM433.531 91.22C432.417 91.22 431.449 90.9927 430.627 90.538C429.806 90.0833 429.168 89.438 428.713 88.602C428.259 87.7513 428.031 86.754 428.031 85.61C428.031 84.7447 428.156 83.9747 428.405 83.3C428.669 82.6107 429.043 82.024 429.527 81.54C430.011 81.0413 430.591 80.6673 431.265 80.418C431.94 80.154 432.695 80.022 433.531 80.022C434.646 80.022 435.614 80.2493 436.435 80.704C437.257 81.1587 437.895 81.804 438.349 82.64C438.804 83.476 439.031 84.466 439.031 85.61C439.031 86.4753 438.899 87.2527 438.635 87.942C438.386 88.6313 438.019 89.2253 437.535 89.724C437.051 90.208 436.472 90.582 435.797 90.846C435.123 91.0953 434.367 91.22 433.531 91.22ZM433.531 89.13C434.074 89.13 434.551 88.998 434.961 88.734C435.372 88.47 435.687 88.0813 435.907 87.568C436.142 87.04 436.259 86.3873 436.259 85.61C436.259 84.4367 436.01 83.564 435.511 82.992C435.013 82.4053 434.353 82.112 433.531 82.112C432.989 82.112 432.512 82.244 432.101 82.508C431.691 82.7573 431.368 83.146 431.133 83.674C430.913 84.1873 430.803 84.8327 430.803 85.61C430.803 86.7687 431.053 87.6487 431.551 88.25C432.05 88.8367 432.71 89.13 433.531 89.13Z" fill="#343A40"/>
<rect y="249" width="562" height="87.3519" rx="4" fill="#F8F9FA"/>
<path d="M0 253C0 250.791 1.80515 249 4.01429 249V336.352C1.80515 336.352 0 334.561 0 332.352V253Z" fill="#E9ECEF"/>
<path d="M519.85 249H558C560.209 249 562 250.791 562 253V334C562 336.209 560.209 338 558 338H519.85V249Z" fill="#F8F9FA"/>
<rect x="15.0535" y="273.722" width="330.175" height="13.1852" fill="#E9ECEF"/>
<rect x="15.0535" y="300.093" width="76.2714" height="13.1852" fill="#E9ECEF"/>
<rect y="370" width="562" height="87.3519" rx="4" fill="#F8F9FA"/>
<path d="M0 374C0 371.791 1.80515 370 4.01429 370V457.352C1.80515 457.352 0 455.561 0 453.352V374Z" fill="#E9ECEF"/>
<path d="M519.85 370H558C560.209 370 562 371.791 562 374V455C562 457.209 560.209 459 558 459H519.85V370Z" fill="#F8F9FA"/>
<rect x="15.0535" y="394.722" width="330.175" height="13.1852" fill="#E9ECEF"/>
<rect x="15.0535" y="421.093" width="76.2714" height="13.1852" fill="#E9ECEF"/>
<rect y="128" width="562" height="87.3519" rx="4" fill="#F8F9FA"/>
<path d="M0 132C0 129.791 1.80515 128 4.01429 128V215.352C1.80515 215.352 0 213.561 0 211.352V132Z" fill="#E9ECEF"/>
<path d="M519.85 128H558C560.209 128 562 129.791 562 132V213C562 215.209 560.209 217 558 217H519.85V128Z" fill="#F8F9FA"/>
<rect x="15.0535" y="152.722" width="330.175" height="13.1852" fill="#E9ECEF"/>
<rect x="15.0535" y="179.093" width="76.2714" height="13.1852" fill="#E9ECEF"/>
<path d="M10.24 23.704C10.368 23.896 10.432 24.0827 10.432 24.264C10.432 24.5093 10.3307 24.712 10.128 24.872C9.936 25.032 9.70667 25.112 9.44 25.112C9.26933 25.112 9.104 25.0747 8.944 25C8.79467 24.9147 8.66667 24.792 8.56 24.632L6.432 21.4C6.21867 21.0587 5.98933 20.8187 5.744 20.68C5.50933 20.5413 5.2 20.472 4.816 20.472H3.248V24.056C3.248 24.376 3.15733 24.632 2.976 24.824C2.79467 25.0053 2.54933 25.096 2.24 25.096C1.93067 25.096 1.68 25.0053 1.488 24.824C1.30667 24.632 1.216 24.376 1.216 24.056V14.696C1.216 14.3867 1.30133 14.1467 1.472 13.976C1.65333 13.8053 1.89867 13.72 2.208 13.72H6.208C7.488 13.72 8.45867 14.008 9.12 14.584C9.792 15.1493 10.128 15.9707 10.128 17.048C10.128 17.9227 9.87733 18.6427 9.376 19.208C8.88533 19.7627 8.18667 20.12 7.28 20.28C7.58933 20.3547 7.86133 20.488 8.096 20.68C8.33067 20.872 8.56 21.1387 8.784 21.48L10.24 23.704ZM5.92 18.888C6.69867 18.888 7.26933 18.744 7.632 18.456C7.99467 18.1573 8.176 17.704 8.176 17.096C8.176 16.4773 7.99467 16.0293 7.632 15.752C7.26933 15.464 6.69867 15.32 5.92 15.32H3.232V18.888H5.92ZM18.357 22.856C18.5383 22.856 18.6823 22.9253 18.789 23.064C18.9063 23.2027 18.965 23.3893 18.965 23.624C18.965 23.9547 18.7677 24.232 18.373 24.456C18.0103 24.6587 17.5997 24.824 17.141 24.952C16.6823 25.0693 16.245 25.128 15.829 25.128C14.5703 25.128 13.573 24.7653 12.837 24.04C12.101 23.3147 11.733 22.3227 11.733 21.064C11.733 20.264 11.893 19.5547 12.213 18.936C12.533 18.3173 12.981 17.8373 13.557 17.496C14.1437 17.1547 14.805 16.984 15.541 16.984C16.245 16.984 16.8583 17.1387 17.381 17.448C17.9037 17.7573 18.309 18.1947 18.597 18.76C18.885 19.3253 19.029 19.992 19.029 20.76C19.029 21.2187 18.8263 21.448 18.421 21.448H13.701C13.765 22.184 13.973 22.728 14.325 23.08C14.677 23.4213 15.189 23.592 15.861 23.592C16.2023 23.592 16.501 23.5493 16.757 23.464C17.0237 23.3787 17.3223 23.2613 17.653 23.112C17.973 22.9413 18.2077 22.856 18.357 22.856ZM15.589 18.392C15.045 18.392 14.6077 18.5627 14.277 18.904C13.957 19.2453 13.765 19.736 13.701 20.376H17.317C17.2957 19.7253 17.1357 19.2347 16.837 18.904C16.5383 18.5627 16.1223 18.392 15.589 18.392ZM23.497 25.128C22.3343 25.128 21.3957 24.8987 20.681 24.44C20.3397 24.2373 20.169 23.9493 20.169 23.576C20.169 23.3627 20.2277 23.192 20.345 23.064C20.4623 22.9253 20.6063 22.856 20.777 22.856C20.9583 22.856 21.209 22.9413 21.529 23.112C21.8703 23.272 22.1797 23.3947 22.457 23.48C22.745 23.5653 23.1077 23.608 23.545 23.608C23.993 23.608 24.3397 23.5333 24.585 23.384C24.841 23.2347 24.969 23.0267 24.969 22.76C24.969 22.5787 24.9157 22.4347 24.809 22.328C24.713 22.2213 24.5317 22.1253 24.265 22.04C24.009 21.944 23.6143 21.8373 23.081 21.72C22.1317 21.528 21.449 21.256 21.033 20.904C20.6277 20.552 20.425 20.0667 20.425 19.448C20.425 18.9787 20.5637 18.5573 20.841 18.184C21.1183 17.8 21.497 17.5067 21.977 17.304C22.4677 17.0907 23.0223 16.984 23.641 16.984C24.089 16.984 24.521 17.0427 24.937 17.16C25.353 17.2667 25.7263 17.4267 26.057 17.64C26.3983 17.8533 26.569 18.136 26.569 18.488C26.569 18.7013 26.5103 18.8827 26.393 19.032C26.2757 19.1707 26.1317 19.24 25.961 19.24C25.8437 19.24 25.7263 19.2187 25.609 19.176C25.5023 19.1227 25.3637 19.048 25.193 18.952C24.8837 18.792 24.617 18.6747 24.393 18.6C24.169 18.5147 23.8917 18.472 23.561 18.472C23.1663 18.472 22.8517 18.552 22.617 18.712C22.393 18.872 22.281 19.0907 22.281 19.368C22.281 19.6347 22.3983 19.8373 22.633 19.976C22.8677 20.1147 23.321 20.2533 23.993 20.392C24.7077 20.5413 25.2677 20.712 25.673 20.904C26.0783 21.096 26.3663 21.336 26.537 21.624C26.7183 21.912 26.809 22.28 26.809 22.728C26.809 23.4533 26.505 24.0347 25.897 24.472C25.2997 24.9093 24.4997 25.128 23.497 25.128ZM34.6066 17.016C34.916 17.016 35.1613 17.1013 35.3426 17.272C35.524 17.4427 35.6146 17.672 35.6146 17.96V24.168C35.6146 24.4453 35.5186 24.6693 35.3266 24.84C35.1453 25.0107 34.9053 25.096 34.6066 25.096C34.3186 25.096 34.0893 25.016 33.9186 24.856C33.748 24.696 33.6626 24.4773 33.6626 24.2V23.8C33.4173 24.2267 33.0866 24.5573 32.6706 24.792C32.2546 25.016 31.7853 25.128 31.2626 25.128C29.3426 25.128 28.3826 24.0507 28.3826 21.896V17.96C28.3826 17.672 28.4733 17.4427 28.6546 17.272C28.836 17.1013 29.076 17.016 29.3746 17.016C29.684 17.016 29.9293 17.1013 30.1106 17.272C30.292 17.4427 30.3826 17.672 30.3826 17.96V21.912C30.3826 22.4667 30.4946 22.8773 30.7186 23.144C30.9426 23.4107 31.2946 23.544 31.7746 23.544C32.3293 23.544 32.772 23.3627 33.1026 23C33.444 22.6267 33.6146 22.136 33.6146 21.528V17.96C33.6146 17.672 33.7053 17.4427 33.8866 17.272C34.068 17.1013 34.308 17.016 34.6066 17.016ZM46.9923 16.984C47.8456 16.984 48.4963 17.24 48.9443 17.752C49.4029 18.2533 49.6323 19.0693 49.6323 20.2V24.136C49.6323 24.4453 49.5363 24.6853 49.3443 24.856C49.1629 25.016 48.9229 25.096 48.6243 25.096C48.3363 25.096 48.0963 25.016 47.9043 24.856C47.7229 24.6853 47.6323 24.4453 47.6323 24.136V20.2C47.6323 19.6133 47.5256 19.1973 47.3123 18.952C47.1096 18.696 46.7949 18.568 46.3683 18.568C45.8456 18.568 45.4296 18.7493 45.1203 19.112C44.8109 19.464 44.6562 19.9493 44.6562 20.568V24.136C44.6562 24.4453 44.5603 24.6853 44.3683 24.856C44.1869 25.016 43.9523 25.096 43.6643 25.096C43.3763 25.096 43.1363 25.016 42.9443 24.856C42.7523 24.6853 42.6563 24.4453 42.6563 24.136V20.2C42.6563 19.6133 42.5496 19.1973 42.3363 18.952C42.1336 18.696 41.8189 18.568 41.3923 18.568C40.8696 18.568 40.4536 18.7493 40.1443 19.112C39.8456 19.464 39.6963 19.9493 39.6963 20.568V24.136C39.6963 24.4453 39.6003 24.6853 39.4083 24.856C39.2163 25.016 38.9763 25.096 38.6883 25.096C38.4003 25.096 38.1603 25.016 37.9683 24.856C37.7869 24.6853 37.6963 24.4453 37.6963 24.136V17.944C37.6963 17.6453 37.7923 17.416 37.9843 17.256C38.1763 17.096 38.4163 17.016 38.7043 17.016C38.9816 17.016 39.2056 17.096 39.3763 17.256C39.5576 17.4053 39.6483 17.624 39.6483 17.912V18.296C39.8936 17.8693 40.2189 17.544 40.6243 17.32C41.0403 17.096 41.5149 16.984 42.0483 16.984C43.2216 16.984 44.0056 17.4747 44.4003 18.456C44.6349 18.008 44.9816 17.6507 45.4403 17.384C45.8989 17.1173 46.4163 16.984 46.9923 16.984ZM55.233 25.128C54.433 25.128 53.729 24.9627 53.121 24.632C52.5237 24.3013 52.0597 23.8267 51.729 23.208C51.3983 22.5893 51.233 21.8693 51.233 21.048C51.233 20.2267 51.3983 19.512 51.729 18.904C52.0597 18.2853 52.5237 17.8107 53.121 17.48C53.729 17.1493 54.433 16.984 55.233 16.984C56.033 16.984 56.7317 17.1493 57.329 17.48C57.937 17.8107 58.401 18.2853 58.721 18.904C59.0517 19.512 59.217 20.2267 59.217 21.048C59.217 21.8693 59.0517 22.5893 58.721 23.208C58.401 23.8267 57.937 24.3013 57.329 24.632C56.7317 24.9627 56.033 25.128 55.233 25.128ZM55.217 23.576C55.8677 23.576 56.3637 23.3627 56.705 22.936C57.0463 22.5093 57.217 21.88 57.217 21.048C57.217 20.2267 57.0463 19.6027 56.705 19.176C56.3637 18.7387 55.873 18.52 55.233 18.52C54.593 18.52 54.097 18.7387 53.745 19.176C53.4037 19.6027 53.233 20.2267 53.233 21.048C53.233 21.88 53.4037 22.5093 53.745 22.936C54.0863 23.3627 54.577 23.576 55.217 23.576ZM71.9319 15.592C71.5692 15.592 71.2812 15.496 71.0679 15.304C70.8545 15.1013 70.7479 14.84 70.7479 14.52C70.7479 14.2 70.8545 13.944 71.0679 13.752C71.2812 13.56 71.5692 13.464 71.9319 13.464C72.2839 13.464 72.5665 13.56 72.7799 13.752C73.0039 13.944 73.1159 14.2 73.1159 14.52C73.1159 14.84 73.0039 15.1013 72.7799 15.304C72.5665 15.496 72.2839 15.592 71.9319 15.592ZM72.0279 17.176C72.6252 17.176 72.9239 17.4267 72.9239 17.928V24.136C72.9239 24.4453 72.8279 24.6853 72.6359 24.856C72.4545 25.016 72.2199 25.096 71.9319 25.096C71.6439 25.096 71.4039 25.016 71.2119 24.856C71.0199 24.6853 70.9239 24.4453 70.9239 24.136V18.68H67.7559V24.136C67.7559 24.4453 67.6599 24.68 67.4679 24.84C67.2865 25 67.0519 25.08 66.7639 25.08C66.4759 25.08 66.2359 25 66.0439 24.84C65.8519 24.68 65.7559 24.4453 65.7559 24.136V18.68H64.9559C64.3585 18.68 64.0599 18.4293 64.0599 17.928C64.0599 17.4267 64.3585 17.176 64.9559 17.176H65.7559V17.096C65.7559 16.104 66.0172 15.32 66.5399 14.744C67.0732 14.1573 67.8199 13.8213 68.7799 13.736L69.1479 13.704C69.2012 13.6933 69.2812 13.688 69.3879 13.688C69.9532 13.688 70.2359 13.928 70.2359 14.408C70.2359 14.6427 70.1719 14.824 70.0439 14.952C69.9159 15.08 69.7399 15.1547 69.5159 15.176L69.1639 15.208C68.6732 15.2507 68.3159 15.4053 68.0919 15.672C67.8679 15.928 67.7559 16.3067 67.7559 16.808V17.176H72.0279ZM79.5528 16.984C80.4914 16.984 81.1901 17.2507 81.6488 17.784C82.1074 18.3173 82.3368 19.1227 82.3368 20.2V24.136C82.3368 24.4347 82.2461 24.6693 82.0648 24.84C81.8941 25.0107 81.6541 25.096 81.3448 25.096C81.0354 25.096 80.7901 25.0107 80.6088 24.84C80.4274 24.6693 80.3368 24.4347 80.3368 24.136V20.312C80.3368 19.704 80.2194 19.2613 79.9848 18.984C79.7608 18.7067 79.4034 18.568 78.9128 18.568C78.3368 18.568 77.8728 18.7493 77.5208 19.112C77.1794 19.4747 77.0088 19.96 77.0088 20.568V24.136C77.0088 24.4347 76.9181 24.6693 76.7368 24.84C76.5554 25.0107 76.3101 25.096 76.0008 25.096C75.6914 25.096 75.4461 25.0107 75.2648 24.84C75.0941 24.6693 75.0088 24.4347 75.0088 24.136V17.944C75.0088 17.6667 75.0994 17.4427 75.2808 17.272C75.4621 17.1013 75.7074 17.016 76.0168 17.016C76.2941 17.016 76.5181 17.1013 76.6888 17.272C76.8701 17.432 76.9608 17.6453 76.9608 17.912V18.344C77.2274 17.9067 77.5848 17.5707 78.0328 17.336C78.4808 17.1013 78.9874 16.984 79.5528 16.984ZM87.7601 16.984C88.8481 16.984 89.6535 17.256 90.1761 17.8C90.7095 18.3333 90.9761 19.1493 90.9761 20.248V24.152C90.9761 24.44 90.8908 24.6693 90.7201 24.84C90.5495 25 90.3148 25.08 90.0161 25.08C89.7388 25.08 89.5095 24.9947 89.3281 24.824C89.1575 24.6533 89.0721 24.4293 89.0721 24.152V23.8C88.8908 24.216 88.6028 24.5413 88.2081 24.776C87.8241 25.0107 87.3761 25.128 86.8641 25.128C86.3415 25.128 85.8668 25.0213 85.4401 24.808C85.0135 24.5947 84.6775 24.3013 84.4321 23.928C84.1868 23.5547 84.0641 23.1387 84.0641 22.68C84.0641 22.104 84.2081 21.6507 84.4961 21.32C84.7948 20.9893 85.2748 20.7493 85.9361 20.6C86.5975 20.4507 87.5095 20.376 88.6721 20.376H89.0721V20.008C89.0721 19.4853 88.9601 19.1067 88.7361 18.872C88.5121 18.6267 88.1495 18.504 87.6481 18.504C87.3388 18.504 87.0241 18.552 86.7041 18.648C86.3841 18.7333 86.0055 18.8613 85.5681 19.032C85.2908 19.1707 85.0881 19.24 84.9601 19.24C84.7681 19.24 84.6081 19.1707 84.4801 19.032C84.3628 18.8933 84.3041 18.712 84.3041 18.488C84.3041 18.3067 84.3468 18.152 84.4321 18.024C84.5281 17.8853 84.6828 17.7573 84.8961 17.64C85.2695 17.4373 85.7121 17.2773 86.2241 17.16C86.7468 17.0427 87.2588 16.984 87.7601 16.984ZM87.2641 23.688C87.7975 23.688 88.2295 23.512 88.5601 23.16C88.9015 22.7973 89.0721 22.3333 89.0721 21.768V21.432H88.7841C88.0695 21.432 87.5148 21.464 87.1201 21.528C86.7255 21.592 86.4428 21.704 86.2721 21.864C86.1015 22.024 86.0161 22.2427 86.0161 22.52C86.0161 22.8613 86.1335 23.144 86.3681 23.368C86.6135 23.5813 86.9121 23.688 87.2641 23.688ZM97.5528 16.984C98.4914 16.984 99.1901 17.2507 99.6488 17.784C100.107 18.3173 100.337 19.1227 100.337 20.2V24.136C100.337 24.4347 100.246 24.6693 100.065 24.84C99.8941 25.0107 99.6541 25.096 99.3448 25.096C99.0354 25.096 98.7901 25.0107 98.6088 24.84C98.4274 24.6693 98.3368 24.4347 98.3368 24.136V20.312C98.3368 19.704 98.2194 19.2613 97.9848 18.984C97.7608 18.7067 97.4034 18.568 96.9128 18.568C96.3368 18.568 95.8728 18.7493 95.5208 19.112C95.1794 19.4747 95.0088 19.96 95.0088 20.568V24.136C95.0088 24.4347 94.9181 24.6693 94.7368 24.84C94.5554 25.0107 94.3101 25.096 94.0008 25.096C93.6914 25.096 93.4461 25.0107 93.2648 24.84C93.0941 24.6693 93.0088 24.4347 93.0088 24.136V17.944C93.0088 17.6667 93.0994 17.4427 93.2808 17.272C93.4621 17.1013 93.7074 17.016 94.0168 17.016C94.2941 17.016 94.5181 17.1013 94.6888 17.272C94.8701 17.432 94.9608 17.6453 94.9608 17.912V18.344C95.2274 17.9067 95.5848 17.5707 96.0328 17.336C96.4808 17.1013 96.9874 16.984 97.5528 16.984ZM105.84 25.128C105.061 25.128 104.373 24.9627 103.776 24.632C103.189 24.3013 102.736 23.832 102.416 23.224C102.096 22.616 101.936 21.9067 101.936 21.096C101.936 20.2853 102.101 19.5707 102.432 18.952C102.773 18.3227 103.248 17.8373 103.856 17.496C104.464 17.1547 105.163 16.984 105.952 16.984C106.368 16.984 106.784 17.0427 107.2 17.16C107.627 17.2773 108 17.4373 108.32 17.64C108.661 17.864 108.832 18.1467 108.832 18.488C108.832 18.7227 108.773 18.9147 108.656 19.064C108.549 19.2027 108.405 19.272 108.224 19.272C108.107 19.272 107.984 19.2453 107.856 19.192C107.728 19.1387 107.6 19.0747 107.472 19C107.237 18.8613 107.013 18.7547 106.8 18.68C106.587 18.5947 106.341 18.552 106.064 18.552C105.403 18.552 104.891 18.7707 104.528 19.208C104.176 19.6347 104 20.2533 104 21.064C104 21.864 104.176 22.4827 104.528 22.92C104.891 23.3467 105.403 23.56 106.064 23.56C106.331 23.56 106.565 23.5227 106.768 23.448C106.981 23.3627 107.216 23.2507 107.472 23.112C107.632 23.016 107.771 22.9467 107.888 22.904C108.005 22.8507 108.123 22.824 108.24 22.824C108.411 22.824 108.555 22.8987 108.672 23.048C108.789 23.1973 108.848 23.384 108.848 23.608C108.848 23.7893 108.805 23.9493 108.72 24.088C108.645 24.216 108.517 24.3333 108.336 24.44C108.005 24.6533 107.621 24.824 107.184 24.952C106.747 25.0693 106.299 25.128 105.84 25.128ZM116.373 22.856C116.554 22.856 116.698 22.9253 116.805 23.064C116.922 23.2027 116.981 23.3893 116.981 23.624C116.981 23.9547 116.783 24.232 116.389 24.456C116.026 24.6587 115.615 24.824 115.157 24.952C114.698 25.0693 114.261 25.128 113.845 25.128C112.586 25.128 111.589 24.7653 110.853 24.04C110.117 23.3147 109.749 22.3227 109.749 21.064C109.749 20.264 109.909 19.5547 110.229 18.936C110.549 18.3173 110.997 17.8373 111.573 17.496C112.159 17.1547 112.821 16.984 113.557 16.984C114.261 16.984 114.874 17.1387 115.397 17.448C115.919 17.7573 116.325 18.1947 116.613 18.76C116.901 19.3253 117.045 19.992 117.045 20.76C117.045 21.2187 116.842 21.448 116.437 21.448H111.717C111.781 22.184 111.989 22.728 112.341 23.08C112.693 23.4213 113.205 23.592 113.877 23.592C114.218 23.592 114.517 23.5493 114.773 23.464C115.039 23.3787 115.338 23.2613 115.669 23.112C115.989 22.9413 116.223 22.856 116.373 22.856ZM113.605 18.392C113.061 18.392 112.623 18.5627 112.293 18.904C111.973 19.2453 111.781 19.736 111.717 20.376H115.333C115.311 19.7253 115.151 19.2347 114.853 18.904C114.554 18.5627 114.138 18.392 113.605 18.392ZM119.673 25.096C119.385 25.096 119.145 25.016 118.953 24.856C118.771 24.6853 118.681 24.4453 118.681 24.136V17.96C118.681 17.6507 118.771 17.416 118.953 17.256C119.145 17.096 119.385 17.016 119.673 17.016C119.961 17.016 120.201 17.096 120.393 17.256C120.585 17.416 120.681 17.6507 120.681 17.96V24.136C120.681 24.4453 120.585 24.6853 120.393 24.856C120.201 25.016 119.961 25.096 119.673 25.096ZM119.673 15.592C119.31 15.592 119.022 15.496 118.809 15.304C118.595 15.1013 118.489 14.84 118.489 14.52C118.489 14.2 118.595 13.944 118.809 13.752C119.022 13.56 119.31 13.464 119.673 13.464C120.025 13.464 120.307 13.56 120.521 13.752C120.745 13.944 120.857 14.2 120.857 14.52C120.857 14.84 120.75 15.1013 120.537 15.304C120.323 15.496 120.035 15.592 119.673 15.592ZM127.111 17.016C127.388 16.9947 127.607 17.0533 127.767 17.192C127.927 17.3307 128.007 17.5387 128.007 17.816C128.007 18.104 127.938 18.3173 127.799 18.456C127.66 18.5947 127.41 18.6853 127.047 18.728L126.567 18.776C125.938 18.84 125.474 19.0533 125.175 19.416C124.887 19.7787 124.743 20.232 124.743 20.776V24.136C124.743 24.4453 124.647 24.6853 124.455 24.856C124.263 25.016 124.023 25.096 123.735 25.096C123.447 25.096 123.207 25.016 123.015 24.856C122.834 24.6853 122.743 24.4453 122.743 24.136V17.944C122.743 17.6453 122.834 17.416 123.015 17.256C123.207 17.096 123.442 17.016 123.719 17.016C123.996 17.016 124.22 17.096 124.391 17.256C124.562 17.4053 124.647 17.624 124.647 17.912V18.552C124.85 18.0827 125.148 17.72 125.543 17.464C125.948 17.208 126.396 17.064 126.887 17.032L127.111 17.016ZM132.28 25.128C131.48 25.128 130.776 24.9627 130.168 24.632C129.571 24.3013 129.107 23.8267 128.776 23.208C128.445 22.5893 128.28 21.8693 128.28 21.048C128.28 20.2267 128.445 19.512 128.776 18.904C129.107 18.2853 129.571 17.8107 130.168 17.48C130.776 17.1493 131.48 16.984 132.28 16.984C133.08 16.984 133.779 17.1493 134.376 17.48C134.984 17.8107 135.448 18.2853 135.768 18.904C136.099 19.512 136.264 20.2267 136.264 21.048C136.264 21.8693 136.099 22.5893 135.768 23.208C135.448 23.8267 134.984 24.3013 134.376 24.632C133.779 24.9627 133.08 25.128 132.28 25.128ZM132.264 23.576C132.915 23.576 133.411 23.3627 133.752 22.936C134.093 22.5093 134.264 21.88 134.264 21.048C134.264 20.2267 134.093 19.6027 133.752 19.176C133.411 18.7387 132.92 18.52 132.28 18.52C131.64 18.52 131.144 18.7387 130.792 19.176C130.451 19.6027 130.28 20.2267 130.28 21.048C130.28 21.88 130.451 22.5093 130.792 22.936C131.133 23.3627 131.624 23.576 132.264 23.576Z" fill="#212529"/>
<rect x="280.7" y="0.7" width="67.6" height="38.6" rx="7.3" fill="#FD377E"/>
<path d="M299.615 24.57C299.4 24.57 299.223 24.5047 299.083 24.374C298.952 24.234 298.887 24.0567 298.887 23.842V15.834H296.087C295.639 15.834 295.415 15.6333 295.415 15.232C295.415 15.036 295.471 14.8867 295.583 14.784C295.704 14.6813 295.872 14.63 296.087 14.63H303.143C303.357 14.63 303.521 14.6813 303.633 14.784C303.754 14.8867 303.815 15.036 303.815 15.232C303.815 15.6333 303.591 15.834 303.143 15.834H300.343V23.842C300.343 24.0567 300.277 24.234 300.147 24.374C300.016 24.5047 299.839 24.57 299.615 24.57ZM306.731 24.598C306.059 24.598 305.467 24.4533 304.953 24.164C304.449 23.8747 304.057 23.464 303.777 22.932C303.507 22.3907 303.371 21.7653 303.371 21.056C303.371 20.3373 303.507 19.712 303.777 19.18C304.057 18.6387 304.449 18.2233 304.953 17.934C305.467 17.6447 306.059 17.5 306.731 17.5C307.403 17.5 307.991 17.6447 308.495 17.934C309.009 18.2233 309.401 18.6387 309.671 19.18C309.951 19.712 310.091 20.3373 310.091 21.056C310.091 21.7653 309.951 22.3907 309.671 22.932C309.401 23.464 309.009 23.8747 308.495 24.164C307.991 24.4533 307.403 24.598 306.731 24.598ZM306.731 23.478C307.357 23.478 307.833 23.2727 308.159 22.862C308.495 22.4513 308.663 21.8493 308.663 21.056C308.663 20.272 308.495 19.6747 308.159 19.264C307.823 18.844 307.347 18.634 306.731 18.634C306.115 18.634 305.639 18.844 305.303 19.264C304.967 19.6747 304.799 20.272 304.799 21.056C304.799 21.8493 304.963 22.4513 305.289 22.862C305.625 23.2727 306.106 23.478 306.731 23.478ZM317.252 14.56C317.466 14.56 317.639 14.6207 317.77 14.742C317.9 14.8633 317.966 15.0267 317.966 15.232V23.884C317.966 24.0987 317.9 24.2667 317.77 24.388C317.648 24.5093 317.48 24.57 317.266 24.57C317.051 24.57 316.878 24.5093 316.748 24.388C316.626 24.2667 316.566 24.0987 316.566 23.884V23.324C316.36 23.7347 316.062 24.052 315.67 24.276C315.278 24.4907 314.825 24.598 314.312 24.598C313.724 24.598 313.196 24.4487 312.73 24.15C312.272 23.8513 311.913 23.4313 311.652 22.89C311.4 22.3487 311.274 21.728 311.274 21.028C311.274 20.3187 311.4 19.698 311.652 19.166C311.913 18.634 312.272 18.2233 312.73 17.934C313.187 17.6447 313.714 17.5 314.312 17.5C314.825 17.5 315.273 17.612 315.656 17.836C316.048 18.0507 316.346 18.3587 316.552 18.76V15.204C316.552 15.008 316.612 14.854 316.734 14.742C316.864 14.6207 317.037 14.56 317.252 14.56ZM314.648 23.478C315.254 23.478 315.726 23.268 316.062 22.848C316.398 22.428 316.566 21.8307 316.566 21.056C316.566 20.2813 316.398 19.684 316.062 19.264C315.735 18.844 315.264 18.634 314.648 18.634C314.032 18.634 313.551 18.844 313.206 19.264C312.87 19.6747 312.702 20.2627 312.702 21.028C312.702 21.7933 312.874 22.3953 313.22 22.834C313.565 23.2633 314.041 23.478 314.648 23.478ZM322.905 24.598C322.233 24.598 321.64 24.4533 321.127 24.164C320.623 23.8747 320.231 23.464 319.951 22.932C319.68 22.3907 319.545 21.7653 319.545 21.056C319.545 20.3373 319.68 19.712 319.951 19.18C320.231 18.6387 320.623 18.2233 321.127 17.934C321.64 17.6447 322.233 17.5 322.905 17.5C323.577 17.5 324.165 17.6447 324.669 17.934C325.182 18.2233 325.574 18.6387 325.845 19.18C326.125 19.712 326.265 20.3373 326.265 21.056C326.265 21.7653 326.125 22.3907 325.845 22.932C325.574 23.464 325.182 23.8747 324.669 24.164C324.165 24.4533 323.577 24.598 322.905 24.598ZM322.905 23.478C323.53 23.478 324.006 23.2727 324.333 22.862C324.669 22.4513 324.837 21.8493 324.837 21.056C324.837 20.272 324.669 19.6747 324.333 19.264C323.997 18.844 323.521 18.634 322.905 18.634C322.289 18.634 321.813 18.844 321.477 19.264C321.141 19.6747 320.973 20.272 320.973 21.056C320.973 21.8493 321.136 22.4513 321.463 22.862C321.799 23.2727 322.28 23.478 322.905 23.478ZM330.219 24.598C329.267 24.598 328.488 24.402 327.881 24.01C327.713 23.9073 327.592 23.8 327.517 23.688C327.452 23.576 327.419 23.45 327.419 23.31C327.419 23.1607 327.461 23.0347 327.545 22.932C327.629 22.8293 327.737 22.778 327.867 22.778C327.989 22.778 328.18 22.8527 328.441 23.002C328.721 23.1513 328.992 23.2727 329.253 23.366C329.524 23.4593 329.86 23.506 330.261 23.506C330.709 23.506 331.059 23.4267 331.311 23.268C331.563 23.1093 331.689 22.8853 331.689 22.596C331.689 22.4093 331.638 22.26 331.535 22.148C331.442 22.036 331.274 21.938 331.031 21.854C330.789 21.7607 330.429 21.6627 329.953 21.56C329.132 21.3827 328.539 21.1447 328.175 20.846C327.821 20.538 327.643 20.1227 327.643 19.6C327.643 19.1987 327.76 18.8393 327.993 18.522C328.227 18.1953 328.549 17.9433 328.959 17.766C329.37 17.5887 329.837 17.5 330.359 17.5C330.733 17.5 331.097 17.5513 331.451 17.654C331.806 17.7473 332.119 17.8873 332.389 18.074C332.697 18.2793 332.851 18.5173 332.851 18.788C332.851 18.9373 332.805 19.0633 332.711 19.166C332.627 19.2687 332.525 19.32 332.403 19.32C332.319 19.32 332.235 19.3013 332.151 19.264C332.067 19.2267 331.955 19.166 331.815 19.082C331.563 18.9327 331.325 18.816 331.101 18.732C330.887 18.648 330.616 18.606 330.289 18.606C329.897 18.606 329.58 18.69 329.337 18.858C329.104 19.026 328.987 19.2547 328.987 19.544C328.987 19.8053 329.095 20.0107 329.309 20.16C329.533 20.3 329.949 20.4353 330.555 20.566C331.181 20.6967 331.671 20.846 332.025 21.014C332.38 21.182 332.632 21.392 332.781 21.644C332.94 21.8867 333.019 22.1993 333.019 22.582C333.019 23.1887 332.763 23.6787 332.249 24.052C331.745 24.416 331.069 24.598 330.219 24.598Z" fill="white"/>
<rect x="280.7" y="0.7" width="67.6" height="38.6" rx="7.3" stroke="#FD377E" stroke-width="1.4"/>
<rect x="365.7" y="0.7" width="85.6" height="38.6" rx="7.3" fill="#E9ECEF"/>
<path d="M382.097 24.5C381.845 24.5 381.649 24.4347 381.509 24.304C381.378 24.164 381.313 23.968 381.313 23.716V15.414C381.313 15.162 381.378 14.9707 381.509 14.84C381.649 14.7 381.845 14.63 382.097 14.63H387.207C387.403 14.63 387.552 14.6813 387.655 14.784C387.758 14.8773 387.809 15.0173 387.809 15.204C387.809 15.4 387.758 15.5493 387.655 15.652C387.552 15.7547 387.403 15.806 387.207 15.806H382.713V18.9H386.899C387.104 18.9 387.254 18.9513 387.347 19.054C387.45 19.1567 387.501 19.3013 387.501 19.488C387.501 19.684 387.45 19.8333 387.347 19.936C387.254 20.0293 387.104 20.076 386.899 20.076H382.713V23.324H387.207C387.403 23.324 387.552 23.3753 387.655 23.478C387.758 23.5807 387.809 23.7253 387.809 23.912C387.809 24.108 387.758 24.2573 387.655 24.36C387.552 24.4533 387.403 24.5 387.207 24.5H382.097ZM390.103 24.598C389.879 24.598 389.707 24.5373 389.585 24.416C389.464 24.2853 389.403 24.108 389.403 23.884V18.284C389.403 18.0507 389.464 17.8733 389.585 17.752C389.707 17.6307 389.875 17.57 390.089 17.57C390.313 17.57 390.481 17.6307 390.593 17.752C390.715 17.8733 390.775 18.0507 390.775 18.284V19.376L390.621 19.124C390.827 18.6013 391.149 18.2093 391.587 17.948C392.026 17.6773 392.53 17.542 393.099 17.542C393.641 17.542 394.089 17.6447 394.443 17.85C394.807 18.046 395.078 18.3493 395.255 18.76C395.433 19.1613 395.521 19.67 395.521 20.286V23.884C395.521 24.108 395.461 24.2853 395.339 24.416C395.218 24.5373 395.045 24.598 394.821 24.598C394.588 24.598 394.411 24.5373 394.289 24.416C394.168 24.2853 394.107 24.108 394.107 23.884V20.37C394.107 19.782 393.991 19.3527 393.757 19.082C393.533 18.8113 393.179 18.676 392.693 18.676C392.124 18.676 391.667 18.8533 391.321 19.208C390.985 19.5627 390.817 20.0387 390.817 20.636V23.884C390.817 24.36 390.579 24.598 390.103 24.598ZM400.382 24.626C399.822 24.626 399.35 24.528 398.968 24.332C398.585 24.136 398.3 23.8467 398.114 23.464C397.927 23.0813 397.834 22.6147 397.834 22.064V18.76H396.994C396.807 18.76 396.662 18.7133 396.56 18.62C396.457 18.5173 396.406 18.382 396.406 18.214C396.406 18.0367 396.457 17.9013 396.56 17.808C396.662 17.7147 396.807 17.668 396.994 17.668H397.834V16.226C397.834 15.9927 397.894 15.8153 398.016 15.694C398.146 15.5727 398.324 15.512 398.548 15.512C398.772 15.512 398.944 15.5727 399.066 15.694C399.187 15.8153 399.248 15.9927 399.248 16.226V17.668H400.886C401.072 17.668 401.217 17.7147 401.32 17.808C401.422 17.9013 401.474 18.0367 401.474 18.214C401.474 18.382 401.422 18.5173 401.32 18.62C401.217 18.7133 401.072 18.76 400.886 18.76H399.248V21.952C399.248 22.4467 399.35 22.82 399.556 23.072C399.77 23.324 400.116 23.45 400.592 23.45C400.76 23.45 400.904 23.436 401.026 23.408C401.156 23.3707 401.264 23.3473 401.348 23.338C401.45 23.338 401.534 23.3753 401.6 23.45C401.665 23.5153 401.698 23.646 401.698 23.842C401.698 23.982 401.67 24.1127 401.614 24.234C401.567 24.3553 401.478 24.4347 401.348 24.472C401.236 24.5093 401.082 24.542 400.886 24.57C400.699 24.6073 400.531 24.626 400.382 24.626ZM403.297 24.598C403.064 24.598 402.886 24.5373 402.765 24.416C402.644 24.2853 402.583 24.108 402.583 23.884V18.284C402.583 18.0507 402.644 17.8733 402.765 17.752C402.886 17.6307 403.054 17.57 403.269 17.57C403.493 17.57 403.661 17.6307 403.773 17.752C403.894 17.8733 403.955 18.0507 403.955 18.284V19.306H403.815C403.964 18.746 404.24 18.3213 404.641 18.032C405.042 17.7427 405.556 17.5747 406.181 17.528C406.349 17.5187 406.48 17.5607 406.573 17.654C406.676 17.7473 406.732 17.892 406.741 18.088C406.76 18.284 406.718 18.4427 406.615 18.564C406.512 18.676 406.354 18.7413 406.139 18.76L405.873 18.788C405.266 18.844 404.804 19.0353 404.487 19.362C404.17 19.6887 404.011 20.1367 404.011 20.706V23.884C404.011 24.108 403.95 24.2853 403.829 24.416C403.717 24.5373 403.54 24.598 403.297 24.598ZM409.921 24.626C409.445 24.626 409.016 24.5327 408.633 24.346C408.26 24.1593 407.966 23.9073 407.751 23.59C407.536 23.2727 407.429 22.9133 407.429 22.512C407.429 22.008 407.555 21.6113 407.807 21.322C408.068 21.0233 408.493 20.8133 409.081 20.692C409.678 20.5613 410.481 20.496 411.489 20.496H412.147V21.364H411.503C410.831 21.364 410.299 21.3967 409.907 21.462C409.515 21.5273 409.235 21.6393 409.067 21.798C408.908 21.9473 408.829 22.1573 408.829 22.428C408.829 22.7827 408.95 23.072 409.193 23.296C409.436 23.5107 409.772 23.618 410.201 23.618C410.546 23.618 410.85 23.5387 411.111 23.38C411.372 23.212 411.578 22.988 411.727 22.708C411.886 22.428 411.965 22.106 411.965 21.742V20.132C411.965 19.6 411.853 19.2173 411.629 18.984C411.405 18.7507 411.036 18.634 410.523 18.634C410.224 18.634 409.912 18.6713 409.585 18.746C409.268 18.8207 408.936 18.9467 408.591 19.124C408.432 19.1987 408.297 19.222 408.185 19.194C408.073 19.166 407.984 19.1053 407.919 19.012C407.854 18.9093 407.816 18.802 407.807 18.69C407.807 18.5687 407.835 18.452 407.891 18.34C407.956 18.228 408.064 18.144 408.213 18.088C408.624 17.892 409.03 17.752 409.431 17.668C409.832 17.584 410.21 17.542 410.565 17.542C411.19 17.542 411.704 17.64 412.105 17.836C412.516 18.032 412.819 18.3307 413.015 18.732C413.211 19.1333 413.309 19.6513 413.309 20.286V23.884C413.309 24.108 413.253 24.2853 413.141 24.416C413.029 24.5373 412.866 24.598 412.651 24.598C412.446 24.598 412.282 24.5373 412.161 24.416C412.04 24.2853 411.979 24.108 411.979 23.884V22.974H412.105C412.03 23.3193 411.89 23.618 411.685 23.87C411.489 24.1127 411.242 24.2993 410.943 24.43C410.644 24.5607 410.304 24.626 409.921 24.626ZM417.861 24.626C417.263 24.626 416.736 24.486 416.279 24.206C415.831 23.9167 415.481 23.506 415.229 22.974C414.977 22.4327 414.851 21.8027 414.851 21.084C414.851 20.3467 414.977 19.7167 415.229 19.194C415.481 18.6713 415.831 18.2653 416.279 17.976C416.736 17.6867 417.263 17.542 417.861 17.542C418.458 17.542 418.971 17.6913 419.401 17.99C419.839 18.2793 420.133 18.6713 420.283 19.166H420.129V15.246C420.129 15.0127 420.189 14.8353 420.311 14.714C420.432 14.5927 420.605 14.532 420.829 14.532C421.053 14.532 421.225 14.5927 421.347 14.714C421.477 14.8353 421.543 15.0127 421.543 15.246V23.884C421.543 24.108 421.482 24.2853 421.361 24.416C421.239 24.5373 421.067 24.598 420.843 24.598C420.619 24.598 420.446 24.5373 420.325 24.416C420.203 24.2853 420.143 24.108 420.143 23.884V22.652L420.297 22.96C420.147 23.464 419.853 23.87 419.415 24.178C418.985 24.4767 418.467 24.626 417.861 24.626ZM418.225 23.534C418.607 23.534 418.943 23.4407 419.233 23.254C419.522 23.0673 419.746 22.792 419.905 22.428C420.073 22.064 420.157 21.616 420.157 21.084C420.157 20.2813 419.979 19.6747 419.625 19.264C419.27 18.8533 418.803 18.648 418.225 18.648C417.833 18.648 417.492 18.7413 417.203 18.928C416.913 19.1053 416.685 19.376 416.517 19.74C416.358 20.104 416.279 20.552 416.279 21.084C416.279 21.8773 416.456 22.484 416.811 22.904C417.165 23.324 417.637 23.534 418.225 23.534ZM425.712 24.626C425.236 24.626 424.807 24.5327 424.424 24.346C424.051 24.1593 423.757 23.9073 423.542 23.59C423.328 23.2727 423.22 22.9133 423.22 22.512C423.22 22.008 423.346 21.6113 423.598 21.322C423.86 21.0233 424.284 20.8133 424.872 20.692C425.47 20.5613 426.272 20.496 427.28 20.496H427.938V21.364H427.294C426.622 21.364 426.09 21.3967 425.698 21.462C425.306 21.5273 425.026 21.6393 424.858 21.798C424.7 21.9473 424.62 22.1573 424.62 22.428C424.62 22.7827 424.742 23.072 424.984 23.296C425.227 23.5107 425.563 23.618 425.992 23.618C426.338 23.618 426.641 23.5387 426.902 23.38C427.164 23.212 427.369 22.988 427.518 22.708C427.677 22.428 427.756 22.106 427.756 21.742V20.132C427.756 19.6 427.644 19.2173 427.42 18.984C427.196 18.7507 426.828 18.634 426.314 18.634C426.016 18.634 425.703 18.6713 425.376 18.746C425.059 18.8207 424.728 18.9467 424.382 19.124C424.224 19.1987 424.088 19.222 423.976 19.194C423.864 19.166 423.776 19.1053 423.71 19.012C423.645 18.9093 423.608 18.802 423.598 18.69C423.598 18.5687 423.626 18.452 423.682 18.34C423.748 18.228 423.855 18.144 424.004 18.088C424.415 17.892 424.821 17.752 425.222 17.668C425.624 17.584 426.002 17.542 426.356 17.542C426.982 17.542 427.495 17.64 427.896 17.836C428.307 18.032 428.61 18.3307 428.806 18.732C429.002 19.1333 429.1 19.6513 429.1 20.286V23.884C429.1 24.108 429.044 24.2853 428.932 24.416C428.82 24.5373 428.657 24.598 428.442 24.598C428.237 24.598 428.074 24.5373 427.952 24.416C427.831 24.2853 427.77 24.108 427.77 23.884V22.974H427.896C427.822 23.3193 427.682 23.618 427.476 23.87C427.28 24.1127 427.033 24.2993 426.734 24.43C426.436 24.5607 426.095 24.626 425.712 24.626ZM433.442 24.626C433.031 24.626 432.606 24.5793 432.168 24.486C431.738 24.3927 431.342 24.234 430.978 24.01C430.856 23.926 430.772 23.8327 430.726 23.73C430.679 23.6273 430.66 23.5247 430.67 23.422C430.688 23.31 430.73 23.2167 430.796 23.142C430.87 23.058 430.959 23.0067 431.062 22.988C431.174 22.9693 431.29 22.9927 431.412 23.058C431.776 23.2633 432.126 23.408 432.462 23.492C432.798 23.5667 433.129 23.604 433.456 23.604C433.95 23.604 434.324 23.5153 434.576 23.338C434.828 23.1607 434.954 22.9227 434.954 22.624C434.954 22.3813 434.87 22.1947 434.702 22.064C434.534 21.924 434.282 21.8167 433.946 21.742L432.616 21.476C432.037 21.3547 431.598 21.14 431.3 20.832C431.001 20.524 430.852 20.132 430.852 19.656C430.852 19.2267 430.968 18.8533 431.202 18.536C431.435 18.2187 431.762 17.976 432.182 17.808C432.602 17.6307 433.087 17.542 433.638 17.542C434.048 17.542 434.436 17.5933 434.8 17.696C435.164 17.7987 435.5 17.9527 435.808 18.158C435.929 18.2233 436.008 18.312 436.046 18.424C436.083 18.5267 436.088 18.6293 436.06 18.732C436.041 18.8347 435.994 18.928 435.92 19.012C435.845 19.0867 435.752 19.1333 435.64 19.152C435.537 19.1613 435.42 19.1333 435.29 19.068C435.01 18.8907 434.73 18.7647 434.45 18.69C434.179 18.6153 433.908 18.578 433.638 18.578C433.143 18.578 432.77 18.6713 432.518 18.858C432.275 19.0353 432.154 19.278 432.154 19.586C432.154 19.8193 432.228 20.0107 432.378 20.16C432.527 20.3093 432.76 20.4167 433.078 20.482L434.408 20.748C435.014 20.8693 435.472 21.0747 435.78 21.364C436.097 21.6533 436.256 22.0453 436.256 22.54C436.256 23.184 435.999 23.6927 435.486 24.066C434.972 24.4393 434.291 24.626 433.442 24.626Z" fill="#343A40"/>
<rect x="365.7" y="0.7" width="85.6" height="38.6" rx="7.3" stroke="#E9ECEF" stroke-width="1.4"/>
<rect x="468.7" y="0.7" width="90.6" height="38.6" rx="7.3" fill="#E9ECEF"/>
<path d="M485.088 24.5C484.836 24.5 484.64 24.4347 484.5 24.304C484.37 24.164 484.304 23.968 484.304 23.716V15.414C484.304 15.162 484.37 14.9707 484.5 14.84C484.64 14.7 484.836 14.63 485.088 14.63H487.79C489.414 14.63 490.665 15.0547 491.542 15.904C492.429 16.744 492.872 17.962 492.872 19.558C492.872 20.3513 492.76 21.056 492.536 21.672C492.312 22.288 491.981 22.806 491.542 23.226C491.113 23.6367 490.586 23.954 489.96 24.178C489.335 24.3927 488.612 24.5 487.79 24.5H485.088ZM485.76 23.282H487.706C488.322 23.282 488.854 23.2073 489.302 23.058C489.76 22.8993 490.142 22.666 490.45 22.358C490.758 22.05 490.987 21.6627 491.136 21.196C491.286 20.7293 491.36 20.1833 491.36 19.558C491.36 18.3167 491.052 17.388 490.436 16.772C489.83 16.156 488.92 15.848 487.706 15.848H485.76V23.282ZM497.87 24.626C497.123 24.626 496.479 24.486 495.938 24.206C495.406 23.9167 494.991 23.5107 494.692 22.988C494.403 22.456 494.258 21.826 494.258 21.098C494.258 20.3887 494.403 19.768 494.692 19.236C494.981 18.704 495.378 18.2887 495.882 17.99C496.386 17.6913 496.96 17.542 497.604 17.542C498.08 17.542 498.505 17.6213 498.878 17.78C499.251 17.9293 499.569 18.1533 499.83 18.452C500.101 18.7413 500.301 19.096 500.432 19.516C500.572 19.936 500.642 20.4073 500.642 20.93C500.642 21.0887 500.595 21.21 500.502 21.294C500.409 21.3687 500.269 21.406 500.082 21.406H495.378V20.538H499.69L499.452 20.734C499.452 20.2673 499.382 19.8707 499.242 19.544C499.111 19.2173 498.911 18.97 498.64 18.802C498.379 18.6247 498.052 18.536 497.66 18.536C497.221 18.536 496.848 18.6387 496.54 18.844C496.241 19.0493 496.013 19.334 495.854 19.698C495.695 20.062 495.616 20.4867 495.616 20.972V21.056C495.616 21.8773 495.807 22.498 496.19 22.918C496.582 23.3287 497.147 23.534 497.884 23.534C498.164 23.534 498.458 23.4967 498.766 23.422C499.083 23.3473 499.382 23.2213 499.662 23.044C499.821 22.9507 499.961 22.9087 500.082 22.918C500.213 22.9273 500.315 22.9693 500.39 23.044C500.474 23.1187 500.525 23.212 500.544 23.324C500.563 23.436 500.544 23.5527 500.488 23.674C500.432 23.786 500.334 23.8887 500.194 23.982C499.877 24.1967 499.508 24.36 499.088 24.472C498.668 24.5747 498.262 24.626 497.87 24.626ZM504.577 24.626C504.167 24.626 503.742 24.5793 503.303 24.486C502.874 24.3927 502.477 24.234 502.113 24.01C501.992 23.926 501.908 23.8327 501.861 23.73C501.815 23.6273 501.796 23.5247 501.805 23.422C501.824 23.31 501.866 23.2167 501.931 23.142C502.006 23.058 502.095 23.0067 502.197 22.988C502.309 22.9693 502.426 22.9927 502.547 23.058C502.911 23.2633 503.261 23.408 503.597 23.492C503.933 23.5667 504.265 23.604 504.591 23.604C505.086 23.604 505.459 23.5153 505.711 23.338C505.963 23.1607 506.089 22.9227 506.089 22.624C506.089 22.3813 506.005 22.1947 505.837 22.064C505.669 21.924 505.417 21.8167 505.081 21.742L503.751 21.476C503.173 21.3547 502.734 21.14 502.435 20.832C502.137 20.524 501.987 20.132 501.987 19.656C501.987 19.2267 502.104 18.8533 502.337 18.536C502.571 18.2187 502.897 17.976 503.317 17.808C503.737 17.6307 504.223 17.542 504.773 17.542C505.184 17.542 505.571 17.5933 505.935 17.696C506.299 17.7987 506.635 17.9527 506.943 18.158C507.065 18.2233 507.144 18.312 507.181 18.424C507.219 18.5267 507.223 18.6293 507.195 18.732C507.177 18.8347 507.13 18.928 507.055 19.012C506.981 19.0867 506.887 19.1333 506.775 19.152C506.673 19.1613 506.556 19.1333 506.425 19.068C506.145 18.8907 505.865 18.7647 505.585 18.69C505.315 18.6153 505.044 18.578 504.773 18.578C504.279 18.578 503.905 18.6713 503.653 18.858C503.411 19.0353 503.289 19.278 503.289 19.586C503.289 19.8193 503.364 20.0107 503.513 20.16C503.663 20.3093 503.896 20.4167 504.213 20.482L505.543 20.748C506.15 20.8693 506.607 21.0747 506.915 21.364C507.233 21.6533 507.391 22.0453 507.391 22.54C507.391 23.184 507.135 23.6927 506.621 24.066C506.108 24.4393 505.427 24.626 504.577 24.626ZM509.665 27.118C509.441 27.118 509.268 27.0573 509.147 26.936C509.025 26.8147 508.965 26.6373 508.965 26.404V18.284C508.965 18.0507 509.025 17.8733 509.147 17.752C509.268 17.6307 509.436 17.57 509.651 17.57C509.875 17.57 510.047 17.6307 510.169 17.752C510.29 17.8733 510.351 18.0507 510.351 18.284V19.502L510.197 19.208C510.346 18.704 510.64 18.3027 511.079 18.004C511.517 17.696 512.035 17.542 512.633 17.542C513.239 17.542 513.767 17.6867 514.215 17.976C514.672 18.2653 515.022 18.6713 515.265 19.194C515.517 19.7167 515.643 20.3467 515.643 21.084C515.643 21.8027 515.517 22.4327 515.265 22.974C515.022 23.506 514.677 23.9167 514.229 24.206C513.781 24.486 513.249 24.626 512.633 24.626C512.045 24.626 511.531 24.4767 511.093 24.178C510.654 23.8793 510.36 23.4827 510.211 22.988H510.379V26.404C510.379 26.6373 510.313 26.8147 510.183 26.936C510.061 27.0573 509.889 27.118 509.665 27.118ZM512.283 23.534C512.675 23.534 513.015 23.4407 513.305 23.254C513.594 23.0673 513.818 22.792 513.977 22.428C514.135 22.064 514.215 21.616 514.215 21.084C514.215 20.2813 514.037 19.6747 513.683 19.264C513.337 18.8533 512.871 18.648 512.283 18.648C511.9 18.648 511.559 18.7413 511.261 18.928C510.971 19.1053 510.747 19.376 510.589 19.74C510.43 20.104 510.351 20.552 510.351 21.084C510.351 21.8773 510.528 22.484 510.883 22.904C511.237 23.324 511.704 23.534 512.283 23.534ZM520.442 24.626C519.696 24.626 519.052 24.486 518.51 24.206C517.978 23.9167 517.563 23.5107 517.264 22.988C516.975 22.456 516.83 21.826 516.83 21.098C516.83 20.3887 516.975 19.768 517.264 19.236C517.554 18.704 517.95 18.2887 518.454 17.99C518.958 17.6913 519.532 17.542 520.176 17.542C520.652 17.542 521.077 17.6213 521.45 17.78C521.824 17.9293 522.141 18.1533 522.402 18.452C522.673 18.7413 522.874 19.096 523.004 19.516C523.144 19.936 523.214 20.4073 523.214 20.93C523.214 21.0887 523.168 21.21 523.074 21.294C522.981 21.3687 522.841 21.406 522.654 21.406H517.95V20.538H522.262L522.024 20.734C522.024 20.2673 521.954 19.8707 521.814 19.544C521.684 19.2173 521.483 18.97 521.212 18.802C520.951 18.6247 520.624 18.536 520.232 18.536C519.794 18.536 519.42 18.6387 519.112 18.844C518.814 19.0493 518.585 19.334 518.426 19.698C518.268 20.062 518.188 20.4867 518.188 20.972V21.056C518.188 21.8773 518.38 22.498 518.762 22.918C519.154 23.3287 519.719 23.534 520.456 23.534C520.736 23.534 521.03 23.4967 521.338 23.422C521.656 23.3473 521.954 23.2213 522.234 23.044C522.393 22.9507 522.533 22.9087 522.654 22.918C522.785 22.9273 522.888 22.9693 522.962 23.044C523.046 23.1187 523.098 23.212 523.116 23.324C523.135 23.436 523.116 23.5527 523.06 23.674C523.004 23.786 522.906 23.8887 522.766 23.982C522.449 24.1967 522.08 24.36 521.66 24.472C521.24 24.5747 520.834 24.626 520.442 24.626ZM527.15 24.626C526.739 24.626 526.314 24.5793 525.876 24.486C525.446 24.3927 525.05 24.234 524.686 24.01C524.564 23.926 524.48 23.8327 524.434 23.73C524.387 23.6273 524.368 23.5247 524.378 23.422C524.396 23.31 524.438 23.2167 524.504 23.142C524.578 23.058 524.667 23.0067 524.77 22.988C524.882 22.9693 524.998 22.9927 525.12 23.058C525.484 23.2633 525.834 23.408 526.17 23.492C526.506 23.5667 526.837 23.604 527.164 23.604C527.658 23.604 528.032 23.5153 528.284 23.338C528.536 23.1607 528.662 22.9227 528.662 22.624C528.662 22.3813 528.578 22.1947 528.41 22.064C528.242 21.924 527.99 21.8167 527.654 21.742L526.324 21.476C525.745 21.3547 525.306 21.14 525.008 20.832C524.709 20.524 524.56 20.132 524.56 19.656C524.56 19.2267 524.676 18.8533 524.91 18.536C525.143 18.2187 525.47 17.976 525.89 17.808C526.31 17.6307 526.795 17.542 527.346 17.542C527.756 17.542 528.144 17.5933 528.508 17.696C528.872 17.7987 529.208 17.9527 529.516 18.158C529.637 18.2233 529.716 18.312 529.754 18.424C529.791 18.5267 529.796 18.6293 529.768 18.732C529.749 18.8347 529.702 18.928 529.628 19.012C529.553 19.0867 529.46 19.1333 529.348 19.152C529.245 19.1613 529.128 19.1333 528.998 19.068C528.718 18.8907 528.438 18.7647 528.158 18.69C527.887 18.6153 527.616 18.578 527.346 18.578C526.851 18.578 526.478 18.6713 526.226 18.858C525.983 19.0353 525.862 19.278 525.862 19.586C525.862 19.8193 525.936 20.0107 526.086 20.16C526.235 20.3093 526.468 20.4167 526.786 20.482L528.116 20.748C528.722 20.8693 529.18 21.0747 529.488 21.364C529.805 21.6533 529.964 22.0453 529.964 22.54C529.964 23.184 529.707 23.6927 529.194 24.066C528.68 24.4393 527.999 24.626 527.15 24.626ZM533.721 24.626C533.245 24.626 532.816 24.5327 532.433 24.346C532.06 24.1593 531.766 23.9073 531.551 23.59C531.336 23.2727 531.229 22.9133 531.229 22.512C531.229 22.008 531.355 21.6113 531.607 21.322C531.868 21.0233 532.293 20.8133 532.881 20.692C533.478 20.5613 534.281 20.496 535.289 20.496H535.947V21.364H535.303C534.631 21.364 534.099 21.3967 533.707 21.462C533.315 21.5273 533.035 21.6393 532.867 21.798C532.708 21.9473 532.629 22.1573 532.629 22.428C532.629 22.7827 532.75 23.072 532.993 23.296C533.236 23.5107 533.572 23.618 534.001 23.618C534.346 23.618 534.65 23.5387 534.911 23.38C535.172 23.212 535.378 22.988 535.527 22.708C535.686 22.428 535.765 22.106 535.765 21.742V20.132C535.765 19.6 535.653 19.2173 535.429 18.984C535.205 18.7507 534.836 18.634 534.323 18.634C534.024 18.634 533.712 18.6713 533.385 18.746C533.068 18.8207 532.736 18.9467 532.391 19.124C532.232 19.1987 532.097 19.222 531.985 19.194C531.873 19.166 531.784 19.1053 531.719 19.012C531.654 18.9093 531.616 18.802 531.607 18.69C531.607 18.5687 531.635 18.452 531.691 18.34C531.756 18.228 531.864 18.144 532.013 18.088C532.424 17.892 532.83 17.752 533.231 17.668C533.632 17.584 534.01 17.542 534.365 17.542C534.99 17.542 535.504 17.64 535.905 17.836C536.316 18.032 536.619 18.3307 536.815 18.732C537.011 19.1333 537.109 19.6513 537.109 20.286V23.884C537.109 24.108 537.053 24.2853 536.941 24.416C536.829 24.5373 536.666 24.598 536.451 24.598C536.246 24.598 536.082 24.5373 535.961 24.416C535.84 24.2853 535.779 24.108 535.779 23.884V22.974H535.905C535.83 23.3193 535.69 23.618 535.485 23.87C535.289 24.1127 535.042 24.2993 534.743 24.43C534.444 24.5607 534.104 24.626 533.721 24.626ZM541.451 24.626C541.04 24.626 540.615 24.5793 540.177 24.486C539.747 24.3927 539.351 24.234 538.986 24.01C538.865 23.926 538.781 23.8327 538.735 23.73C538.688 23.6273 538.669 23.5247 538.679 23.422C538.697 23.31 538.739 23.2167 538.805 23.142C538.879 23.058 538.968 23.0067 539.071 22.988C539.183 22.9693 539.299 22.9927 539.421 23.058C539.785 23.2633 540.135 23.408 540.471 23.492C540.807 23.5667 541.138 23.604 541.465 23.604C541.959 23.604 542.333 23.5153 542.585 23.338C542.837 23.1607 542.963 22.9227 542.963 22.624C542.963 22.3813 542.879 22.1947 542.711 22.064C542.543 21.924 542.291 21.8167 541.955 21.742L540.625 21.476C540.046 21.3547 539.607 21.14 539.309 20.832C539.01 20.524 538.861 20.132 538.861 19.656C538.861 19.2267 538.977 18.8533 539.211 18.536C539.444 18.2187 539.771 17.976 540.191 17.808C540.611 17.6307 541.096 17.542 541.647 17.542C542.057 17.542 542.445 17.5933 542.809 17.696C543.173 17.7987 543.509 17.9527 543.817 18.158C543.938 18.2233 544.017 18.312 544.055 18.424C544.092 18.5267 544.097 18.6293 544.069 18.732C544.05 18.8347 544.003 18.928 543.929 19.012C543.854 19.0867 543.761 19.1333 543.649 19.152C543.546 19.1613 543.429 19.1333 543.299 19.068C543.019 18.8907 542.739 18.7647 542.459 18.69C542.188 18.6153 541.917 18.578 541.647 18.578C541.152 18.578 540.779 18.6713 540.527 18.858C540.284 19.0353 540.163 19.278 540.163 19.586C540.163 19.8193 540.237 20.0107 540.387 20.16C540.536 20.3093 540.769 20.4167 541.087 20.482L542.417 20.748C543.023 20.8693 543.481 21.0747 543.789 21.364C544.106 21.6533 544.265 22.0453 544.265 22.54C544.265 23.184 544.008 23.6927 543.495 24.066C542.981 24.4393 542.3 24.626 541.451 24.626Z" fill="#343A40"/>
<rect x="468.7" y="0.7" width="90.6" height="38.6" rx="7.3" stroke="#E9ECEF" stroke-width="1.4"/>
</svg>
